<svg width="2545" height="1934" viewBox="0 0 2545 1934" fill="none" xmlns="http://www.w3.org/2000/svg">
<path opacity="0.0144928" d="M1856.23 1634.65C1865.29 1639.45 1876.43 1637.69 1883.55 1630.32L2109.89 1396.24C2114.1 1391.88 2116.42 1386.04 2116.35 1379.97L2110.73 913.909C2110.67 909.142 2109.14 904.511 2106.33 900.656L1866.19 570.549C1861.1 563.559 1852.53 560.011 1843.99 561.363L1563.54 605.782C1555 607.134 1547.94 613.159 1545.27 621.378L1418.88 1009.54C1417.41 1014.07 1417.37 1018.95 1418.79 1023.5L1557.47 1468.49C1559.28 1474.28 1563.29 1479.12 1568.65 1481.96L1856.23 1634.65Z" stroke="url(#paint0_linear_3_108)" stroke-width="4"/>
<path opacity="0.0289855" d="M1805.08 1633.16C1813.86 1638.4 1825.04 1637.23 1832.53 1630.27L2069.45 1410.33C2073.9 1406.2 2076.53 1400.47 2076.78 1394.41L2095.61 932.976C2095.8 928.198 2094.5 923.478 2091.89 919.473L1870.81 580.496C1866.09 573.265 1857.73 569.284 1849.14 570.187L1568.43 599.691C1559.84 600.593 1552.49 606.227 1549.38 614.28L1403.6 991.815C1401.88 996.276 1401.59 1001.16 1402.78 1005.8L1517.13 1453.23C1518.63 1459.11 1522.4 1464.16 1527.61 1467.27L1805.08 1633.16Z" stroke="url(#paint1_linear_3_108)" stroke-width="4"/>
<path opacity="0.0434783" d="M1754.32 1630.12C1762.8 1635.79 1773.99 1635.2 1781.83 1628.68L2028.47 1423.33C2033.14 1419.43 2036.09 1413.85 2036.65 1407.8L2079.43 952.271C2079.88 947.496 2078.82 942.7 2076.41 938.554L1874.66 591.788C1870.32 584.336 1862.19 579.935 1853.58 580.386L1573.39 595.07C1564.78 595.521 1557.15 600.749 1553.61 608.613L1389.21 974.569C1387.25 978.944 1386.7 983.824 1387.65 988.526L1477.8 1437.09C1479 1443.05 1482.51 1448.29 1487.56 1451.67L1754.32 1630.12Z" stroke="url(#paint2_linear_3_108)" stroke-width="4"/>
<path opacity="0.057971" d="M1704.04 1625.56C1712.19 1631.64 1723.37 1631.64 1731.52 1625.56L1987.02 1435.22C1991.9 1431.58 1995.15 1426.15 1996.03 1420.13L2062.19 971.737C2062.89 966.977 2062.09 962.117 2059.88 957.841L1877.67 604.37C1873.72 596.717 1865.83 591.909 1857.22 591.909L1578.34 591.909C1569.73 591.909 1561.84 596.717 1557.9 604.37L1375.68 957.841C1373.48 962.117 1372.67 966.977 1373.37 971.737L1439.53 1420.13C1440.42 1426.15 1443.66 1431.58 1448.54 1435.22L1704.04 1625.56Z" stroke="url(#paint3_linear_3_108)" stroke-width="4"/>
<path opacity="0.0724638" d="M1654.31 1619.54C1662.13 1626 1673.25 1626.58 1681.7 1620.97L1945.16 1445.99C1950.24 1442.62 1953.77 1437.36 1954.98 1431.39L2043.89 991.313C2044.84 986.582 2044.29 981.671 2042.3 977.274L1879.77 618.184C1876.22 610.351 1868.6 605.149 1860.02 604.699L1583.2 590.192C1574.62 589.742 1566.5 594.119 1562.15 601.538L1362.97 941.672C1360.54 945.837 1359.47 950.663 1359.92 955.468L1402.35 1402.42C1402.92 1408.49 1405.89 1414.09 1410.58 1417.97L1654.31 1619.54Z" stroke="url(#paint4_linear_3_108)" stroke-width="4"/>
<path opacity="0.0869565" d="M1605.22 1612.08C1612.67 1618.91 1623.71 1620.07 1632.43 1614.94L1902.95 1455.63C1908.22 1452.53 1912.03 1447.47 1913.55 1441.55L2024.53 1010.94C2025.73 1006.25 2025.43 1001.3 2023.66 996.796L1880.9 633.169C1877.76 625.176 1870.43 619.597 1861.89 618.7L1587.9 589.901C1579.36 589.004 1571.03 592.937 1566.3 600.103L1351.05 926.102C1348.39 930.143 1347.06 934.922 1347.27 939.759L1366.29 1384.03C1366.55 1390.13 1369.22 1395.88 1373.73 1400.01L1605.22 1612.08Z" stroke="url(#paint5_linear_3_108)" stroke-width="4"/>
<path opacity="0.101449" d="M1556.83 1603.24C1563.91 1610.42 1574.83 1612.15 1583.78 1607.51L1860.46 1464.13C1865.89 1461.32 1869.98 1456.45 1871.81 1450.62L2004.1 1030.56C2005.56 1025.93 2005.52 1020.96 2003.97 1016.35L1881.01 649.26C1878.29 641.13 1871.27 635.19 1862.8 633.848L1592.35 591.013C1583.88 589.672 1575.37 593.152 1570.26 600.043L1339.88 911.168C1336.99 915.071 1335.41 919.79 1335.37 924.647L1331.38 1365.02C1331.32 1371.14 1333.71 1377.03 1338 1381.38L1556.83 1603.24Z" stroke="url(#paint6_linear_3_108)" stroke-width="4"/>
<path opacity="0.115942" d="M1509.2 1593.08C1515.89 1600.59 1526.68 1602.88 1535.84 1598.74L1817.74 1471.49C1823.33 1468.96 1827.67 1464.32 1829.82 1458.58L1982.63 1050.12C1984.34 1045.56 1984.55 1040.57 1983.24 1035.88L1880.04 666.391C1877.74 658.145 1871.05 651.861 1862.67 650.08L1596.48 593.5C1588.11 591.72 1579.44 594.738 1573.98 601.335L1329.42 896.903C1326.31 900.658 1324.48 905.302 1324.18 910.166L1297.65 1345.46C1297.28 1351.58 1299.36 1357.59 1303.43 1362.17L1509.2 1593.08Z" stroke="url(#paint7_linear_3_108)" stroke-width="4"/>
<path opacity="0.130435" d="M1462.42 1581.65C1468.7 1589.46 1479.32 1592.3 1488.66 1588.68L1774.87 1477.7C1780.59 1475.48 1785.19 1471.06 1787.64 1465.44L1960.12 1069.56C1962.07 1065.08 1962.55 1060.09 1961.47 1055.32L1877.96 684.492C1876.08 676.152 1869.73 669.542 1861.47 667.329L1600.23 597.33C1591.97 595.118 1583.17 597.668 1577.37 603.951L1319.63 883.341C1316.32 886.935 1314.23 891.491 1313.68 896.35L1265.12 1325.43C1264.43 1331.53 1266.2 1337.65 1270.05 1342.43L1462.42 1581.65Z" stroke="url(#paint8_linear_3_108)" stroke-width="4"/>
<path opacity="0.144928" d="M1416.54 1569C1422.4 1577.09 1432.81 1580.47 1442.31 1577.37L1731.89 1482.76C1737.74 1480.85 1742.57 1476.69 1745.32 1471.19L1936.58 1088.82C1938.78 1084.44 1939.51 1079.46 1938.68 1074.63L1874.7 703.493C1873.25 695.081 1867.26 688.164 1859.14 685.526L1603.52 602.471C1595.41 599.833 1586.49 601.908 1580.38 607.862L1310.47 870.511C1306.96 873.933 1304.63 878.389 1303.82 883.228L1233.81 1304.99C1232.8 1311.05 1234.26 1317.27 1237.87 1322.24L1416.54 1569Z" stroke="url(#paint9_linear_3_108)" stroke-width="4"/>
<path opacity="0.15942" d="M1371.61 1555.2C1377.04 1563.55 1387.22 1567.46 1396.84 1564.88L1688.89 1486.69C1694.83 1485.1 1699.89 1481.19 1702.93 1475.84L1912.03 1107.86C1914.47 1103.58 1915.46 1098.63 1914.87 1093.74L1870.24 723.32C1869.22 714.858 1863.6 707.653 1855.65 704.599L1606.3 608.882C1598.34 605.828 1589.34 607.424 1582.92 613.03L1301.89 858.441C1298.19 861.679 1295.62 866.021 1294.56 870.829L1203.72 1284.21C1202.4 1290.22 1203.54 1296.51 1206.9 1301.68L1371.61 1555.2Z" stroke="url(#paint10_linear_3_108)" stroke-width="4"/>
<path opacity="0.173913" d="M1327.69 1540.31C1332.67 1548.9 1342.61 1553.32 1352.32 1551.27L1645.9 1489.5C1651.94 1488.23 1657.21 1484.59 1660.53 1479.4L1886.5 1126.6C1889.16 1122.44 1890.42 1117.54 1890.07 1112.61L1864.53 743.898C1863.95 735.408 1858.72 727.937 1850.94 724.475L1608.48 616.524C1600.71 613.062 1591.66 614.176 1584.95 619.42L1293.86 847.155C1289.97 850.199 1287.16 854.415 1285.85 859.178L1174.87 1263.17C1173.24 1269.11 1174.06 1275.47 1177.16 1280.8L1327.69 1540.31Z" stroke="url(#paint11_linear_3_108)" stroke-width="4"/>
<path opacity="0.188406" d="M1284.84 1524.4C1289.36 1533.2 1299.02 1538.12 1308.8 1536.61L1603 1491.19C1609.11 1490.24 1614.58 1486.89 1618.18 1481.87L1859.99 1145.01C1862.88 1140.98 1864.4 1136.13 1864.3 1131.18L1857.56 765.15C1857.4 756.655 1852.57 748.938 1845 745.081L1610.02 625.35C1602.45 621.493 1593.37 622.123 1586.4 626.99L1286.32 836.677C1282.25 839.516 1279.22 843.592 1277.66 848.298L1147.27 1241.93C1145.33 1247.79 1145.83 1254.19 1148.65 1259.68L1284.84 1524.4Z" stroke="url(#paint12_linear_3_108)" stroke-width="4"/>
<path opacity="0.202899" d="M1243.09 1507.54C1247.15 1516.52 1256.5 1521.92 1266.32 1520.95L1560.25 1491.78C1566.4 1491.17 1572.05 1488.1 1575.92 1483.27L1832.55 1163.03C1835.66 1159.15 1837.43 1154.37 1837.59 1149.39L1849.29 787C1849.56 778.522 1845.14 770.581 1837.8 766.34L1610.86 635.315C1603.51 631.073 1594.42 631.22 1587.22 635.696L1279.23 827.024C1275 829.65 1271.74 833.574 1269.93 838.209L1120.91 1220.57C1118.66 1226.34 1118.83 1232.76 1121.38 1238.4L1243.09 1507.54Z" stroke="url(#paint13_linear_3_108)" stroke-width="4"/>
<path opacity="0.217391" d="M1202.49 1489.79C1206.08 1498.95 1215.1 1504.8 1224.92 1504.36L1517.69 1491.29C1523.88 1491.01 1529.7 1488.25 1533.82 1483.62L1804.19 1180.62C1807.51 1176.9 1809.53 1172.19 1809.94 1167.21L1839.69 809.37C1840.39 800.93 1836.4 792.788 1829.3 788.175L1610.93 646.366C1603.83 641.754 1594.77 641.418 1587.34 645.492L1272.54 818.216C1268.16 820.618 1264.68 824.379 1262.63 828.931L1095.79 1199.16C1093.25 1204.81 1093.09 1211.25 1095.35 1217.02L1202.49 1489.79Z" stroke="url(#paint14_linear_3_108)" stroke-width="4"/>
<path opacity="0.231884" d="M1163.07 1471.24C1166.19 1480.53 1174.85 1486.83 1184.65 1486.92L1475.39 1489.73C1481.59 1489.79 1487.56 1487.34 1491.94 1482.94L1774.94 1197.72C1778.47 1194.17 1780.74 1189.55 1781.41 1184.59L1828.77 832.181C1829.89 823.801 1826.33 815.48 1819.49 810.51L1610.2 658.453C1603.36 653.483 1594.35 652.667 1586.72 656.327L1266.2 810.266C1261.68 812.435 1258 816.021 1255.7 820.477L1071.9 1177.77C1069.06 1183.29 1068.58 1189.72 1070.55 1195.61L1163.07 1471.24Z" stroke="url(#paint15_linear_3_108)" stroke-width="4"/>
<path opacity="0.246377" d="M1124.87 1451.96C1127.51 1461.36 1135.8 1468.07 1145.55 1468.7L1433.39 1487.15C1439.6 1487.55 1445.7 1485.41 1450.31 1481.24L1744.84 1214.3C1748.57 1210.92 1751.09 1206.42 1752.01 1201.47L1816.49 855.353C1818.04 847.055 1814.91 838.577 1808.35 833.266L1608.61 671.519C1602.05 666.207 1593.11 664.915 1585.32 668.152L1260.17 803.185C1255.52 805.115 1251.64 808.514 1249.11 812.862L1049.24 1156.46C1046.11 1161.83 1045.3 1168.25 1046.98 1174.24L1124.87 1451.96Z" stroke="url(#paint16_linear_3_108)" stroke-width="4"/>
<path opacity="0.26087" d="M1087.92 1432.01C1090.07 1441.5 1097.97 1448.61 1107.63 1449.76L1391.76 1483.55C1397.94 1484.29 1404.16 1482.49 1409 1478.55L1713.93 1230.3C1717.85 1227.12 1720.6 1222.73 1721.78 1217.82L1802.86 878.807C1804.82 870.613 1802.14 862.003 1795.88 856.365L1606.12 685.507C1599.86 679.869 1591.02 678.106 1583.07 680.912L1254.39 796.984C1249.63 798.666 1245.56 801.867 1242.8 806.095L1027.78 1135.31C1024.38 1140.52 1023.23 1146.9 1024.61 1152.97L1087.92 1432.01Z" stroke="url(#paint17_linear_3_108)" stroke-width="4"/>
<path opacity="0.275362" d="M1052.23 1411.48C1053.9 1421.04 1061.38 1428.52 1070.94 1430.19L1350.53 1478.98C1356.68 1480.05 1363 1478.58 1368.04 1474.9L1682.24 1245.7C1686.33 1242.71 1689.32 1238.45 1690.75 1233.59L1787.87 902.466C1790.24 894.395 1788.01 885.676 1782.06 879.729L1602.69 700.357C1596.74 694.41 1588.02 692.184 1579.95 694.551L1248.83 791.669C1243.97 793.095 1239.71 796.089 1236.72 800.184L1007.52 1114.38C1003.84 1119.42 1002.37 1125.74 1003.44 1131.89L1052.23 1411.48Z" stroke="url(#paint18_linear_3_108)" stroke-width="4"/>
<path opacity="0.289855" d="M1017.84 1390.45C1019.02 1400.04 1026.07 1407.87 1035.49 1410.05L1309.77 1473.46C1315.86 1474.87 1322.26 1473.74 1327.5 1470.33L1649.8 1260.44C1654.07 1257.66 1657.29 1253.55 1658.97 1248.74L1771.52 926.25C1774.29 918.324 1772.52 909.52 1766.9 903.281L1598.28 716.01C1592.66 709.772 1584.09 707.089 1575.92 709.012L1243.43 787.243C1238.47 788.408 1234.05 791.184 1230.84 795.134L988.413 1093.73C984.472 1098.59 982.677 1104.83 983.441 1111.04L1017.84 1390.45Z" stroke="url(#paint19_linear_3_108)" stroke-width="4"/>
<path opacity="0.304348" d="M984.746 1368.98C985.441 1378.59 992.044 1386.74 1001.29 1389.42L1269.5 1467.03C1275.52 1468.77 1281.99 1467.98 1287.41 1464.85L1616.67 1274.49C1621.09 1271.94 1624.54 1267.98 1626.46 1263.25L1753.83 950.082C1756.98 942.32 1755.67 933.455 1750.4 926.943L1592.86 732.403C1587.59 725.891 1579.19 722.762 1570.94 724.236L1238.14 783.708C1233.11 784.606 1228.52 787.154 1225.1 790.949L970.451 1073.44C966.258 1078.09 964.143 1084.25 964.595 1090.5L984.746 1368.98Z" stroke="url(#paint20_linear_3_108)" stroke-width="4"/>
<path opacity="0.318841" d="M952.966 1347.17C953.177 1356.76 959.318 1365.21 968.374 1368.37L1229.79 1459.72C1235.71 1461.79 1242.22 1461.35 1247.81 1458.5L1582.88 1287.83C1587.45 1285.5 1591.11 1281.71 1593.28 1277.06L1734.79 973.886C1738.33 966.307 1737.47 957.405 1732.56 950.639L1586.4 749.473C1581.48 742.706 1573.28 739.142 1564.98 740.164L1232.91 781.062C1227.82 781.689 1223.09 784 1219.46 787.628L953.601 1053.55C949.164 1057.99 946.734 1064.05 946.872 1070.32L952.966 1347.17Z" stroke="url(#paint21_linear_3_108)" stroke-width="4"/>
<path opacity="0.333333" d="M922.504 1325.07C922.235 1334.63 927.9 1343.35 936.736 1346.99L1190.66 1451.57C1196.47 1453.97 1203.01 1453.88 1208.76 1451.33L1548.47 1300.41C1553.18 1298.32 1557.05 1294.71 1559.46 1290.16L1714.43 997.585C1718.34 990.208 1717.94 981.294 1713.39 974.293L1578.87 767.154C1574.33 760.153 1566.35 756.165 1558.02 756.734L1227.71 779.302C1222.57 779.653 1217.69 781.719 1213.87 785.169L937.829 1034.14C933.161 1038.35 930.42 1044.28 930.243 1050.57L922.504 1325.07Z" stroke="url(#paint22_linear_3_108)" stroke-width="4"/>
<path opacity="0.347826" d="M893.362 1302.78C892.617 1312.27 897.795 1321.24 906.386 1325.34L1152.15 1442.63C1157.84 1445.34 1164.39 1445.6 1170.27 1443.36L1513.5 1312.22C1518.33 1310.37 1522.4 1306.95 1525.05 1302.51L1692.76 1021.11C1697.02 1013.95 1697.09 1005.05 1692.92 997.832L1570.26 785.381C1566.1 778.166 1558.35 773.768 1550.02 773.883L1222.47 778.421C1217.3 778.492 1212.3 780.305 1208.28 783.567L923.101 1015.25C918.213 1019.22 915.167 1025.02 914.674 1031.3L893.362 1302.78Z" stroke="url(#paint23_linear_3_108)" stroke-width="4"/>
<path opacity="0.362319" d="M865.536 1280.37C864.322 1289.77 869.002 1298.96 877.323 1303.5L1114.31 1432.93C1119.85 1435.95 1126.39 1436.57 1132.39 1434.63L1478.01 1323.22C1482.96 1321.63 1487.21 1318.41 1490.1 1314.08L1669.81 1044.38C1674.42 1037.46 1674.93 1028.59 1671.16 1021.18L1560.54 804.089C1556.77 796.681 1549.29 791.887 1540.98 791.55L1217.16 778.41C1211.97 778.199 1206.86 779.752 1202.66 782.815L909.378 996.941C904.281 1000.66 900.938 1006.31 900.129 1012.57L865.536 1280.37Z" stroke="url(#paint24_linear_3_108)" stroke-width="4"/>
<path opacity="0.376812" d="M839.019 1257.91C837.342 1267.2 841.515 1276.58 849.543 1281.55L1077.16 1422.51C1082.54 1425.84 1089.05 1426.81 1095.16 1425.2L1442.05 1333.39C1447.09 1332.06 1451.53 1329.05 1454.64 1324.86L1645.6 1067.33C1650.54 1060.67 1651.51 1051.86 1648.13 1044.28L1549.71 823.211C1546.33 815.632 1539.14 810.457 1530.88 809.67L1211.72 779.258C1206.53 778.763 1201.32 780.049 1196.95 782.904L896.617 979.267C891.326 982.727 887.692 988.211 886.569 994.433L839.019 1257.91Z" stroke="url(#paint25_linear_3_108)" stroke-width="4"/>
<path opacity="0.391304" d="M813.798 1235.48C811.667 1244.64 815.327 1254.17 823.04 1259.55L1040.74 1411.43C1045.93 1415.06 1052.39 1416.38 1058.59 1415.09L1405.66 1342.72C1410.79 1341.65 1415.4 1338.86 1418.73 1334.81L1620.16 1089.89C1625.42 1083.5 1626.84 1074.77 1623.87 1067.04L1537.75 842.682C1534.78 834.953 1527.89 829.414 1519.7 828.181L1206.12 780.952C1200.94 780.172 1195.65 781.184 1191.12 783.822L884.777 962.276C879.303 965.464 875.387 970.768 873.952 976.937L813.798 1235.48Z" stroke="url(#paint26_linear_3_108)" stroke-width="4"/>
<path opacity="0.405797" d="M789.859 1213.14C787.283 1222.15 790.424 1231.81 797.8 1237.58L1005.07 1399.73C1010.07 1403.64 1016.46 1405.31 1022.73 1404.35L1368.9 1351.18C1374.1 1350.38 1378.88 1347.82 1382.42 1343.93L1593.53 1112C1599.09 1105.89 1600.95 1097.27 1598.4 1089.41L1524.65 862.435C1522.1 854.578 1515.53 848.693 1507.43 847.019L1200.32 783.476C1195.16 782.409 1189.8 783.143 1185.12 785.555L873.809 946.013C868.168 948.921 863.979 954.03 862.234 960.132L789.859 1213.14Z" stroke="url(#paint27_linear_3_108)" stroke-width="4"/>
<path opacity="0.42029" d="M767.18 1190.98C764.171 1199.8 766.788 1209.57 773.808 1215.71L970.174 1387.46C974.96 1391.64 981.266 1393.66 987.594 1393.03L1331.82 1358.76C1337.08 1358.24 1342 1355.92 1345.75 1352.19L1565.75 1133.59C1571.6 1127.78 1573.89 1119.29 1571.76 1111.33L1510.42 882.404C1508.28 874.442 1502.05 868.23 1494.08 866.122L1194.26 786.811C1189.15 785.459 1183.73 785.909 1178.91 788.086L863.665 930.522C857.871 933.141 853.418 938.041 851.366 944.06L767.18 1190.98Z" stroke="url(#paint28_linear_3_108)" stroke-width="4"/>
<path opacity="0.434783" d="M745.739 1169.05C742.307 1177.68 744.4 1187.52 751.043 1194.01L936.078 1374.65C940.637 1379.1 946.838 1381.46 953.203 1381.17L1294.46 1365.45C1299.77 1365.21 1304.83 1363.13 1308.78 1359.58L1536.86 1154.61C1542.97 1149.11 1545.69 1140.76 1543.98 1132.72L1495.05 902.525C1493.34 894.48 1487.46 887.96 1479.64 885.426L1187.91 790.937C1182.86 789.3 1177.39 789.463 1172.44 791.399L854.295 915.844C848.361 918.165 843.656 922.843 841.302 928.764L745.739 1169.05Z" stroke="url(#paint29_linear_3_108)" stroke-width="4"/>
<path opacity="0.449275" d="M725.507 1147.43C721.667 1155.84 723.233 1165.73 729.484 1172.54L902.8 1361.37C907.117 1366.07 913.195 1368.77 919.579 1368.82L1256.89 1371.24C1262.23 1371.28 1267.41 1369.46 1271.55 1366.1L1506.89 1174.99C1513.26 1169.81 1516.39 1161.64 1515.11 1153.53L1478.55 922.732C1477.27 914.627 1471.77 907.821 1464.11 904.869L1181.23 795.833C1176.25 793.914 1170.76 793.786 1165.69 795.471L845.645 902.015C839.588 904.031 834.641 908.475 831.989 914.282L725.507 1147.43Z" stroke="url(#paint30_linear_3_108)" stroke-width="4"/>
<path opacity="0.463768" d="M706.454 1126.18C702.219 1134.35 703.26 1144.26 709.101 1151.37L870.357 1347.66C874.417 1352.6 880.354 1355.63 886.739 1356.02L1219.14 1376.13C1224.5 1376.46 1229.79 1374.9 1234.12 1371.73L1475.91 1194.67C1482.51 1189.84 1486.05 1181.85 1485.19 1173.71L1460.94 942.963C1460.08 934.822 1454.96 927.749 1447.5 924.391L1174.18 801.474C1169.29 799.274 1163.79 798.853 1158.62 800.283L837.661 889.068C831.495 890.774 826.318 894.97 823.374 900.65L706.454 1126.18Z" stroke="url(#paint31_linear_3_108)" stroke-width="4"/>
<path opacity="0.478261" d="M688.545 1105.36C683.93 1113.27 684.448 1123.17 689.865 1130.56L838.76 1333.57C842.551 1338.74 848.328 1342.09 854.697 1342.82L1181.28 1380.11C1186.63 1380.72 1192.03 1379.43 1196.53 1376.47L1443.95 1213.62C1450.77 1209.13 1454.7 1201.36 1454.27 1193.21L1442.21 963.155C1441.79 955 1437.07 947.683 1429.81 943.93L1166.73 807.834C1161.95 805.358 1156.44 804.641 1151.18 805.809L830.287 877.035C824.028 878.424 818.634 882.362 815.404 887.899L688.545 1105.36Z" stroke="url(#paint32_linear_3_108)" stroke-width="4"/>
<path opacity="0.492754" d="M671.742 1085.04C666.762 1092.68 666.762 1102.53 671.742 1110.17L808.022 1319.15C811.531 1324.53 817.13 1328.2 823.464 1329.27L1143.35 1383.18C1148.69 1384.08 1154.18 1383.07 1158.84 1380.32L1411.07 1231.78C1418.09 1227.64 1422.4 1220.11 1422.4 1211.96L1422.4 983.247C1422.4 975.101 1418.09 967.563 1411.07 963.429L1158.84 814.886C1154.18 812.138 1148.69 811.124 1143.35 812.025L823.464 865.942C817.13 867.01 811.531 870.678 808.022 876.059L671.742 1085.04Z" stroke="url(#paint33_linear_3_108)" stroke-width="4"/>
<path opacity="0.507246" d="M656.004 1065.27C650.677 1072.61 650.164 1082.4 654.694 1090.26L778.149 1304.45C781.363 1310.03 786.768 1314 793.05 1315.41L1105.4 1385.35C1110.71 1386.54 1116.27 1385.81 1121.1 1383.28L1377.33 1249.1C1384.53 1245.33 1389.2 1238.04 1389.63 1229.93L1401.51 1003.18C1401.94 995.066 1398.05 987.33 1391.29 982.828L1150.48 822.6C1145.95 819.585 1140.49 818.274 1135.09 818.902L817.136 855.812C810.742 856.555 804.951 859.943 801.171 865.154L656.004 1065.27Z" stroke="url(#paint34_linear_3_108)" stroke-width="4"/>
<path opacity="0.521739" d="M641.288 1046.1C635.631 1053.13 634.612 1062.83 638.683 1070.88L749.146 1289.52C752.055 1295.28 757.248 1299.55 763.459 1301.29L1067.49 1386.62C1072.76 1388.1 1078.38 1387.65 1083.35 1385.36L1342.78 1265.55C1350.14 1262.15 1355.17 1255.13 1356.01 1247.07L1379.58 1022.9C1380.42 1014.84 1376.97 1006.93 1370.47 1002.07L1141.62 830.946C1137.23 827.669 1131.83 826.062 1126.37 826.413L811.242 846.666C804.805 847.08 798.836 850.179 794.794 855.206L641.288 1046.1Z" stroke="url(#paint35_linear_3_108)" stroke-width="4"/>
<path opacity="0.536232" d="M627.547 1027.58C621.578 1034.29 620.062 1043.87 623.665 1052.09L721.015 1274.41C723.608 1280.33 728.574 1284.89 734.696 1286.96L1029.66 1387C1034.87 1388.76 1040.54 1388.61 1045.64 1386.55L1307.49 1281.09C1314.98 1278.07 1320.34 1271.33 1321.61 1263.35L1356.61 1042.34C1357.88 1034.36 1354.86 1026.3 1348.66 1021.11L1132.22 839.891C1128 836.36 1122.66 834.457 1117.16 834.528L805.722 838.52C799.258 838.603 793.127 841.402 788.831 846.233L627.547 1027.58Z" stroke="url(#paint36_linear_3_108)" stroke-width="4"/>
<path opacity="0.550725" d="M614.732 1009.77C608.47 1016.15 606.467 1025.57 609.595 1033.94L693.755 1259.16C696.023 1265.23 700.746 1270.06 706.761 1272.47L991.96 1386.5C997.094 1388.55 1002.8 1388.69 1008.02 1386.88L1271.5 1295.68C1279.12 1293.04 1284.8 1286.61 1286.47 1278.72L1332.65 1061.46C1334.33 1053.58 1331.76 1045.39 1325.87 1039.88L1122.27 849.402C1118.23 845.624 1112.96 843.427 1107.44 843.214L800.516 831.386C794.042 831.136 787.763 833.629 783.223 838.251L614.732 1009.77Z" stroke="url(#paint37_linear_3_108)" stroke-width="4"/>
<path opacity="0.565217" d="M602.792 992.707C596.256 998.731 593.778 1007.98 596.425 1016.47L667.363 1243.84C669.297 1250.03 673.761 1255.13 679.653 1257.85L954.442 1385.13C959.487 1387.47 965.208 1387.9 970.545 1386.35L1234.89 1309.29C1242.6 1307.04 1248.59 1300.93 1250.67 1293.16L1307.73 1080.2C1309.81 1072.44 1307.69 1064.15 1302.13 1058.35L1111.73 859.443C1107.88 855.427 1102.71 852.939 1097.18 852.441L795.563 825.273C789.096 824.691 782.684 826.869 777.91 831.27L602.792 992.707Z" stroke="url(#paint38_linear_3_108)" stroke-width="4"/>
<path opacity="0.57971" d="M591.673 976.431C584.884 982.094 581.942 991.148 584.106 999.72L641.833 1228.47C643.425 1234.78 647.616 1240.12 653.366 1243.17L917.151 1382.92C922.092 1385.54 927.816 1386.27 933.254 1384.97L1197.71 1321.9C1205.51 1320.04 1211.78 1314.26 1214.25 1306.64L1281.87 1098.52C1284.35 1090.9 1282.68 1082.53 1277.47 1076.45L1100.58 869.981C1096.95 865.735 1091.89 862.96 1086.35 862.173L790.801 820.187C784.358 819.272 777.829 821.129 772.832 825.298L591.673 976.431Z" stroke="url(#paint39_linear_3_108)" stroke-width="4"/>
<path opacity="0.594203" d="M581.32 960.981C574.298 966.272 570.908 975.104 572.585 983.735L617.155 1213.12C618.399 1219.52 622.303 1225.09 627.895 1228.45L880.133 1379.88C884.953 1382.77 890.667 1383.8 896.194 1382.77L1160.04 1333.49C1167.89 1332.03 1174.43 1326.59 1177.29 1319.13L1255.12 1116.36C1257.99 1108.9 1256.77 1100.49 1251.92 1094.14L1088.81 880.977C1085.4 876.512 1080.46 873.453 1074.94 872.378L786.17 816.131C779.768 814.884 773.138 816.413 767.929 820.339L581.32 960.981Z" stroke="url(#paint40_linear_3_108)" stroke-width="4"/>
<path opacity="0.608696" d="M571.676 946.39C564.443 951.301 560.619 959.889 561.81 968.55L593.319 1197.82C594.209 1204.3 597.813 1210.09 603.229 1213.75L843.431 1376.03C848.117 1379.2 853.805 1380.52 859.408 1379.76L1121.93 1344.04C1129.82 1342.97 1136.6 1337.88 1139.84 1330.6L1227.51 1133.69C1230.75 1126.41 1230 1117.98 1225.51 1111.39L1076.4 892.395C1073.21 887.721 1068.42 884.383 1062.93 883.019L781.609 813.101C775.265 811.525 768.55 812.722 763.142 816.394L571.676 946.39Z" stroke="url(#paint41_linear_3_108)" stroke-width="4"/>
<path opacity="0.623188" d="M562.683 932.69C555.259 937.212 551.019 945.533 551.724 954.198L570.311 1182.63C570.842 1189.16 574.133 1195.15 579.358 1199.1L807.088 1371.4C811.624 1374.83 817.271 1376.46 822.939 1375.97L1083.45 1353.53C1091.37 1352.85 1098.37 1348.13 1101.97 1341.06L1199.09 1150.46C1202.69 1143.38 1202.39 1134.95 1198.29 1128.15L1063.32 904.196C1060.38 899.324 1055.75 895.713 1050.3 894.061L777.058 811.094C770.789 809.191 764.006 810.051 758.411 813.46L562.683 932.69Z" stroke="url(#paint42_linear_3_108)" stroke-width="4"/>
<path opacity="0.637681" d="M554.282 919.906C546.689 924.032 542.05 932.067 542.273 940.706L548.115 1167.57C548.284 1174.14 551.251 1180.32 556.268 1184.55L771.146 1366C775.518 1369.69 781.109 1371.62 786.828 1371.41L1044.67 1361.96C1052.58 1361.67 1059.79 1357.33 1063.75 1350.47L1169.89 1166.63C1173.85 1159.78 1174 1151.37 1170.3 1144.37L1049.56 916.342C1046.89 911.284 1042.42 907.407 1037.04 905.467L772.459 810.101C766.281 807.874 759.446 808.395 753.676 811.53L554.282 919.906Z" stroke="url(#paint43_linear_3_108)" stroke-width="4"/>
<path opacity="0.652174" d="M546.412 908.061C538.672 911.786 533.653 919.514 533.398 928.1L526.712 1152.71C526.516 1159.29 529.148 1165.64 533.943 1170.15L735.643 1359.88C739.836 1363.83 745.357 1366.05 751.114 1366.13L1005.65 1369.31C1013.54 1369.41 1020.93 1365.46 1025.23 1358.84L1139.96 1182.17C1144.25 1175.56 1144.86 1167.2 1141.56 1160.03L1035.12 928.793C1032.71 923.563 1028.43 919.426 1023.12 917.2L767.752 810.11C761.682 807.564 754.812 807.741 748.882 810.596L546.412 908.061Z" stroke="url(#paint44_linear_3_108)" stroke-width="4"/>
<path opacity="0.666667" d="M539.011 897.174C531.147 900.494 525.768 907.897 525.041 916.403L506.082 1138.07C505.52 1144.64 507.808 1151.14 512.364 1155.91L700.617 1353.06C704.618 1357.25 710.053 1359.77 715.835 1360.13L966.462 1375.59C974.31 1376.07 981.863 1372.51 986.485 1366.15L1109.34 1197.05C1113.97 1190.69 1115.02 1182.41 1112.13 1175.09L1019.98 941.51C1017.85 936.121 1013.77 931.733 1008.55 929.222L762.881 811.105C756.935 808.246 750.048 808.079 743.97 810.645L539.011 897.174Z" stroke="url(#paint45_linear_3_108)" stroke-width="4"/>
<path opacity="0.681159" d="M532.02 887.26C524.052 890.171 518.334 897.232 517.142 905.631L486.204 1123.69C485.275 1130.24 487.209 1136.87 491.513 1141.89L666.104 1345.57C669.898 1350 675.232 1352.82 681.027 1353.46L927.162 1380.8C934.951 1381.66 942.644 1378.5 947.575 1372.41L1078.09 1211.24C1083.02 1205.15 1084.51 1196.97 1082.05 1189.53L1004.13 954.454C1002.3 948.92 998.433 944.289 993.314 941.498L757.79 813.069C751.984 809.903 745.096 809.389 738.884 811.659L532.02 887.26Z" stroke="url(#paint46_linear_3_108)" stroke-width="4"/>
<path opacity="0.695652" d="M525.374 878.33C517.325 880.831 511.29 887.535 509.643 895.8L467.051 1109.62C465.756 1116.12 467.33 1122.87 471.368 1128.12L632.136 1337.44C635.711 1342.1 640.929 1345.21 646.723 1346.14L887.819 1384.94C895.528 1386.18 903.34 1383.42 908.565 1377.62L1046.25 1224.7C1051.48 1218.9 1053.4 1210.84 1051.36 1203.31L987.577 967.585C986.045 961.92 982.405 957.056 977.402 953.987L752.424 815.979C746.773 812.513 739.902 811.653 733.571 813.621L525.374 878.33Z" stroke="url(#paint47_linear_3_108)" stroke-width="4"/>
<path opacity="0.710145" d="M519.013 870.392C510.906 872.483 504.575 878.814 502.484 886.921L448.6 1095.89C446.94 1102.32 448.145 1109.16 451.904 1114.64L598.746 1328.72C602.088 1333.59 607.176 1336.99 612.955 1338.21L848.496 1388.02C856.107 1389.63 864.016 1387.28 869.517 1381.78L1013.87 1237.42C1019.37 1231.92 1021.72 1224.01 1020.11 1216.4L970.306 980.863C969.084 975.084 965.685 969.996 960.814 966.654L746.731 819.812C741.251 816.053 734.413 814.848 727.978 816.508L519.013 870.392Z" stroke="url(#paint48_linear_3_108)" stroke-width="4"/>
<path opacity="0.724638" d="M512.874 863.45C504.73 865.13 498.127 871.076 495.605 878.999L430.82 1082.52C428.8 1088.87 429.63 1095.78 433.098 1101.47L565.963 1319.44C569.059 1324.52 574.001 1328.2 579.753 1329.71L809.254 1390.05C816.749 1392.02 824.733 1390.09 830.493 1384.9L981.001 1249.38C986.76 1244.2 989.521 1236.46 988.344 1228.8L952.32 994.25C951.417 988.371 948.272 983.071 943.545 979.461L740.659 824.539C735.365 820.497 728.578 818.948 722.054 820.294L512.874 863.45Z" stroke="url(#paint49_linear_3_108)" stroke-width="4"/>
<path opacity="0.73913" d="M506.897 857.504C498.738 858.775 491.887 864.323 488.947 872.04L413.684 1069.56C411.306 1075.8 411.758 1082.77 414.922 1088.65L533.813 1309.63C536.651 1314.9 541.434 1318.86 547.145 1320.67L770.155 1391.06C777.517 1393.39 785.554 1391.86 791.553 1387L947.692 1260.56C953.691 1255.71 956.853 1248.16 956.111 1240.48L933.62 1007.7C933.044 1001.74 930.165 996.242 925.596 992.37L734.16 830.132C729.066 825.814 722.346 823.924 715.748 824.952L506.897 857.504Z" stroke="url(#paint50_linear_3_108)" stroke-width="4"/>
<path opacity="0.753623" d="M501.021 852.549C492.868 853.415 485.793 858.556 482.45 866.042L397.16 1057.03C394.431 1063.14 394.5 1070.14 397.349 1076.2L502.322 1299.34C504.889 1304.8 509.497 1309.03 515.154 1311.12L731.259 1391.06C738.47 1393.73 746.538 1392.62 752.758 1388.1L913.995 1270.95C920.215 1266.43 923.766 1259.1 923.457 1251.42L914.209 1021.19C913.966 1015.16 911.367 1009.47 906.97 1005.34L727.188 836.556C722.307 831.973 715.672 829.745 709.015 830.452L501.021 852.549Z" stroke="url(#paint51_linear_3_108)" stroke-width="4"/>
<path opacity="0.768116" d="M495.185 848.579C487.06 849.044 479.785 853.768 476.056 861.002L381.217 1044.96C378.142 1050.92 377.825 1057.93 380.351 1064.15L471.51 1288.6C473.796 1294.23 478.216 1298.73 483.805 1301.11L692.623 1390.07C699.667 1393.08 707.743 1392.37 714.164 1388.2L879.961 1280.53C886.383 1276.36 890.308 1269.27 890.431 1261.62L894.092 1034.67C894.19 1028.59 891.881 1022.73 887.669 1018.35L719.697 843.776C715.043 838.94 708.51 836.377 701.81 836.76L495.185 848.579Z" stroke="url(#paint52_linear_3_108)" stroke-width="4"/>
<path opacity="0.782609" d="M489.332 845.584C481.255 845.652 473.806 849.953 469.708 856.914L365.821 1033.37C362.407 1039.16 361.704 1046.17 363.896 1052.53L441.399 1277.47C443.392 1283.26 447.61 1288.01 453.117 1290.68L654.302 1388.13C661.163 1391.45 669.226 1391.16 675.828 1387.35L845.642 1289.31C852.244 1285.49 856.529 1278.66 857.081 1271.05L873.278 1048.1C873.721 1041.99 871.713 1035.96 867.699 1031.35L711.645 851.755C707.232 846.676 700.816 843.784 694.088 843.841L489.332 845.584Z" stroke="url(#paint53_linear_3_108)" stroke-width="4"/>
<path opacity="0.797101" d="M483.403 843.548C475.395 843.227 467.797 847.098 463.349 853.766L350.938 1022.28C347.195 1027.9 346.104 1034.87 347.953 1041.35L412.004 1265.98C413.695 1271.91 417.696 1276.91 423.11 1279.86L616.35 1385.26C623.014 1388.89 631.042 1389 637.805 1385.56L811.088 1297.26C817.851 1293.82 822.479 1287.26 823.455 1279.73L851.774 1061.45C852.568 1055.33 850.872 1049.15 847.069 1044.3L702.993 860.452C698.833 855.143 692.551 851.928 685.811 851.658L483.403 843.548Z" stroke="url(#paint54_linear_3_108)" stroke-width="4"/>
<path opacity="0.811594" d="M477.343 842.454C469.423 841.751 461.701 845.189 456.924 851.545L336.533 1011.73C332.47 1017.13 330.992 1024.06 332.492 1030.65L383.342 1254.17C384.72 1260.23 388.492 1265.47 393.798 1268.71L578.82 1381.48C585.271 1385.42 593.243 1385.93 600.146 1382.86L776.351 1304.41C783.253 1301.33 788.206 1295.06 789.601 1287.64L829.594 1074.68C830.74 1068.57 829.367 1062.26 825.787 1057.18L693.705 869.827C689.808 864.3 683.676 860.768 676.94 860.17L477.343 842.454Z" stroke="url(#paint55_linear_3_108)" stroke-width="4"/>
<path opacity="0.826087" d="M471.097 842.282C463.284 841.205 455.465 844.207 450.379 850.235L322.57 1001.72C318.198 1006.9 316.335 1013.75 317.479 1020.43L355.424 1242.09C356.48 1248.26 360.009 1253.74 365.195 1257.25L541.759 1376.85C547.985 1381.07 555.88 1381.98 562.9 1379.28L741.48 1310.73C748.5 1308.04 753.76 1302.08 755.565 1294.78L806.748 1087.75C808.251 1081.67 807.21 1075.24 803.865 1069.95L683.745 879.835C680.123 874.103 674.157 870.261 667.44 869.335L471.097 842.282Z" stroke="url(#paint56_linear_3_108)" stroke-width="4"/>
<path opacity="0.84058" d="M464.613 843.007C456.926 841.567 449.034 844.131 443.662 849.815L309.013 992.27C304.343 997.21 302.098 1003.96 302.88 1010.72L328.259 1229.78C328.986 1236.05 332.259 1241.75 337.311 1245.54L505.214 1371.4C511.202 1375.89 518.999 1377.18 526.117 1374.87L706.525 1316.25C713.642 1313.94 719.189 1308.31 721.395 1301.16L783.253 1100.64C785.115 1094.61 784.414 1088.08 781.315 1082.58L673.083 890.43C669.746 884.507 663.961 880.363 657.279 879.111L464.613 843.007Z" stroke="url(#paint57_linear_3_108)" stroke-width="4"/>
<path opacity="0.855072" d="M457.839 844.604C450.296 842.81 442.357 844.938 436.722 850.263L295.824 983.397C290.87 988.078 288.247 994.715 288.663 1001.52L301.855 1217.29C302.244 1223.65 305.249 1229.56 310.155 1233.61L469.229 1365.16C474.967 1369.91 482.647 1371.58 489.839 1369.65L671.533 1320.97C678.725 1319.04 684.54 1313.75 687.136 1306.77L759.125 1113.31C761.346 1107.35 760.993 1100.73 758.153 1095.03L661.689 901.566C658.648 895.466 653.058 891.03 646.427 889.453L457.839 844.604Z" stroke="url(#paint58_linear_3_108)" stroke-width="4"/>
<path opacity="0.869565" d="M450.728 847.042C443.346 844.907 435.386 846.599 429.511 851.552L282.967 975.11C277.743 979.515 274.748 986.015 274.793 992.849L276.216 1204.67C276.26 1211.09 278.984 1217.2 283.732 1221.52L433.845 1358.18C439.322 1363.17 446.865 1365.21 454.11 1363.67L636.554 1324.89C643.799 1323.35 649.859 1318.42 652.835 1311.64L734.382 1125.73C736.962 1119.85 736.966 1113.16 734.394 1107.28L649.54 913.194C646.802 906.932 641.422 902.213 634.858 900.313L450.728 847.042Z" stroke="url(#paint59_linear_3_108)" stroke-width="4"/>
<path opacity="0.884058" d="M443.234 850.29C436.029 847.825 428.072 849.085 421.982 853.656L270.404 967.419C264.924 971.532 261.564 977.874 261.237 984.718L251.345 1191.94C251.036 1198.41 253.469 1204.71 258.046 1209.3L399.099 1350.51C404.306 1355.72 411.694 1358.13 418.97 1356.98L601.632 1328.04C608.909 1326.89 615.193 1322.32 618.533 1315.76L709.044 1137.86C711.981 1132.09 712.349 1125.35 710.056 1119.29L636.612 925.265C634.186 918.857 629.03 913.864 622.547 911.646L443.234 850.29Z" stroke="url(#paint60_linear_3_108)" stroke-width="4"/>
<path opacity="0.898551" d="M435.312 854.312C428.3 851.531 420.37 852.364 414.09 856.543L258.098 960.331C252.379 964.137 248.66 970.3 247.959 977.134L227.24 1179.17C226.574 1185.67 228.703 1192.15 233.097 1196.99L365.027 1342.19C369.954 1347.62 377.168 1350.37 384.454 1349.6L566.813 1330.43C574.099 1329.67 580.584 1325.48 584.275 1319.15L683.133 1149.69C686.425 1144.04 687.161 1137.27 685.158 1131.05L622.885 937.728C620.779 931.189 615.86 925.933 609.474 923.4L435.312 854.312Z" stroke="url(#paint61_linear_3_108)" stroke-width="4"/>
<path opacity="0.913043" d="M426.922 859.072C420.118 855.988 412.24 856.401 405.795 860.179L246.012 953.851C240.069 957.334 236.001 963.298 234.926 970.102L203.899 1166.4C202.869 1172.91 204.685 1179.55 208.884 1184.64L331.66 1333.27C336.299 1338.89 343.323 1341.98 350.597 1341.6L532.139 1332.08C539.413 1331.7 546.076 1327.9 550.102 1321.83L656.669 1161.17C660.314 1155.68 661.425 1148.88 659.721 1142.51L608.345 950.531C606.564 943.877 601.895 938.372 595.621 935.528L426.922 859.072Z" stroke="url(#paint62_linear_3_108)" stroke-width="4"/>
<path opacity="0.927536" d="M418.024 864.53C411.442 861.159 403.639 861.159 397.057 864.53L234.107 947.98C227.96 951.128 223.553 956.872 222.104 963.625L181.315 1153.66C179.919 1160.17 181.409 1166.96 185.402 1172.29L299.027 1323.81C303.371 1329.6 310.188 1333.01 317.428 1333.01L497.653 1333.01C504.893 1333.01 511.71 1329.6 516.054 1323.81L629.679 1172.29C633.672 1166.96 635.162 1160.17 633.766 1153.66L592.978 963.625C591.528 956.872 587.121 951.128 580.974 947.98L418.024 864.53Z" stroke="url(#paint63_linear_3_108)" stroke-width="4"/>
<path opacity="0.942029" d="M408.585 870.646C402.236 867.003 394.533 866.599 387.838 869.559L222.349 942.718C216.015 945.518 211.28 951.023 209.459 957.704L159.482 1141.01C157.714 1147.49 158.87 1154.42 162.646 1159.98L267.153 1313.84C271.196 1319.79 277.79 1323.51 284.975 1323.89L463.394 1333.24C470.579 1333.61 477.526 1330.61 482.169 1325.11L602.186 1183.02C606.522 1177.88 608.396 1171.11 607.316 1164.48L576.774 976.955C575.66 970.12 571.527 964.15 565.52 960.703L408.585 870.646Z" stroke="url(#paint64_linear_3_108)" stroke-width="4"/>
<path opacity="0.956522" d="M398.571 877.376C392.468 873.477 384.885 872.68 378.105 875.225L210.7 938.065C204.199 940.505 199.149 945.752 196.958 952.341L138.388 1128.48C136.247 1134.92 137.059 1141.97 140.606 1147.76L236.06 1303.43C239.796 1309.52 246.154 1313.53 253.263 1314.28L429.4 1332.79C436.509 1333.54 443.561 1330.94 448.483 1325.76L574.217 1193.33C578.89 1188.41 581.15 1181.68 580.395 1174.93L559.726 990.469C558.953 983.569 555.104 977.387 549.253 973.648L398.571 877.376Z" stroke="url(#paint65_linear_3_108)" stroke-width="4"/>
<path opacity="0.971014" d="M387.952 884.677C382.105 880.538 374.665 879.359 367.825 881.489L199.124 934.016C192.476 936.085 187.124 941.055 184.568 947.531L118.021 1116.11C115.504 1122.49 115.962 1129.65 119.27 1135.66L205.765 1292.63C209.191 1298.85 215.298 1303.13 222.311 1304.24L395.706 1331.71C402.718 1332.82 409.851 1330.63 415.032 1325.77L545.799 1203.21C550.801 1198.53 553.451 1191.85 553.027 1185.01L541.832 1004.12C541.402 997.167 537.847 990.787 532.165 986.764L387.952 884.677Z" stroke="url(#paint66_linear_3_108)" stroke-width="4"/>
<path opacity="0.985507" d="M376.702 892.501C371.122 888.14 363.844 886.593 356.972 888.307L187.587 930.564C180.814 932.253 175.174 936.928 172.258 943.27L98.3662 1103.95C95.4727 1110.24 95.5684 1117.51 98.627 1123.72L176.284 1281.49C179.398 1287.81 185.241 1292.36 192.138 1293.83L362.346 1330.01C369.242 1331.47 376.43 1329.69 381.848 1325.18L516.961 1212.64C522.283 1208.21 525.323 1201.61 525.239 1194.69L523.091 1017.84C523.006 1010.86 519.756 1004.3 514.255 999.999L376.702 892.501Z" stroke="url(#paint67_linear_3_108)" stroke-width="4"/>
<path d="M364.797 900.803C359.492 896.237 352.396 894.336 345.519 895.637L176.055 927.702C169.177 929.003 163.267 933.365 159.996 939.553L79.4061 1092.04C76.1355 1098.23 75.8608 1105.57 78.6598 1111.98L147.629 1270.06C150.428 1276.48 155.997 1281.27 162.758 1283.08L329.351 1327.72C336.112 1329.53 343.33 1328.17 348.962 1324.01L487.731 1221.59C493.363 1217.44 496.796 1210.94 497.058 1203.95L503.506 1031.6C503.768 1024.6 500.831 1017.87 495.525 1013.3L364.797 900.803Z" stroke="url(#paint68_linear_3_108)" stroke-width="4"/>
<defs>
<linearGradient id="paint0_linear_3_108" x1="1871.91" y1="1645.24" x2="1688.03" y2="484.222" gradientUnits="userSpaceOnUse">
<stop stop-color="#FFF490"/>
<stop offset="1" stop-color="#00FFFF"/>
</linearGradient>
<linearGradient id="paint1_linear_3_108" x1="1820.15" y1="1644.5" x2="1698.36" y2="485.766" gradientUnits="userSpaceOnUse">
<stop stop-color="#FFF490"/>
<stop offset="1" stop-color="#00FFFF"/>
</linearGradient>
<linearGradient id="paint2_linear_3_108" x1="1768.74" y1="1642.17" x2="1708.31" y2="489.015" gradientUnits="userSpaceOnUse">
<stop stop-color="#FFF490"/>
<stop offset="1" stop-color="#00FFFF"/>
</linearGradient>
<linearGradient id="paint3_linear_3_108" x1="1717.78" y1="1638.29" x2="1717.78" y2="493.93" gradientUnits="userSpaceOnUse">
<stop stop-color="#FFF490"/>
<stop offset="1" stop-color="#00FFFF"/>
</linearGradient>
<linearGradient id="paint4_linear_3_108" x1="1667.34" y1="1632.9" x2="1726.69" y2="500.471" gradientUnits="userSpaceOnUse">
<stop stop-color="#FFF490"/>
<stop offset="1" stop-color="#00FFFF"/>
</linearGradient>
<linearGradient id="paint5_linear_3_108" x1="1617.51" y1="1626.05" x2="1734.95" y2="508.59" gradientUnits="userSpaceOnUse">
<stop stop-color="#FFF490"/>
<stop offset="1" stop-color="#00FFFF"/>
</linearGradient>
<linearGradient id="paint6_linear_3_108" x1="1568.34" y1="1617.77" x2="1742.49" y2="518.237" gradientUnits="userSpaceOnUse">
<stop stop-color="#FFF490"/>
<stop offset="1" stop-color="#00FFFF"/>
</linearGradient>
<linearGradient id="paint7_linear_3_108" x1="1519.93" y1="1608.12" x2="1749.23" y2="529.358" gradientUnits="userSpaceOnUse">
<stop stop-color="#FFF490"/>
<stop offset="1" stop-color="#00FFFF"/>
</linearGradient>
<linearGradient id="paint8_linear_3_108" x1="1472.33" y1="1597.15" x2="1755.08" y2="541.893" gradientUnits="userSpaceOnUse">
<stop stop-color="#FFF490"/>
<stop offset="1" stop-color="#00FFFF"/>
</linearGradient>
<linearGradient id="paint9_linear_3_108" x1="1425.61" y1="1584.93" x2="1760" y2="555.781" gradientUnits="userSpaceOnUse">
<stop stop-color="#FFF490"/>
<stop offset="1" stop-color="#00FFFF"/>
</linearGradient>
<linearGradient id="paint10_linear_3_108" x1="1379.82" y1="1571.51" x2="1763.9" y2="570.957" gradientUnits="userSpaceOnUse">
<stop stop-color="#FFF490"/>
<stop offset="1" stop-color="#00FFFF"/>
</linearGradient>
<linearGradient id="paint11_linear_3_108" x1="1335.04" y1="1556.95" x2="1766.73" y2="587.351" gradientUnits="userSpaceOnUse">
<stop stop-color="#FFF490"/>
<stop offset="1" stop-color="#00FFFF"/>
</linearGradient>
<linearGradient id="paint12_linear_3_108" x1="1291.3" y1="1541.33" x2="1768.44" y2="604.894" gradientUnits="userSpaceOnUse">
<stop stop-color="#FFF490"/>
<stop offset="1" stop-color="#00FFFF"/>
</linearGradient>
<linearGradient id="paint13_linear_3_108" x1="1248.66" y1="1524.71" x2="1768.96" y2="623.511" gradientUnits="userSpaceOnUse">
<stop stop-color="#FFF490"/>
<stop offset="1" stop-color="#00FFFF"/>
</linearGradient>
<linearGradient id="paint14_linear_3_108" x1="1207.16" y1="1507.16" x2="1768.27" y2="643.127" gradientUnits="userSpaceOnUse">
<stop stop-color="#FFF490"/>
<stop offset="1" stop-color="#00FFFF"/>
</linearGradient>
<linearGradient id="paint15_linear_3_108" x1="1166.84" y1="1488.75" x2="1766.3" y2="663.663" gradientUnits="userSpaceOnUse">
<stop stop-color="#FFF490"/>
<stop offset="1" stop-color="#00FFFF"/>
</linearGradient>
<linearGradient id="paint16_linear_3_108" x1="1127.73" y1="1469.56" x2="1763.02" y2="685.04" gradientUnits="userSpaceOnUse">
<stop stop-color="#FFF490"/>
<stop offset="1" stop-color="#00FFFF"/>
</linearGradient>
<linearGradient id="paint17_linear_3_108" x1="1089.87" y1="1449.66" x2="1758.41" y2="707.177" gradientUnits="userSpaceOnUse">
<stop stop-color="#FFF490"/>
<stop offset="1" stop-color="#00FFFF"/>
</linearGradient>
<linearGradient id="paint18_linear_3_108" x1="1053.29" y1="1429.13" x2="1752.43" y2="729.992" gradientUnits="userSpaceOnUse">
<stop stop-color="#FFF490"/>
<stop offset="1" stop-color="#00FFFF"/>
</linearGradient>
<linearGradient id="paint19_linear_3_108" x1="1017.99" y1="1408.05" x2="1745.06" y2="753.401" gradientUnits="userSpaceOnUse">
<stop stop-color="#FFF490"/>
<stop offset="1" stop-color="#00FFFF"/>
</linearGradient>
<linearGradient id="paint20_linear_3_108" x1="984.009" y1="1386.5" x2="1736.28" y2="777.323" gradientUnits="userSpaceOnUse">
<stop stop-color="#FFF490"/>
<stop offset="1" stop-color="#00FFFF"/>
</linearGradient>
<linearGradient id="paint21_linear_3_108" x1="951.348" y1="1364.54" x2="1726.07" y2="801.672" gradientUnits="userSpaceOnUse">
<stop stop-color="#FFF490"/>
<stop offset="1" stop-color="#00FFFF"/>
</linearGradient>
<linearGradient id="paint22_linear_3_108" x1="920.019" y1="1342.27" x2="1714.44" y2="826.365" gradientUnits="userSpaceOnUse">
<stop stop-color="#FFF490"/>
<stop offset="1" stop-color="#00FFFF"/>
</linearGradient>
<linearGradient id="paint23_linear_3_108" x1="890.024" y1="1319.75" x2="1701.37" y2="851.319" gradientUnits="userSpaceOnUse">
<stop stop-color="#FFF490"/>
<stop offset="1" stop-color="#00FFFF"/>
</linearGradient>
<linearGradient id="paint24_linear_3_108" x1="861.363" y1="1297.07" x2="1686.87" y2="876.451" gradientUnits="userSpaceOnUse">
<stop stop-color="#FFF490"/>
<stop offset="1" stop-color="#00FFFF"/>
</linearGradient>
<linearGradient id="paint25_linear_3_108" x1="834.03" y1="1274.29" x2="1670.94" y2="901.679" gradientUnits="userSpaceOnUse">
<stop stop-color="#FFF490"/>
<stop offset="1" stop-color="#00FFFF"/>
</linearGradient>
<linearGradient id="paint26_linear_3_108" x1="808.015" y1="1251.51" x2="1653.59" y2="926.921" gradientUnits="userSpaceOnUse">
<stop stop-color="#FFF490"/>
<stop offset="1" stop-color="#00FFFF"/>
</linearGradient>
<linearGradient id="paint27_linear_3_108" x1="783.305" y1="1228.78" x2="1634.84" y2="952.1" gradientUnits="userSpaceOnUse">
<stop stop-color="#FFF490"/>
<stop offset="1" stop-color="#00FFFF"/>
</linearGradient>
<linearGradient id="paint28_linear_3_108" x1="759.881" y1="1206.19" x2="1614.71" y2="977.137" gradientUnits="userSpaceOnUse">
<stop stop-color="#FFF490"/>
<stop offset="1" stop-color="#00FFFF"/>
</linearGradient>
<linearGradient id="paint29_linear_3_108" x1="737.721" y1="1183.8" x2="1593.22" y2="1001.95" gradientUnits="userSpaceOnUse">
<stop stop-color="#FFF490"/>
<stop offset="1" stop-color="#00FFFF"/>
</linearGradient>
<linearGradient id="paint30_linear_3_108" x1="716.801" y1="1161.68" x2="1570.4" y2="1026.48" gradientUnits="userSpaceOnUse">
<stop stop-color="#FFF490"/>
<stop offset="1" stop-color="#00FFFF"/>
</linearGradient>
<linearGradient id="paint31_linear_3_108" x1="697.09" y1="1139.9" x2="1546.28" y2="1050.64" gradientUnits="userSpaceOnUse">
<stop stop-color="#FFF490"/>
<stop offset="1" stop-color="#00FFFF"/>
</linearGradient>
<linearGradient id="paint32_linear_3_108" x1="678.556" y1="1118.52" x2="1520.89" y2="1074.37" gradientUnits="userSpaceOnUse">
<stop stop-color="#FFF490"/>
<stop offset="1" stop-color="#00FFFF"/>
</linearGradient>
<linearGradient id="paint33_linear_3_108" x1="661.161" y1="1097.6" x2="1494.27" y2="1097.6" gradientUnits="userSpaceOnUse">
<stop stop-color="#FFF490"/>
<stop offset="1" stop-color="#00FFFF"/>
</linearGradient>
<linearGradient id="paint34_linear_3_108" x1="644.867" y1="1077.21" x2="1466.48" y2="1120.27" gradientUnits="userSpaceOnUse">
<stop stop-color="#FFF490"/>
<stop offset="1" stop-color="#00FFFF"/>
</linearGradient>
<linearGradient id="paint35_linear_3_108" x1="629.631" y1="1057.4" x2="1437.54" y2="1142.32" gradientUnits="userSpaceOnUse">
<stop stop-color="#FFF490"/>
<stop offset="1" stop-color="#00FFFF"/>
</linearGradient>
<linearGradient id="paint36_linear_3_108" x1="615.408" y1="1038.22" x2="1407.52" y2="1163.68" gradientUnits="userSpaceOnUse">
<stop stop-color="#FFF490"/>
<stop offset="1" stop-color="#00FFFF"/>
</linearGradient>
<linearGradient id="paint37_linear_3_108" x1="602.149" y1="1019.73" x2="1376.46" y2="1184.31" gradientUnits="userSpaceOnUse">
<stop stop-color="#FFF490"/>
<stop offset="1" stop-color="#00FFFF"/>
</linearGradient>
<linearGradient id="paint38_linear_3_108" x1="589.803" y1="1001.96" x2="1344.42" y2="1204.16" gradientUnits="userSpaceOnUse">
<stop stop-color="#FFF490"/>
<stop offset="1" stop-color="#00FFFF"/>
</linearGradient>
<linearGradient id="paint39_linear_3_108" x1="578.32" y1="984.966" x2="1311.45" y2="1223.18" gradientUnits="userSpaceOnUse">
<stop stop-color="#FFF490"/>
<stop offset="1" stop-color="#00FFFF"/>
</linearGradient>
<linearGradient id="paint40_linear_3_108" x1="567.642" y1="968.784" x2="1277.62" y2="1241.32" gradientUnits="userSpaceOnUse">
<stop stop-color="#FFF490"/>
<stop offset="1" stop-color="#00FFFF"/>
</linearGradient>
<linearGradient id="paint41_linear_3_108" x1="557.716" y1="953.451" x2="1242.98" y2="1258.55" gradientUnits="userSpaceOnUse">
<stop stop-color="#FFF490"/>
<stop offset="1" stop-color="#00FFFF"/>
</linearGradient>
<linearGradient id="paint42_linear_3_108" x1="548.481" y1="938.999" x2="1207.59" y2="1274.83" gradientUnits="userSpaceOnUse">
<stop stop-color="#FFF490"/>
<stop offset="1" stop-color="#00FFFF"/>
</linearGradient>
<linearGradient id="paint43_linear_3_108" x1="539.88" y1="925.457" x2="1171.53" y2="1290.14" gradientUnits="userSpaceOnUse">
<stop stop-color="#FFF490"/>
<stop offset="1" stop-color="#00FFFF"/>
</linearGradient>
<linearGradient id="paint44_linear_3_108" x1="531.851" y1="912.85" x2="1134.84" y2="1304.44" gradientUnits="userSpaceOnUse">
<stop stop-color="#FFF490"/>
<stop offset="1" stop-color="#00FFFF"/>
</linearGradient>
<linearGradient id="paint45_linear_3_108" x1="524.334" y1="901.199" x2="1097.61" y2="1317.71" gradientUnits="userSpaceOnUse">
<stop stop-color="#FFF490"/>
<stop offset="1" stop-color="#00FFFF"/>
</linearGradient>
<linearGradient id="paint46_linear_3_108" x1="517.266" y1="890.522" x2="1059.9" y2="1329.94" gradientUnits="userSpaceOnUse">
<stop stop-color="#FFF490"/>
<stop offset="1" stop-color="#00FFFF"/>
</linearGradient>
<linearGradient id="paint47_linear_3_108" x1="510.586" y1="880.832" x2="1021.77" y2="1341.1" gradientUnits="userSpaceOnUse">
<stop stop-color="#FFF490"/>
<stop offset="1" stop-color="#00FFFF"/>
</linearGradient>
<linearGradient id="paint48_linear_3_108" x1="504.231" y1="872.139" x2="983.287" y2="1351.19" gradientUnits="userSpaceOnUse">
<stop stop-color="#FFF490"/>
<stop offset="1" stop-color="#00FFFF"/>
</linearGradient>
<linearGradient id="paint49_linear_3_108" x1="498.138" y1="864.448" x2="944.523" y2="1360.21" gradientUnits="userSpaceOnUse">
<stop stop-color="#FFF490"/>
<stop offset="1" stop-color="#00FFFF"/>
</linearGradient>
<linearGradient id="paint50_linear_3_108" x1="492.246" y1="857.763" x2="905.545" y2="1368.14" gradientUnits="userSpaceOnUse">
<stop stop-color="#FFF490"/>
<stop offset="1" stop-color="#00FFFF"/>
</linearGradient>
<linearGradient id="paint51_linear_3_108" x1="486.494" y1="852.081" x2="866.416" y2="1375" gradientUnits="userSpaceOnUse">
<stop stop-color="#FFF490"/>
<stop offset="1" stop-color="#00FFFF"/>
</linearGradient>
<linearGradient id="paint52_linear_3_108" x1="480.82" y1="847.398" x2="827.203" y2="1380.78" gradientUnits="userSpaceOnUse">
<stop stop-color="#FFF490"/>
<stop offset="1" stop-color="#00FFFF"/>
</linearGradient>
<linearGradient id="paint53_linear_3_108" x1="475.164" y1="843.704" x2="787.97" y2="1385.5" gradientUnits="userSpaceOnUse">
<stop stop-color="#FFF490"/>
<stop offset="1" stop-color="#00FFFF"/>
</linearGradient>
<linearGradient id="paint54_linear_3_108" x1="469.469" y1="840.988" x2="748.781" y2="1389.17" gradientUnits="userSpaceOnUse">
<stop stop-color="#FFF490"/>
<stop offset="1" stop-color="#00FFFF"/>
</linearGradient>
<linearGradient id="paint55_linear_3_108" x1="463.676" y1="839.233" x2="709.695" y2="1391.8" gradientUnits="userSpaceOnUse">
<stop stop-color="#FFF490"/>
<stop offset="1" stop-color="#00FFFF"/>
</linearGradient>
<linearGradient id="paint56_linear_3_108" x1="457.73" y1="838.421" x2="670.775" y2="1393.42" gradientUnits="userSpaceOnUse">
<stop stop-color="#FFF490"/>
<stop offset="1" stop-color="#00FFFF"/>
</linearGradient>
<linearGradient id="paint57_linear_3_108" x1="451.577" y1="838.53" x2="632.077" y2="1394.05" gradientUnits="userSpaceOnUse">
<stop stop-color="#FFF490"/>
<stop offset="1" stop-color="#00FFFF"/>
</linearGradient>
<linearGradient id="paint58_linear_3_108" x1="445.164" y1="839.534" x2="593.658" y2="1393.72" gradientUnits="userSpaceOnUse">
<stop stop-color="#FFF490"/>
<stop offset="1" stop-color="#00FFFF"/>
</linearGradient>
<linearGradient id="paint59_linear_3_108" x1="438.442" y1="841.406" x2="555.572" y2="1392.46" gradientUnits="userSpaceOnUse">
<stop stop-color="#FFF490"/>
<stop offset="1" stop-color="#00FFFF"/>
</linearGradient>
<linearGradient id="paint60_linear_3_108" x1="431.363" y1="844.114" x2="517.869" y2="1390.29" gradientUnits="userSpaceOnUse">
<stop stop-color="#FFF490"/>
<stop offset="1" stop-color="#00FFFF"/>
</linearGradient>
<linearGradient id="paint61_linear_3_108" x1="423.881" y1="847.626" x2="480.6" y2="1387.27" gradientUnits="userSpaceOnUse">
<stop stop-color="#FFF490"/>
<stop offset="1" stop-color="#00FFFF"/>
</linearGradient>
<linearGradient id="paint62_linear_3_108" x1="415.954" y1="851.905" x2="443.809" y2="1383.41" gradientUnits="userSpaceOnUse">
<stop stop-color="#FFF490"/>
<stop offset="1" stop-color="#00FFFF"/>
</linearGradient>
<linearGradient id="paint63_linear_3_108" x1="407.541" y1="856.914" x2="407.541" y2="1378.78" gradientUnits="userSpaceOnUse">
<stop stop-color="#FFF490"/>
<stop offset="1" stop-color="#00FFFF"/>
</linearGradient>
<linearGradient id="paint64_linear_3_108" x1="398.604" y1="862.612" x2="371.835" y2="1373.4" gradientUnits="userSpaceOnUse">
<stop stop-color="#FFF490"/>
<stop offset="1" stop-color="#00FFFF"/>
</linearGradient>
<linearGradient id="paint65_linear_3_108" x1="389.11" y1="868.958" x2="336.729" y2="1367.33" gradientUnits="userSpaceOnUse">
<stop stop-color="#FFF490"/>
<stop offset="1" stop-color="#00FFFF"/>
</linearGradient>
<linearGradient id="paint66_linear_3_108" x1="379.025" y1="875.907" x2="302.257" y2="1360.6" gradientUnits="userSpaceOnUse">
<stop stop-color="#FFF490"/>
<stop offset="1" stop-color="#00FFFF"/>
</linearGradient>
<linearGradient id="paint67_linear_3_108" x1="368.323" y1="883.414" x2="268.45" y2="1353.28" gradientUnits="userSpaceOnUse">
<stop stop-color="#FFF490"/>
<stop offset="1" stop-color="#00FFFF"/>
</linearGradient>
<linearGradient id="paint68_linear_3_108" x1="356.976" y1="891.434" x2="235.335" y2="1345.41" gradientUnits="userSpaceOnUse">
<stop stop-color="#FFF490"/>
<stop offset="1" stop-color="#00FFFF"/>
</linearGradient>
</defs>
</svg>
