<svg width="3269" height="2485" viewBox="0 0 3269 2485" fill="none" xmlns="http://www.w3.org/2000/svg">
<path d="M272.744 1979.16C269.5 1983.8 265.579 1986.52 260.984 1987.33C253.105 1988.72 247.429 1985.32 243.954 1977.13C241.483 1970.8 239.553 1963.69 238.164 1955.81C236.891 1948.59 236.08 1943.99 235.733 1942.02C230.292 1911.17 228.58 1868.82 230.595 1814.99C232.226 1755.13 240.308 1676.19 254.842 1578.18C255.229 1572.69 256.814 1560.57 259.598 1541.8L286.911 1333.9C287.104 1331.16 287.935 1326.27 289.404 1319.24C290.756 1311.56 292.611 1304.8 294.968 1298.97C297.015 1295.22 299.294 1292.79 301.804 1291.67C304.855 1289.78 307.81 1289.26 310.668 1290.11C317.928 1292.89 320.553 1298.18 318.544 1305.98C314.757 1322.9 310.64 1351.38 306.193 1391.42L301.321 1432.9C300.006 1444.64 298.209 1457.48 295.928 1471.42C294.189 1484.59 292.352 1499.13 290.419 1515.04C279.402 1590.77 270.627 1654.26 264.093 1705.51C256.051 1771.23 253.629 1834.28 256.826 1894.64C256.67 1901.44 256.94 1906.81 257.635 1910.75C257.75 1911.4 257.711 1913.1 257.518 1915.84C258.097 1919.13 260.028 1920.48 263.31 1919.9C265.936 1919.44 267.674 1917.78 268.524 1914.92C269.49 1912.72 270.244 1911.23 270.784 1910.46L278.377 1878.66L295.359 1813.72C304.015 1778.35 312.052 1747.14 319.471 1720.11C343.814 1627.82 375.087 1544.11 413.292 1469.01C435.04 1427.26 457.676 1392.47 481.198 1364.63L506.111 1338.91C509.703 1336.25 515.207 1332.91 522.622 1328.89C529.613 1326.31 536.081 1326.52 542.028 1329.53C547.859 1331.89 552.068 1336.56 554.655 1343.55C557.357 1351.2 558.998 1356.66 559.576 1359.95C559.808 1361.26 560.502 1370.95 561.658 1389.03C561.074 1420.27 557.902 1456.03 552.143 1496.31C543.522 1558.75 538.688 1604.29 537.641 1632.9C535.938 1661.63 536.418 1683.55 539.08 1698.65C540.007 1703.9 541.956 1707.28 544.93 1708.79C545.702 1709.33 547.073 1709.43 549.043 1709.08C552.325 1708.5 554.662 1706.4 556.053 1702.77C567.718 1684.46 575.753 1670.52 580.157 1660.95C583.17 1655 590.432 1640.52 601.944 1617.5C614.112 1594.37 626.3 1573.27 638.506 1554.19C646.811 1539.87 657.298 1524.48 669.967 1508.03C678.31 1497.76 688.063 1491.64 699.224 1489.67C713.668 1487.12 725.272 1491.51 734.037 1502.82C740.253 1511.2 745.33 1520.8 749.268 1531.61L776.367 1616.19C784.474 1639.13 792.137 1655.72 799.358 1665.96C811.25 1683.49 823.433 1691.16 835.907 1688.96C845.099 1687.34 854.194 1681.34 863.194 1670.95C866.014 1667.74 876.733 1647.91 895.353 1611.46C900.181 1600.45 912.446 1575.95 932.147 1537.95C933.345 1537.07 934.156 1535.91 934.581 1534.48C935.662 1532.93 937.13 1531.66 938.984 1530.66C942.46 1527.34 946.457 1526.97 950.975 1529.56C955.918 1530.72 958.138 1533.71 957.636 1538.54C957.249 1544.02 955.336 1550.45 951.898 1557.83C908.865 1643.94 880.492 1692.27 866.781 1702.81C855.89 1710.15 846.504 1714.51 838.626 1715.9C824.839 1718.33 810.377 1713.09 795.24 1700.19C781.532 1687.72 772.149 1674.82 767.092 1661.49C762.151 1648.83 753.6 1625.29 741.439 1590.87L724.531 1541.05C722.061 1534.72 719.821 1529.7 717.814 1525.99C713.798 1518.58 708.836 1515.39 702.927 1516.43C699.645 1517.01 695.995 1519.35 691.978 1523.44C687.961 1527.53 683.79 1532.67 679.463 1538.85C675.021 1544.37 671.719 1548.67 669.556 1551.76C650.551 1582.19 630.561 1618.55 609.585 1660.83C602.052 1675.7 593.92 1691.01 585.19 1706.77C578.508 1718.78 571.034 1728.22 562.768 1735.09C557.554 1740.07 551.992 1743.08 546.083 1744.13C540.831 1745.05 535.56 1743.95 530.269 1740.82C525.52 1736.92 521.794 1731.15 519.092 1723.5C517.856 1720.33 516.833 1716.45 516.023 1711.86C515.213 1707.26 514.248 1703.71 513.128 1701.2C509.695 1674.05 509.719 1641.55 513.2 1603.7C514.824 1589.88 518.381 1560.14 523.871 1514.49L529.207 1469.89C533.46 1432.59 535.279 1404.51 534.664 1385.66C535.166 1380.84 534.491 1373.17 532.639 1362.67C532.176 1360.04 530.303 1359.02 527.021 1359.59C523.738 1360.17 520.358 1362.12 516.882 1365.44C513.947 1367.99 511.61 1370.1 509.872 1371.76C488.281 1395.2 468.427 1422.73 450.31 1454.35C410.329 1527.07 378.999 1604.69 356.318 1687.21C345.074 1727.11 328.981 1787.48 308.038 1868.35L300.098 1898.18C297.354 1909.5 292.582 1926.58 285.782 1949.45C282.923 1960.1 278.577 1970.01 272.744 1979.16ZM946.587 1663.35C942.995 1666.02 939.23 1667.7 935.29 1668.39C929.381 1669.43 924.11 1668.33 919.476 1665.09C914.727 1661.19 911.387 1655.68 909.457 1648.58C908.184 1641.35 907.586 1636.04 907.663 1632.64C911.455 1581.2 925.036 1539.21 948.405 1506.66C950.993 1502.14 955.164 1497 960.919 1491.25C969.919 1480.86 979.999 1474.68 991.161 1472.72C1001.01 1470.98 1011.55 1473.18 1022.79 1479.32C1027.96 1481.8 1031.21 1482.92 1032.52 1482.69C1034.49 1482.34 1036.98 1479.19 1039.99 1473.24C1044.2 1466.41 1049.75 1455.62 1056.62 1440.86L1066.3 1420.88C1073.72 1405.36 1077.43 1397.59 1077.43 1397.59C1082.29 1390.64 1087.91 1387.96 1094.28 1389.54C1101.54 1392.33 1104.34 1398.6 1102.68 1408.37L1094.57 1437.22C1082.98 1475.14 1075.63 1510.28 1072.54 1542.65C1070.14 1567.44 1069.99 1585.75 1072.07 1597.56C1072.65 1600.85 1074.1 1603.3 1076.41 1604.92C1078.61 1605.89 1080.91 1605.48 1083.31 1603.7C1094.2 1596.37 1102.31 1590.54 1107.64 1586.21C1121 1573.7 1131.59 1562.7 1139.39 1553.2C1147.31 1544.36 1154.24 1535.69 1160.19 1527.19L1180.18 1502.34C1189.18 1491.96 1193.95 1486.38 1194.49 1485.6C1197.85 1481.63 1201.85 1481.26 1206.48 1484.51C1211.65 1486.98 1213.83 1491.67 1213.02 1498.58C1213.14 1499.24 1211.57 1501.88 1208.33 1506.52C1177.51 1550.54 1148.61 1584.4 1121.65 1608.11C1105.47 1623.83 1090.81 1632.84 1077.68 1635.16C1061.27 1638.05 1051.38 1629.98 1048.03 1610.94C1046.41 1601.75 1045.29 1587.73 1044.67 1568.88C1044.71 1561.43 1045.47 1548.44 1046.94 1529.9C1039.52 1533.91 1034.31 1538.9 1031.29 1544.84C1028.82 1550.02 1027.05 1553.38 1025.96 1554.92C1004.72 1591.84 986.023 1620.18 969.878 1639.95C961.534 1650.22 953.771 1658.02 946.587 1663.35ZM937.902 1631.37C941.301 1631.45 944.081 1629.95 946.245 1626.86C967.489 1601.45 990.337 1565.94 1014.79 1520.34C1015.99 1519.45 1017.01 1517.58 1017.86 1514.72C1018.28 1513.29 1018.32 1511.59 1017.98 1509.62C1017.28 1505.68 1015.12 1503.02 1011.49 1501.62C1006.31 1499.15 1001.43 1498.32 996.834 1499.13C995.521 1499.36 993.01 1500.48 989.303 1502.49C983.741 1505.5 979.068 1509.71 975.282 1515.12C949.171 1547.48 935.939 1585.69 935.585 1629.75C935.585 1629.75 935.971 1630.02 936.744 1630.56C937.4 1630.45 937.786 1630.72 937.902 1631.37ZM1200.16 1726.28C1190.31 1728.01 1183.8 1723.74 1180.63 1713.47C1180.17 1710.85 1179.48 1706.91 1178.55 1701.65C1176.97 1696.52 1176.16 1691.92 1176.12 1687.87C1174 1625.96 1179.19 1570.89 1191.67 1522.66L1210.16 1443.24C1211.12 1441.04 1211.76 1438.9 1212.07 1436.81C1212.92 1433.95 1214.1 1431.04 1215.61 1428.06C1218.31 1424.2 1222.08 1422.52 1226.9 1423.02C1233.16 1423.95 1236.04 1426.83 1235.53 1431.66C1236.69 1438.22 1236.32 1445.73 1234.43 1454.19C1231.49 1468.25 1226.43 1489.45 1219.24 1517.79C1211.55 1550.97 1206.37 1583.02 1203.7 1613.95C1202.7 1623.61 1202.54 1630.41 1203.24 1634.34C1203.93 1638.28 1205.61 1642.05 1208.28 1645.64L1207.29 1645.81L1208.45 1646.63L1233.14 1562.05C1242.95 1533.25 1254.95 1509.13 1269.12 1489.71C1275.61 1480.44 1282.06 1472.87 1288.47 1467C1292.07 1464.34 1295.83 1462.66 1299.77 1461.96C1307.65 1460.57 1314.58 1463.41 1320.57 1470.48C1323.11 1473.42 1325.45 1477.07 1327.57 1481.43C1330.24 1485.02 1332.84 1488.29 1335.39 1491.22C1344.7 1501.77 1353.62 1506.29 1362.15 1504.78C1366.75 1503.97 1372.04 1501.34 1378.03 1496.9C1394.67 1483.82 1409.87 1468.27 1423.62 1450.28C1426.87 1445.64 1430.56 1441.61 1434.69 1438.17C1435.23 1437.4 1436.49 1436.84 1438.46 1436.49C1441.08 1436.03 1443.88 1436.55 1446.85 1438.06C1451.49 1441.3 1453.17 1445.07 1451.89 1449.36C1450.31 1455.73 1448.11 1460.52 1445.29 1463.72C1432 1484.34 1413.05 1503.59 1388.45 1521.47C1382.46 1525.91 1375.2 1528.88 1366.67 1530.39C1350.26 1533.28 1335.52 1528.43 1322.47 1515.84C1322.47 1515.84 1316.16 1508.83 1303.53 1494.81C1297.62 1495.85 1292.62 1500.12 1288.53 1507.61C1275.55 1526.14 1264.48 1549.76 1255.32 1578.45L1243.21 1619.17C1241.74 1626.2 1235.64 1647.25 1224.9 1682.31C1221.07 1695.17 1216.96 1706.39 1212.55 1715.97C1210.2 1721.8 1206.06 1725.23 1200.16 1726.28ZM1441.88 1576.02C1438.28 1578.68 1434.52 1580.36 1430.58 1581.06C1424.67 1582.1 1419.4 1581 1414.77 1577.75C1410.02 1573.85 1406.68 1568.35 1404.75 1561.24C1403.47 1554.02 1402.87 1548.71 1402.95 1545.31C1406.74 1493.87 1420.32 1451.88 1443.69 1419.32C1446.28 1414.81 1450.45 1409.67 1456.21 1403.92C1465.21 1393.53 1475.29 1387.35 1486.45 1385.38C1496.3 1383.65 1506.84 1385.85 1518.08 1391.99C1523.25 1394.46 1526.5 1395.58 1527.81 1395.35C1529.78 1395.01 1532.27 1391.86 1535.28 1385.91C1539.49 1379.08 1545.04 1368.28 1551.91 1353.53L1561.59 1333.55C1569.01 1318.02 1572.72 1310.26 1572.72 1310.26C1577.58 1303.31 1583.2 1300.63 1589.57 1302.21C1596.83 1304.99 1599.63 1311.27 1597.97 1321.04L1589.86 1349.89C1578.27 1387.81 1570.92 1422.95 1567.83 1455.31C1565.43 1480.11 1565.27 1498.41 1567.36 1510.23C1567.94 1513.51 1569.38 1515.97 1571.7 1517.59C1573.9 1518.55 1576.2 1518.15 1578.6 1516.37C1589.49 1509.04 1597.6 1503.21 1602.93 1498.88C1616.29 1486.37 1626.87 1475.37 1634.68 1465.87C1642.6 1457.02 1649.53 1448.35 1655.48 1439.86L1675.47 1415.01C1684.47 1404.62 1689.24 1399.04 1689.78 1398.27C1693.14 1394.29 1697.13 1393.93 1701.77 1397.17C1706.94 1399.64 1709.12 1404.34 1708.31 1411.25C1708.43 1411.91 1706.86 1414.55 1703.62 1419.19C1672.79 1463.21 1643.9 1497.07 1616.94 1520.78C1600.76 1536.5 1586.1 1545.51 1572.97 1547.83C1556.56 1550.72 1546.67 1542.65 1543.32 1523.61C1541.7 1514.42 1540.58 1500.4 1539.96 1481.55C1540 1474.1 1540.76 1461.1 1542.23 1442.57C1534.81 1446.58 1529.6 1451.56 1526.58 1457.51C1524.11 1462.68 1522.33 1466.04 1521.25 1467.59C1500.01 1504.51 1481.31 1532.85 1465.17 1552.62C1456.82 1562.89 1449.06 1570.69 1441.88 1576.02ZM1433.19 1544.04C1436.59 1544.12 1439.37 1542.61 1441.53 1539.52C1462.78 1514.12 1485.63 1478.61 1510.08 1433C1511.28 1432.12 1512.3 1430.24 1513.15 1427.38C1513.57 1425.96 1513.61 1424.26 1513.27 1422.29C1512.57 1418.35 1510.41 1415.68 1506.78 1414.29C1501.6 1411.82 1496.72 1410.99 1492.12 1411.8C1490.81 1412.03 1488.3 1413.15 1484.59 1415.16C1479.03 1418.17 1474.36 1422.38 1470.57 1427.78C1444.46 1460.14 1431.23 1498.36 1430.87 1542.42C1430.87 1542.42 1431.26 1542.69 1432.03 1543.23C1432.69 1543.11 1433.08 1543.39 1433.19 1544.04ZM1740.56 1681.76C1735.78 1685.31 1730.75 1687.55 1725.5 1688.48C1715 1690.33 1705.25 1684.94 1696.25 1672.31C1690.69 1663.81 1686.52 1651.69 1683.74 1635.93C1680.85 1619.52 1679.09 1601.89 1678.48 1583.04C1677.86 1564.19 1677.48 1552.42 1677.33 1547.7C1676.48 1481.51 1684.49 1400.22 1701.34 1303.83C1702.77 1292.75 1704.65 1282.26 1706.96 1272.37L1711.02 1249.32C1712.07 1243.72 1712.3 1239.28 1711.72 1236C1711.14 1232.71 1709.15 1231.03 1705.75 1230.96C1702.9 1230.11 1698.24 1230.59 1691.79 1232.4L1613.76 1256.31C1611.25 1257.43 1608.08 1258.67 1604.26 1260.02C1600.44 1261.37 1595.57 1262.57 1589.66 1263.61C1585.07 1264.42 1581.4 1264.73 1578.65 1264.54C1574.48 1263.92 1571.84 1262.35 1570.72 1259.84L1570.2 1256.89C1569.5 1252.95 1570.68 1250.03 1573.73 1248.14C1579.95 1245.01 1588.74 1241.1 1600.09 1236.39C1619.98 1230.17 1654.35 1219.71 1703.21 1205C1714.91 1202.26 1722.13 1195.23 1724.88 1183.92L1741.05 1120.14C1749.16 1097.05 1755.57 1079.67 1760.29 1068.01C1761.87 1061.64 1764.4 1056.79 1767.88 1053.47C1771.24 1049.49 1774.56 1047.22 1777.84 1046.64C1780.47 1046.17 1782.61 1046.81 1784.27 1048.55C1786.59 1050.17 1788.04 1052.62 1788.62 1055.91C1789.31 1059.85 1788.71 1066.04 1786.82 1074.5C1783.88 1088.56 1776.37 1116.96 1764.27 1159.71C1763.85 1161.14 1763.05 1164.33 1761.9 1169.27C1760.62 1173.56 1760.5 1178.65 1761.55 1184.56C1768.34 1184.72 1772.73 1184.62 1774.7 1184.27L1785.35 1181.38C1815.63 1172.66 1844.71 1164.82 1872.6 1157.87L1961.64 1133.03C1969.4 1130.99 1976.29 1129.77 1982.32 1129.39C1988.23 1128.35 1993.15 1127.48 1997.09 1126.78C2001.03 1126.09 2004.24 1128.91 2006.71 1135.24C2007.63 1140.49 2006.24 1144.12 2002.53 1146.13C1996.2 1148.6 1987.9 1151.42 1977.62 1154.59L1769.19 1210.63C1762.08 1212.56 1756.52 1215.57 1752.5 1219.67C1748.37 1223.1 1745.57 1228.33 1744.1 1235.36C1737.03 1264.36 1728.91 1310.47 1719.75 1373.69C1710.48 1436.25 1705.22 1483.21 1703.98 1514.57C1702.04 1541.99 1702.91 1575.69 1706.57 1615.66C1707.15 1618.94 1707.4 1622.28 1707.32 1625.68C1707.24 1629.08 1707.49 1632.42 1708.07 1635.7C1709.93 1646.21 1714.98 1653.78 1723.25 1658.41C1729.7 1656.6 1734.54 1653.37 1737.79 1648.74C1741.15 1644.76 1744.07 1640.19 1746.54 1635.01C1749.78 1630.38 1751.89 1626.96 1752.85 1624.76C1768.69 1595.57 1789.4 1553.67 1814.97 1499.06C1818.95 1490.92 1827.93 1472.75 1841.91 1444.56C1855.78 1415.71 1865.9 1396.32 1872.28 1386.4C1872.82 1385.63 1874.32 1382.65 1876.8 1377.48C1879.81 1371.53 1884.37 1366.67 1890.47 1362.88C1894.18 1360.88 1897.85 1360.57 1901.48 1361.96C1907.42 1364.97 1909.28 1369.72 1907.04 1376.21C1907.38 1378.18 1906.75 1380.32 1905.12 1382.64C1895.2 1399.28 1876.31 1436.12 1848.45 1493.16C1843.93 1502.08 1832.75 1525.04 1814.9 1562.03C1796.94 1598.37 1780.08 1629.44 1764.32 1655.23C1759.37 1665.58 1751.46 1674.42 1740.56 1681.76ZM2227.62 1304.45C2232.13 1307.04 2234.47 1310.69 2234.62 1315.4C2234.35 1321.54 2230.97 1329.25 2224.48 1338.51C2215.17 1350.99 2199.94 1368.23 2178.77 1390.24C2158.15 1411.47 2142.66 1425.37 2132.31 1431.94C2124.35 1436.73 2117.75 1439.58 2112.49 1440.51C2103.3 1442.13 2094.9 1440.56 2087.3 1435.81C2079.57 1430.41 2073.41 1422.35 2068.82 1411.65C2062.76 1396.48 2058.19 1376.3 2055.1 1351.12C2053.13 1339.96 2051.3 1331.48 2049.6 1325.69C2049.37 1324.37 2048.21 1323.56 2046.12 1323.25C2044.58 1322.17 2043.27 1322.4 2042.19 1323.95C2037.51 1328.16 2034.15 1332.13 2032.1 1335.88C2020.44 1354.18 2009.58 1377.08 1999.54 1404.58C1983.89 1442.54 1969.4 1487.06 1956.07 1538.15L1940.89 1584.5C1938.46 1593.72 1934.42 1601.54 1928.78 1607.95C1924.76 1612.05 1921.11 1614.38 1917.83 1614.96C1910.61 1616.24 1904.6 1612.89 1899.82 1604.94C1896.46 1597.41 1893.97 1589.05 1892.35 1579.85C1886.06 1551.85 1882.41 1513.91 1881.41 1466.02C1881.22 1457.26 1881.59 1443.99 1882.52 1426.23L1882.82 1387.59C1883.12 1385.5 1883.53 1382.05 1884.03 1377.22C1884.42 1371.74 1884.27 1367.02 1883.57 1363.08C1882.76 1358.49 1880.97 1354.07 1878.19 1349.82C1877.41 1349.28 1876.85 1348.02 1876.51 1346.05C1876.04 1343.43 1876.24 1340.68 1877.09 1337.83C1878.59 1334.85 1879.56 1332.65 1879.98 1331.22C1884.93 1320.87 1888.54 1308.73 1890.82 1294.79C1893.76 1280.73 1895.54 1271.62 1896.16 1267.45C1909.57 1178.43 1936.29 1082.33 1976.31 979.148C1977.59 974.861 1984.31 961.153 1996.48 938.022C1999.18 934.16 2002.93 930.453 2007.72 926.901C2008.26 926.129 2009.18 925.627 2010.5 925.395C2013.12 924.932 2015.59 925.512 2017.91 927.134C2020.11 928.1 2021.39 929.567 2021.73 931.537C2023.01 938.759 2023.28 944.127 2022.54 947.641C2021.73 954.554 2019.86 965.039 2016.92 979.096C2002.97 1034.36 1989.23 1083.15 1975.71 1125.48C1962.73 1167.03 1947.87 1207.56 1931.15 1247.06C1923.65 1265.98 1918.69 1285.81 1916.25 1306.55C1906.35 1384.79 1904.12 1456.6 1909.56 1521.99C1909.94 1528.01 1911.12 1536.6 1913.09 1547.76C1913.21 1548.42 1914.61 1552.57 1917.32 1560.22C1923.07 1554.47 1926.74 1548.4 1928.33 1542.03C1929.79 1535 1930.95 1530.06 1931.8 1527.2C1946.76 1473.79 1962.27 1427.4 1978.34 1388.01C1988.92 1359.74 1999.84 1337.17 2011.08 1320.29C2017.34 1309.71 2024.81 1300.27 2033.5 1291.97C2036.86 1287.99 2041.5 1285.48 2047.4 1284.44C2059.22 1282.36 2067.27 1287.71 2071.56 1300.49C2072.68 1303 2073.76 1307.21 2074.8 1313.12L2078.62 1334.78C2079.43 1339.38 2080.09 1345.02 2080.59 1351.7C2081.75 1358.27 2083.4 1365.76 2085.57 1374.18C2087.65 1385.99 2089.81 1394.41 2092.05 1399.43C2095.99 1410.25 2101.57 1415.02 2108.79 1413.75C2112.73 1413.05 2116.5 1411.37 2120.09 1408.71C2130.44 1402.14 2145.6 1388.3 2165.57 1367.18C2185.54 1346.06 2199.25 1329.76 2206.7 1318.29C2209.29 1313.78 2212.27 1309.53 2215.63 1305.55C2218.45 1302.35 2222.44 1301.98 2227.62 1304.45ZM1966.33 1089.56C1967.3 1087.36 1967.66 1085.6 1967.43 1084.29C1967.2 1082.97 1967.36 1081.93 1967.9 1081.16L1966.33 1089.56ZM1964.25 1095C1963.05 1095.89 1961.37 1097.88 1959.2 1100.97L1964.25 1095ZM1957.58 1103.29C1957.66 1111.4 1956.34 1117.38 1953.64 1121.24L1954.63 1121.07L1954.45 1120.08C1958.01 1113.37 1959.05 1107.77 1957.58 1103.29ZM2280.38 1459.65C2272.11 1466.52 2263.38 1470.77 2254.19 1472.39C2242.37 1474.47 2231.23 1472.71 2220.77 1467.11C2210.19 1460.85 2202.48 1451.72 2197.66 1439.71C2194.07 1430.86 2191.9 1422.45 2191.17 1414.45C2187.93 1373.05 2197.05 1334.55 2218.53 1298.95C2225.1 1286.28 2233.02 1277.44 2242.28 1272.42C2245.88 1269.75 2249.97 1268.02 2254.57 1267.21C2261.36 1267.36 2265.55 1270.01 2267.14 1275.14L2267.83 1279.08C2268.76 1284.34 2267.31 1287.64 2263.48 1288.99C2253.98 1292.69 2247.07 1297.64 2242.74 1303.81C2238.42 1309.99 2233.42 1320.01 2227.74 1333.88C2221.44 1351.91 2217.83 1369.81 2216.9 1387.58C2215.66 1395.92 2216.02 1405.67 2217.99 1416.83C2219.96 1427.99 2223.44 1436.18 2228.42 1441.39C2234.05 1446.49 2241.14 1448.29 2249.68 1446.78C2254.93 1445.86 2259.89 1443.29 2264.56 1439.08C2269.24 1434.87 2272.69 1429.52 2274.94 1423.04C2280.38 1407.86 2282.24 1395.35 2280.5 1385.5C2278.88 1376.31 2274.25 1367.31 2266.6 1358.5C2263.28 1355.03 2258.84 1349.04 2253.28 1340.54L2252.76 1337.59C2252.18 1334.31 2252.7 1331.51 2254.33 1329.19C2255.95 1326.87 2258.01 1325.15 2260.53 1324.03L2291.05 1318.65C2303.1 1317.88 2320.97 1311.68 2344.64 1300.06L2395.33 1270.82L2410.39 1264.1C2415.65 1263.17 2420.38 1265.05 2424.59 1269.72C2425.47 1270.92 2426.09 1272.5 2426.44 1274.47C2427.37 1279.72 2425.05 1283.85 2419.49 1286.87L2394.63 1301.4C2390.92 1303.41 2380.46 1309.32 2363.23 1319.12C2346.55 1328.16 2329.52 1335.22 2312.14 1340.32C2305.69 1342.13 2301.59 1343.87 2299.86 1345.53C2298 1346.53 2297.36 1348.68 2297.94 1351.96C2298.64 1355.9 2299.6 1359.45 2300.84 1362.62C2303.54 1370.27 2305.24 1376.06 2305.93 1380C2308.13 1392.47 2307.44 1405.8 2303.84 1419.97C2299.82 1435.57 2292 1448.8 2280.38 1459.65ZM2417.48 1481.17C2415.21 1483.6 2412.1 1485.16 2408.16 1485.86C2404.87 1486.44 2401.75 1485.97 2398.77 1484.47C2395.68 1482.3 2393.41 1478.98 2391.94 1474.5C2390.82 1471.99 2389.74 1467.78 2388.7 1461.87C2387.93 1449.82 2387.79 1441.38 2388.29 1436.56L2390.56 1414.83C2391.68 1394.33 2393.42 1375.4 2395.78 1358.06C2401.81 1323.15 2411.51 1270.67 2424.88 1200.62C2426.04 1195.68 2429.28 1185.29 2434.62 1169.46C2436.01 1165.83 2438.29 1163.39 2441.45 1162.16C2444.5 1160.27 2447.52 1160.07 2450.49 1161.58C2456.98 1163.82 2459.6 1169.11 2458.37 1177.45L2454.54 1190.31L2423.01 1351.23C2422.7 1353.32 2422.02 1357.16 2420.98 1362.76C2419.93 1368.36 2419.82 1373.46 2420.63 1378.05C2421.44 1382.65 2422.73 1386.14 2424.51 1388.54C2438.38 1348.18 2457.56 1307.23 2482.05 1265.68C2493.71 1247.38 2504.87 1233.9 2515.53 1225.25C2519.67 1221.81 2524.36 1219.63 2529.61 1218.71C2538.8 1217.09 2547.28 1221.01 2555.04 1230.47C2558.59 1235.26 2562.01 1243.12 2565.29 1254.05L2578.72 1301.44C2582.12 1313.02 2586.87 1322.68 2592.97 1330.4C2597.53 1337.05 2603.51 1338.36 2610.93 1334.34C2620.2 1329.32 2629.81 1320.52 2639.78 1307.93L2653.74 1289.22L2682.48 1250.65C2690.28 1241.15 2695.81 1234.08 2699.05 1229.45C2702.3 1224.81 2704.46 1221.72 2705.54 1220.18C2709.33 1214.77 2713.92 1213.96 2719.33 1217.75C2724.62 1220.88 2726.74 1225.24 2725.7 1230.84C2724.65 1236.44 2722.51 1241.56 2719.27 1246.19C2714.4 1253.14 2697.35 1275.44 2668.11 1313.09L2652.35 1333.13C2642.5 1346.38 2630.58 1355.59 2616.6 1360.76L2607.91 1363.31C2594.78 1365.62 2583.06 1360.58 2572.75 1348.18C2563.99 1336.87 2558.23 1325.36 2555.49 1313.66C2548.58 1289.83 2542.87 1270.86 2538.35 1256.77C2537 1252.94 2534.63 1250.99 2531.23 1250.92C2528.37 1250.07 2525.86 1251.19 2523.7 1254.27C2512.11 1269.18 2504 1280.76 2499.36 1289.03C2472.29 1335.1 2450.52 1386.32 2434.06 1442.7C2433.09 1444.9 2431.39 1450.62 2428.96 1459.85C2427.06 1468.31 2423.24 1475.41 2417.48 1481.17Z" fill="#00FFFF"/>
<g filter="url(#filter0_f_235_2)">
<path d="M272.902 1979.54C269.658 1984.17 265.738 1986.89 261.142 1987.7C253.263 1989.09 247.587 1985.69 244.112 1977.51C241.642 1971.17 239.712 1964.07 238.322 1956.19C237.049 1948.97 236.239 1944.37 235.891 1942.4C230.45 1911.54 228.738 1869.2 230.753 1815.36C232.384 1755.5 240.466 1676.57 255 1578.55C255.387 1573.07 256.972 1560.94 259.756 1542.18L287.069 1334.27C287.262 1331.53 288.093 1326.65 289.562 1319.62C290.915 1311.93 292.769 1305.18 295.126 1299.34C297.173 1295.6 299.452 1293.17 301.962 1292.05C305.014 1290.15 307.968 1289.63 310.826 1290.48C318.086 1293.27 320.711 1298.56 318.702 1306.36C314.915 1323.27 310.798 1351.75 306.351 1391.8L301.479 1433.28C300.165 1445.02 298.367 1457.86 296.087 1471.8C294.347 1484.97 292.51 1499.51 290.577 1515.42C279.56 1591.15 270.785 1654.64 264.251 1705.88C256.209 1771.61 253.787 1834.66 256.984 1895.02C256.828 1901.81 257.098 1907.18 257.793 1911.12C257.908 1911.78 257.87 1913.48 257.676 1916.22C258.255 1919.5 260.186 1920.85 263.468 1920.28C266.095 1919.81 267.833 1918.15 268.683 1915.29C269.648 1913.09 270.402 1911.61 270.942 1910.83L278.535 1879.03L295.518 1814.1C304.173 1778.72 312.21 1747.52 319.629 1720.49C343.972 1628.19 375.245 1544.49 413.45 1469.38C435.198 1427.64 457.834 1392.84 481.357 1365L506.269 1339.29C509.861 1336.62 515.365 1333.28 522.78 1329.27C529.771 1326.68 536.239 1326.89 542.186 1329.91C548.018 1332.26 552.226 1336.94 554.813 1343.93C557.515 1351.57 559.156 1357.04 559.734 1360.32C559.966 1361.64 560.66 1371.33 561.816 1389.4C561.232 1420.65 558.06 1456.41 552.301 1496.68C543.68 1559.13 538.846 1604.66 537.8 1633.28C536.096 1662.01 536.576 1683.93 539.239 1699.03C540.165 1704.28 542.114 1707.66 545.088 1709.17C545.86 1709.71 547.231 1709.8 549.201 1709.46C552.483 1708.88 554.82 1706.77 556.211 1703.14C567.877 1684.84 575.911 1670.9 580.315 1661.32C583.328 1655.37 590.591 1640.89 602.102 1617.88C614.27 1594.75 626.458 1573.64 638.664 1554.57C646.969 1540.24 657.456 1524.85 670.125 1508.4C678.469 1498.13 688.221 1492.01 699.382 1490.04C713.826 1487.5 725.43 1491.88 734.195 1503.2C740.412 1511.58 745.489 1521.18 749.426 1531.99L776.525 1616.57C784.632 1639.51 792.295 1656.1 799.516 1666.33C811.408 1683.87 823.591 1691.54 836.065 1689.34C845.257 1687.72 854.352 1681.71 863.352 1671.32C866.172 1668.12 876.891 1648.29 895.511 1611.84C900.34 1600.83 912.604 1576.33 932.305 1538.33C933.503 1537.44 934.314 1536.28 934.739 1534.85C935.821 1533.31 937.288 1532.04 939.142 1531.03C942.618 1527.71 946.615 1527.34 951.133 1529.93C956.076 1531.09 958.297 1534.09 957.794 1538.91C957.407 1544.4 955.494 1550.83 952.056 1558.2C909.023 1644.32 880.65 1692.64 866.939 1703.19C856.048 1710.52 846.663 1714.88 838.784 1716.27C824.997 1718.7 810.535 1713.47 795.398 1700.57C781.69 1688.09 772.307 1675.19 767.25 1661.87C762.309 1649.2 753.758 1625.66 741.598 1591.25L724.689 1541.43C722.219 1535.1 719.98 1530.07 717.972 1526.37C713.957 1518.95 708.994 1515.76 703.086 1516.81C699.803 1517.39 696.153 1519.72 692.136 1523.81C688.119 1527.91 683.948 1533.04 679.621 1539.22C675.18 1544.74 671.877 1549.05 669.714 1552.14C650.709 1582.57 630.719 1618.92 609.743 1661.21C602.21 1676.08 594.079 1691.39 585.348 1707.14C578.666 1719.15 571.192 1728.59 562.926 1735.47C557.712 1740.45 552.15 1743.46 546.242 1744.5C540.989 1745.43 535.718 1744.33 530.428 1741.2C525.678 1737.3 521.952 1731.52 519.25 1723.88C518.014 1720.71 516.992 1716.83 516.181 1712.23C515.371 1707.64 514.406 1704.08 513.286 1701.57C509.853 1674.42 509.877 1641.92 513.358 1604.08C514.982 1590.25 518.539 1560.52 524.029 1514.87L529.365 1470.27C533.618 1432.96 535.437 1404.88 534.822 1386.04C535.324 1381.21 534.65 1373.55 532.797 1363.04C532.334 1360.41 530.461 1359.39 527.179 1359.97C523.896 1360.55 520.517 1362.5 517.04 1365.82C514.105 1368.37 511.768 1370.47 510.03 1372.13C488.439 1395.57 468.585 1423.1 450.468 1454.73C410.488 1527.44 379.157 1605.06 356.476 1687.59C345.232 1727.48 329.139 1787.86 308.196 1868.72L300.256 1898.56C297.512 1909.87 292.741 1926.96 285.94 1949.82C283.081 1960.48 278.735 1970.39 272.902 1979.54ZM946.745 1663.73C943.153 1666.39 939.388 1668.07 935.448 1668.77C929.54 1669.81 924.268 1668.71 919.634 1665.46C914.885 1661.56 911.545 1656.06 909.615 1648.95C908.342 1641.73 907.744 1636.42 907.822 1633.02C911.613 1581.58 925.194 1539.58 948.563 1507.03C951.151 1502.51 955.322 1497.38 961.077 1491.62C970.077 1481.24 980.158 1475.06 991.319 1473.09C1001.17 1471.35 1011.71 1473.56 1022.95 1479.7C1028.12 1482.17 1031.37 1483.29 1032.68 1483.06C1034.65 1482.71 1037.14 1479.57 1040.15 1473.62C1044.36 1466.78 1049.91 1455.99 1056.78 1441.24L1066.46 1421.26C1073.88 1405.73 1077.58 1397.97 1077.58 1397.97C1082.45 1391.02 1088.07 1388.34 1094.44 1389.92C1101.7 1392.7 1104.5 1398.98 1102.84 1408.75L1094.73 1437.6C1083.13 1475.52 1075.79 1510.66 1072.7 1543.02C1070.3 1567.82 1070.14 1586.12 1072.23 1597.94C1072.81 1601.22 1074.25 1603.67 1076.57 1605.3C1078.77 1606.26 1081.07 1605.86 1083.46 1604.08C1094.36 1596.74 1102.47 1590.91 1107.8 1586.59C1121.16 1574.08 1131.74 1563.07 1139.55 1553.57C1147.46 1544.73 1154.4 1536.06 1160.35 1527.57L1180.34 1502.72C1189.33 1492.33 1194.1 1486.75 1194.65 1485.98C1198.01 1482 1202 1481.64 1206.64 1484.88C1211.81 1487.35 1213.99 1492.05 1213.18 1498.96C1213.3 1499.61 1211.73 1502.26 1208.49 1506.89C1177.66 1550.92 1148.77 1584.78 1121.81 1608.49C1105.63 1624.2 1090.97 1633.22 1077.84 1635.53C1061.43 1638.43 1051.54 1630.36 1048.19 1611.32C1046.56 1602.13 1045.45 1588.11 1044.83 1569.26C1044.87 1561.81 1045.63 1548.81 1047.1 1530.27C1039.68 1534.29 1034.47 1539.27 1031.45 1545.22C1028.98 1550.39 1027.2 1553.75 1026.12 1555.3C1004.88 1592.21 986.181 1620.56 970.036 1640.33C961.693 1650.6 953.929 1658.4 946.745 1663.73ZM938.06 1631.75C941.459 1631.83 944.24 1630.32 946.403 1627.23C967.647 1601.82 990.495 1566.32 1014.95 1520.71C1016.14 1519.82 1017.17 1517.95 1018.02 1515.09C1018.44 1513.66 1018.48 1511.97 1018.13 1510C1017.44 1506.06 1015.28 1503.39 1011.65 1502C1006.47 1499.53 1001.59 1498.7 996.992 1499.51C995.679 1499.74 993.169 1500.86 989.461 1502.87C983.899 1505.88 979.226 1510.09 975.44 1515.49C949.329 1547.85 936.097 1586.06 935.743 1630.13C935.743 1630.13 936.13 1630.4 936.902 1630.94C937.558 1630.82 937.945 1631.09 938.06 1631.75ZM1200.31 1726.65C1190.47 1728.39 1183.96 1724.12 1180.79 1713.85C1180.33 1711.22 1179.64 1707.28 1178.71 1702.03C1177.13 1696.89 1176.32 1692.3 1176.28 1688.24C1174.16 1626.34 1179.35 1571.27 1191.83 1523.03L1210.32 1443.62C1211.28 1441.41 1211.92 1439.27 1212.23 1437.19C1213.08 1434.33 1214.26 1431.41 1215.76 1428.44C1218.47 1424.58 1222.23 1422.9 1227.06 1423.4C1233.32 1424.33 1236.19 1427.21 1235.69 1432.03C1236.85 1438.6 1236.48 1446.11 1234.59 1454.57C1231.65 1468.62 1226.59 1489.82 1219.4 1518.17C1211.71 1551.34 1206.53 1583.4 1203.86 1614.33C1202.86 1623.98 1202.7 1630.78 1203.4 1634.72C1204.09 1638.66 1205.77 1642.42 1208.43 1646.02L1207.45 1646.19L1208.61 1647L1233.3 1562.43C1243.11 1533.62 1255.11 1509.51 1269.28 1490.08C1275.77 1480.81 1282.22 1473.25 1288.63 1467.38C1292.22 1464.71 1295.99 1463.03 1299.93 1462.34C1307.81 1460.95 1314.74 1463.79 1320.72 1470.86C1323.27 1473.79 1325.61 1477.44 1327.73 1481.81C1330.4 1485.4 1333 1488.66 1335.55 1491.6C1344.86 1502.14 1353.78 1506.66 1362.31 1505.16C1366.91 1504.35 1372.2 1501.72 1378.19 1497.28C1394.83 1484.19 1410.03 1468.65 1423.78 1450.65C1427.03 1446.02 1430.71 1441.99 1434.85 1438.55C1435.39 1437.78 1436.64 1437.22 1438.61 1436.87C1441.24 1436.41 1444.04 1436.93 1447.01 1438.43C1451.65 1441.68 1453.33 1445.44 1452.05 1449.73C1450.47 1456.1 1448.26 1460.89 1445.45 1464.1C1432.16 1484.72 1413.21 1503.97 1388.61 1521.84C1382.62 1526.28 1375.36 1529.26 1366.83 1530.76C1350.41 1533.66 1335.68 1528.81 1322.63 1516.22C1322.63 1516.22 1316.32 1509.2 1303.69 1495.18C1297.78 1496.23 1292.78 1500.49 1288.68 1507.98C1275.71 1526.52 1264.64 1550.13 1255.48 1578.83L1243.37 1619.55C1241.9 1626.58 1235.8 1647.62 1225.05 1682.69C1221.23 1695.55 1217.12 1706.77 1212.71 1716.34C1210.35 1722.17 1206.22 1725.61 1200.31 1726.65ZM1442.03 1576.39C1438.44 1579.06 1434.68 1580.74 1430.74 1581.43C1424.83 1582.47 1419.56 1581.37 1414.92 1578.13C1410.17 1574.23 1406.83 1568.72 1404.9 1561.62C1403.63 1554.4 1403.03 1549.09 1403.11 1545.69C1406.9 1494.25 1420.48 1452.25 1443.85 1419.7C1446.44 1415.18 1450.61 1410.04 1456.37 1404.29C1465.37 1393.9 1475.45 1387.73 1486.61 1385.76C1496.46 1384.02 1507 1386.22 1518.24 1392.37C1523.41 1394.84 1526.65 1395.96 1527.97 1395.73C1529.94 1395.38 1532.43 1392.23 1535.44 1386.29C1539.65 1379.45 1545.2 1368.66 1552.07 1353.91L1561.75 1333.92C1569.17 1318.4 1572.87 1310.64 1572.87 1310.64C1577.74 1303.69 1583.36 1301 1589.73 1302.59C1596.99 1305.37 1599.79 1311.65 1598.13 1321.42L1590.01 1350.26C1578.42 1388.19 1571.08 1423.33 1567.99 1455.69C1565.59 1480.48 1565.43 1498.79 1567.52 1510.61C1568.1 1513.89 1569.54 1516.34 1571.86 1517.96C1574.06 1518.93 1576.36 1518.52 1578.75 1516.75C1589.65 1509.41 1597.76 1503.58 1603.09 1499.26C1616.45 1486.75 1627.03 1475.74 1634.84 1466.24C1642.75 1457.4 1649.69 1448.73 1655.64 1440.23L1675.62 1415.39C1684.62 1405 1689.39 1399.42 1689.93 1398.65C1693.3 1394.67 1697.29 1394.3 1701.93 1397.55C1707.1 1400.02 1709.28 1404.71 1708.47 1411.63C1708.59 1412.28 1707.02 1414.93 1703.78 1419.56C1672.95 1463.58 1644.06 1497.45 1617.1 1521.16C1600.92 1536.87 1586.26 1545.89 1573.13 1548.2C1556.72 1551.1 1546.83 1543.02 1543.47 1523.98C1541.85 1514.79 1540.74 1500.77 1540.12 1481.93C1540.16 1474.47 1540.91 1461.48 1542.38 1442.94C1534.97 1446.96 1529.76 1451.94 1526.74 1457.89C1524.27 1463.06 1522.49 1466.42 1521.41 1467.96C1500.17 1504.88 1481.47 1533.22 1465.32 1553C1456.98 1563.27 1449.22 1571.07 1442.03 1576.39ZM1433.35 1544.42C1436.75 1544.49 1439.53 1542.99 1441.69 1539.9C1462.94 1514.49 1485.78 1478.98 1510.24 1433.38C1511.43 1432.49 1512.46 1430.62 1513.31 1427.76C1513.73 1426.33 1513.77 1424.63 1513.42 1422.66C1512.73 1418.72 1510.57 1416.06 1506.94 1414.67C1501.76 1412.2 1496.88 1411.36 1492.28 1412.17C1490.97 1412.41 1488.46 1413.53 1484.75 1415.53C1479.19 1418.55 1474.51 1422.75 1470.73 1428.16C1444.62 1460.52 1431.39 1498.73 1431.03 1542.79C1431.03 1542.79 1431.42 1543.07 1432.19 1543.61C1432.85 1543.49 1433.23 1543.76 1433.35 1544.42ZM1740.72 1682.13C1735.93 1685.69 1730.91 1687.93 1725.66 1688.85C1715.16 1690.7 1705.41 1685.32 1696.41 1672.69C1690.85 1664.19 1686.68 1652.06 1683.9 1636.31C1681.01 1619.89 1679.25 1602.26 1678.64 1583.42C1678.02 1564.57 1677.64 1552.79 1677.48 1548.08C1676.64 1481.89 1684.65 1400.59 1701.5 1304.2C1702.93 1293.12 1704.8 1282.64 1707.12 1272.75L1711.18 1249.69C1712.22 1244.1 1712.46 1239.65 1711.88 1236.37C1711.3 1233.09 1709.31 1231.41 1705.91 1231.33C1703.05 1230.48 1698.4 1230.96 1691.95 1232.78L1613.92 1256.69C1611.41 1257.81 1608.24 1259.05 1604.42 1260.4C1600.59 1261.75 1595.73 1262.94 1589.82 1263.99C1585.22 1264.8 1581.55 1265.1 1578.81 1264.91C1574.64 1264.29 1572 1262.73 1570.88 1260.22L1570.36 1257.26C1569.66 1253.32 1570.84 1250.41 1573.89 1248.52C1580.11 1245.39 1588.9 1241.47 1600.25 1236.76C1620.14 1230.55 1654.51 1220.09 1703.37 1205.38C1715.07 1202.64 1722.29 1195.61 1725.04 1184.3L1741.21 1120.52C1749.32 1097.43 1755.73 1080.05 1760.45 1068.39C1762.03 1062.01 1764.56 1057.17 1768.04 1053.85C1771.4 1049.87 1774.72 1047.59 1778 1047.01C1780.63 1046.55 1782.77 1047.19 1784.43 1048.92C1786.75 1050.55 1788.2 1053 1788.77 1056.28C1789.47 1060.22 1788.87 1066.42 1786.98 1074.88C1784.04 1088.93 1776.52 1117.34 1764.43 1160.09C1764.01 1161.52 1763.21 1164.7 1762.05 1169.64C1760.78 1173.93 1760.66 1179.03 1761.7 1184.94C1768.5 1185.09 1772.88 1185 1774.85 1184.65L1785.51 1181.75C1815.79 1173.03 1844.87 1165.2 1872.76 1158.25L1961.8 1133.41C1969.56 1131.36 1976.45 1130.15 1982.48 1129.76C1988.39 1128.72 1993.31 1127.85 1997.25 1127.16C2001.19 1126.46 2004.39 1129.28 2006.86 1135.62C2007.79 1140.87 2006.4 1144.5 2002.69 1146.51C1996.36 1148.98 1988.05 1151.8 1977.78 1154.96L1769.35 1211.01C1762.24 1212.94 1756.68 1215.95 1752.66 1220.04C1748.53 1223.48 1745.73 1228.71 1744.26 1235.74C1737.19 1264.74 1729.07 1310.85 1719.91 1374.07C1710.63 1436.63 1705.38 1483.59 1704.14 1514.95C1702.2 1542.37 1703.06 1576.06 1706.73 1616.03C1707.31 1619.32 1707.56 1622.66 1707.48 1626.06C1707.4 1629.45 1707.65 1632.79 1708.23 1636.08C1710.08 1646.58 1715.14 1654.15 1723.41 1658.79C1729.85 1656.97 1734.7 1653.75 1737.95 1649.12C1741.31 1645.14 1744.22 1640.56 1746.7 1635.39C1749.94 1630.75 1752.05 1627.34 1753.01 1625.13C1768.85 1595.94 1789.55 1554.04 1815.13 1499.44C1819.11 1491.29 1828.09 1473.12 1842.07 1444.93C1855.94 1416.09 1866.06 1396.7 1872.44 1386.78C1872.98 1386 1874.48 1383.03 1876.95 1377.86C1879.97 1371.91 1884.53 1367.04 1890.63 1363.26C1894.34 1361.25 1898 1360.94 1901.63 1362.33C1907.58 1365.35 1909.43 1370.1 1907.19 1376.59C1907.54 1378.55 1906.9 1380.7 1905.28 1383.02C1895.35 1399.66 1876.46 1436.5 1848.61 1493.53C1844.09 1502.46 1832.91 1525.41 1815.06 1562.41C1797.1 1598.74 1780.24 1629.81 1764.48 1655.61C1759.53 1665.96 1751.61 1674.8 1740.72 1682.13ZM2227.78 1304.83C2232.29 1307.41 2234.63 1311.06 2234.78 1315.78C2234.51 1321.92 2231.13 1329.62 2224.64 1338.89C2215.33 1351.36 2200.1 1368.6 2178.93 1390.61C2158.3 1411.85 2142.82 1425.75 2132.46 1432.31C2124.51 1437.1 2117.9 1439.96 2112.65 1440.88C2103.46 1442.51 2095.06 1440.94 2087.45 1436.19C2079.73 1430.78 2073.57 1422.73 2068.98 1412.03C2062.92 1396.85 2058.34 1376.67 2055.26 1351.49C2053.29 1340.33 2051.46 1331.85 2049.76 1326.06C2049.53 1324.75 2048.37 1323.94 2046.28 1323.63C2044.74 1322.55 2043.42 1322.78 2042.34 1324.32C2037.67 1328.53 2034.31 1332.51 2032.26 1336.25C2020.6 1354.56 2009.74 1377.46 1999.7 1404.95C1984.05 1442.91 1969.56 1487.44 1956.23 1538.53L1941.05 1584.87C1938.61 1594.1 1934.58 1601.92 1928.94 1608.33C1924.92 1612.42 1921.27 1614.76 1917.99 1615.34C1910.77 1616.61 1904.76 1613.27 1899.97 1605.31C1896.62 1597.78 1894.13 1589.42 1892.5 1580.23C1886.21 1552.23 1882.57 1514.29 1881.57 1466.4C1881.38 1457.63 1881.75 1444.37 1882.68 1426.6L1882.97 1387.96C1883.28 1385.88 1883.69 1382.42 1884.19 1377.59C1884.58 1372.11 1884.42 1367.4 1883.73 1363.46C1882.92 1358.86 1881.12 1354.44 1878.34 1350.19C1877.57 1349.65 1877.01 1348.4 1876.66 1346.43C1876.2 1343.8 1876.4 1341.06 1877.25 1338.2C1878.75 1335.23 1879.72 1333.03 1880.14 1331.6C1885.09 1321.25 1888.7 1309.1 1890.98 1295.16C1893.92 1281.11 1895.7 1271.99 1896.31 1267.82C1909.73 1178.81 1936.45 1082.71 1976.47 979.523C1977.74 975.237 1984.47 961.528 1996.63 938.397C1999.34 934.536 2003.08 930.829 2007.87 927.276C2008.41 926.504 2009.34 926.002 2010.65 925.771C2013.28 925.308 2015.75 925.887 2018.07 927.51C2020.27 928.475 2021.54 929.943 2021.89 931.913C2023.16 939.135 2023.43 944.503 2022.7 948.017C2021.89 954.93 2020.01 965.414 2017.08 979.471C2003.13 1034.73 1989.39 1083.53 1975.87 1125.85C1962.89 1167.4 1948.03 1207.93 1931.31 1247.44C1923.81 1266.36 1918.85 1286.19 1916.41 1306.93C1906.51 1385.17 1904.28 1456.98 1909.72 1522.36C1910.1 1528.39 1911.28 1536.98 1913.25 1548.14C1913.36 1548.8 1914.77 1552.95 1917.47 1560.6C1923.23 1554.84 1926.9 1548.78 1928.48 1542.41C1929.95 1535.38 1931.11 1530.44 1931.96 1527.58C1946.91 1474.17 1962.43 1427.77 1978.5 1388.38C1989.08 1360.12 2000 1337.54 2011.24 1320.67C2017.49 1310.09 2024.97 1300.65 2033.66 1292.35C2037.02 1288.37 2041.65 1285.86 2047.56 1284.82C2059.38 1282.73 2067.43 1288.08 2071.72 1300.87C2072.84 1303.38 2073.92 1307.59 2074.96 1313.49L2078.78 1335.16C2079.59 1339.76 2080.24 1345.39 2080.75 1352.08C2081.9 1358.64 2083.56 1366.13 2085.72 1374.55C2087.81 1386.37 2089.97 1394.79 2092.21 1399.81C2096.15 1410.62 2101.73 1415.39 2108.95 1414.12C2112.89 1413.43 2116.65 1411.75 2120.25 1409.08C2130.6 1402.52 2145.76 1388.68 2165.72 1367.55C2185.69 1346.43 2199.41 1330.14 2206.86 1318.67C2209.45 1314.15 2212.42 1309.9 2215.78 1305.93C2218.6 1302.72 2222.6 1302.35 2227.78 1304.83ZM1966.49 1089.93C1967.46 1087.73 1967.82 1085.98 1967.59 1084.66C1967.36 1083.35 1967.51 1082.31 1968.05 1081.53L1966.49 1089.93ZM1964.4 1095.38C1963.21 1096.27 1961.53 1098.26 1959.36 1101.34L1964.4 1095.38ZM1957.74 1103.66C1957.82 1111.77 1956.5 1117.76 1953.8 1121.62L1954.78 1121.45L1954.61 1120.46C1958.16 1113.74 1959.21 1108.14 1957.74 1103.66ZM2280.53 1460.02C2272.27 1466.9 2263.54 1471.14 2254.35 1472.76C2242.53 1474.85 2231.39 1473.09 2220.92 1467.49C2210.34 1461.23 2202.64 1452.1 2197.81 1440.08C2194.22 1431.24 2192.06 1422.82 2191.33 1414.83C2188.09 1373.43 2197.21 1334.92 2218.69 1299.32C2225.26 1286.65 2233.17 1277.81 2242.44 1272.79C2246.03 1270.13 2250.13 1268.39 2254.72 1267.58C2261.52 1267.74 2265.71 1270.38 2267.29 1275.52L2267.99 1279.46C2268.91 1284.71 2267.47 1288.01 2263.64 1289.36C2254.14 1293.07 2247.23 1298.01 2242.9 1304.19C2238.58 1310.37 2233.57 1320.39 2227.89 1334.25C2221.6 1352.29 2217.98 1370.19 2217.05 1387.95C2215.82 1396.29 2216.18 1406.04 2218.15 1417.21C2220.12 1428.37 2223.59 1436.55 2228.57 1441.77C2234.21 1446.87 2241.3 1448.66 2249.83 1447.16C2255.09 1446.23 2260.05 1443.67 2264.72 1439.46C2269.4 1435.25 2272.85 1429.9 2275.09 1423.41C2280.54 1408.23 2282.4 1395.72 2280.66 1385.87C2279.04 1376.68 2274.41 1367.68 2266.76 1358.88C2263.44 1355.4 2259 1349.42 2253.44 1340.92L2252.92 1337.96C2252.34 1334.68 2252.86 1331.88 2254.48 1329.56C2256.11 1327.25 2258.17 1325.53 2260.68 1324.41L2291.21 1319.03C2303.26 1318.26 2321.12 1312.06 2344.8 1300.44L2395.49 1271.19L2410.55 1264.47C2415.8 1263.55 2420.54 1265.42 2424.74 1270.1C2425.63 1271.29 2426.25 1272.88 2426.6 1274.85C2427.52 1280.1 2425.21 1284.23 2419.64 1287.24L2394.79 1301.78C2391.08 1303.79 2380.62 1309.69 2363.39 1319.5C2346.71 1328.53 2329.67 1335.6 2312.3 1340.69C2305.85 1342.51 2301.75 1344.25 2300.01 1345.91C2298.16 1346.91 2297.52 1349.05 2298.1 1352.34C2298.8 1356.28 2299.76 1359.83 2301 1363C2303.7 1370.64 2305.4 1376.44 2306.09 1380.37C2308.29 1392.85 2307.59 1406.17 2304 1420.35C2299.98 1435.95 2292.16 1449.17 2280.53 1460.02ZM2417.64 1481.54C2415.36 1483.97 2412.25 1485.54 2408.32 1486.23C2405.03 1486.81 2401.9 1486.35 2398.93 1484.84C2395.84 1482.68 2393.56 1479.36 2392.1 1474.88C2390.98 1472.37 2389.9 1468.16 2388.85 1462.25C2388.08 1450.2 2387.95 1441.76 2388.45 1436.93L2390.72 1415.21C2391.84 1394.7 2393.58 1375.78 2395.94 1358.44C2401.97 1323.53 2411.67 1271.05 2425.04 1200.99C2426.2 1196.05 2429.44 1185.66 2434.77 1169.83C2436.17 1166.2 2438.44 1163.77 2441.61 1162.53C2444.66 1160.64 2447.67 1160.45 2450.65 1161.95C2457.14 1164.2 2459.76 1169.49 2458.52 1177.83L2454.7 1190.69L2423.16 1351.61C2422.85 1353.69 2422.18 1357.54 2421.13 1363.14C2420.09 1368.74 2419.97 1373.83 2420.79 1378.43C2421.6 1383.02 2422.89 1386.52 2424.66 1388.91C2438.53 1348.56 2457.71 1307.61 2482.2 1266.06C2493.87 1247.75 2505.03 1234.28 2515.69 1225.63C2519.83 1222.19 2524.52 1220.01 2529.77 1219.08C2538.96 1217.46 2547.44 1221.38 2555.2 1230.85C2558.75 1235.64 2562.17 1243.49 2565.45 1254.42L2578.88 1301.81C2582.28 1313.4 2587.03 1323.05 2593.13 1330.78C2597.68 1337.42 2603.67 1338.73 2611.09 1334.72C2620.36 1329.7 2629.97 1320.9 2639.94 1308.31L2653.9 1289.6L2682.64 1251.02C2690.44 1241.52 2695.97 1234.46 2699.21 1229.82C2702.45 1225.19 2704.62 1222.1 2705.7 1220.56C2709.48 1215.15 2714.08 1214.34 2719.49 1218.12C2724.78 1221.25 2726.9 1225.62 2725.86 1231.22C2724.81 1236.82 2722.67 1241.93 2719.42 1246.57C2714.56 1253.52 2697.5 1275.82 2668.26 1313.47L2652.51 1333.51C2642.66 1346.75 2630.74 1355.96 2616.76 1361.14L2608.07 1363.68C2594.94 1366 2583.22 1360.96 2572.91 1348.56C2564.14 1337.24 2558.39 1325.73 2555.65 1314.03C2548.74 1290.2 2543.03 1271.24 2538.51 1257.14C2537.16 1253.32 2534.79 1251.37 2531.39 1251.29C2528.53 1250.44 2526.02 1251.56 2523.86 1254.65C2512.27 1269.56 2504.16 1281.14 2499.52 1289.4C2472.44 1335.47 2450.67 1386.7 2434.22 1443.08C2433.25 1445.28 2431.55 1451 2429.12 1460.23C2427.22 1468.68 2423.4 1475.79 2417.64 1481.54Z" fill="#00FFFF"/>
</g>
<g clip-path="url(#clip0_235_2)">
<path d="M912.864 1009.31L824.039 1139.21C801.367 1169.44 759.027 1176.69 727.587 1155.73L635.988 1094.69C617.354 1109.52 590.145 1108.32 572.902 1091.08C554.366 1072.55 554.366 1042.5 572.902 1023.97L596.36 1000.52C612.519 984.371 637.838 981.866 656.852 994.535L761.564 1064.32L836.919 952.369M1033.66 369.5C1112.3 369.5 1176.06 433.232 1176.06 511.85C1176.06 580.056 1128.07 637.058 1064.01 650.96L1055.92 652.471L1124.08 761.484L1205.89 728.77C1230.23 719.037 1257.86 730.872 1267.59 755.202C1276.63 777.796 1267.07 803.222 1246.17 814.531L1241.15 816.882L1159.33 849.599C1119.18 865.654 1073.64 852.488 1048.12 818.413L1043.57 811.781L1035.86 799.44L1007.09 914.468C1004.52 924.755 1000.35 934.228 994.929 942.689L990.63 948.841L1069.11 1007.12C1087.91 1021.08 1100.81 1041.44 1105.48 1064.19L1106.85 1072.82L1123.61 1223.6H1128.59C1154.8 1223.6 1176.06 1244.84 1176.06 1271.05C1176.06 1295.38 1157.73 1315.44 1134.12 1318.18L1128.59 1318.5H1085.37C1060.67 1318.5 1039.63 1301.26 1034.4 1277.63L1033.48 1272.07L1012.5 1083.3L862.956 972.248C860.251 970.241 857.822 967.996 855.675 965.572C829.484 944.602 815.535 910.521 821.346 875.863L822.896 868.432L860.597 717.681L786.102 740.022L746.427 859.004C738.138 883.867 711.257 897.305 686.387 889.016C663.294 881.323 650.056 857.6 654.92 834.347L656.367 828.996L696.042 710.012C704.997 683.155 725.423 661.83 751.558 651.627L758.823 649.125L921.99 600.191C902.752 575.918 891.26 545.225 891.26 511.85C891.26 433.232 955.012 369.5 1033.66 369.5Z" stroke="#FFF490" stroke-width="20"/>
<g opacity="0.5" filter="url(#filter1_f_235_2)">
<path d="M1033.66 369.5C1112.3 369.5 1176.06 433.232 1176.06 511.85C1176.06 580.056 1128.07 637.058 1064.01 650.96L1055.92 652.471L1124.08 761.484L1205.89 728.77C1230.23 719.037 1257.86 730.872 1267.59 755.202C1276.63 777.796 1267.07 803.222 1246.17 814.531L1241.15 816.882L1159.33 849.599C1119.18 865.654 1073.64 852.488 1048.12 818.413L1043.57 811.781L1035.86 799.44L1007.09 914.468C1004.52 924.755 1000.35 934.228 994.929 942.689L990.63 948.841L1069.11 1007.12C1087.91 1021.08 1100.81 1041.44 1105.48 1064.19L1106.85 1072.82L1123.61 1223.6H1128.59C1154.8 1223.6 1176.06 1244.84 1176.06 1271.05C1176.06 1295.38 1157.73 1315.44 1134.12 1318.18L1128.59 1318.5H1085.37C1060.67 1318.5 1039.63 1301.26 1034.4 1277.63L1033.48 1272.07L1012.5 1083.3L862.956 972.248C860.251 970.241 857.822 967.996 855.675 965.572C829.484 944.602 815.535 910.521 821.346 875.863L822.896 868.432L860.597 717.681L786.102 740.022L746.427 859.004C738.138 883.867 711.257 897.305 686.387 889.016C663.294 881.323 650.056 857.6 654.92 834.347L656.367 828.996L696.042 710.012C704.997 683.155 725.423 661.83 751.558 651.627L758.823 649.125L921.99 600.191C902.752 575.918 891.26 545.225 891.26 511.85C891.26 433.232 955.012 369.5 1033.66 369.5ZM872.274 995.84C893.245 1011.56 897.497 1041.31 881.767 1062.27L824.039 1139.21C801.367 1169.44 759.027 1176.69 727.587 1155.73L635.988 1094.69C617.354 1109.52 590.145 1108.32 572.902 1091.08C554.366 1072.55 554.366 1042.5 572.902 1023.97L596.36 1000.52C612.519 984.371 637.838 981.866 656.852 994.535L761.564 1064.32L805.822 1005.33C821.551 984.367 851.302 980.115 872.274 995.84Z" stroke="#FFF490" stroke-width="100"/>
</g>
<g filter="url(#filter2_f_235_2)">
<path d="M1377.62 1033C1354.82 1024 1337.42 1009.9 1325.42 990.7C1307.42 963.7 1298.42 929.2 1298.42 887.2C1298.42 861.4 1302.02 833.2 1309.22 802.6C1326.02 730.6 1351.22 668.2 1384.82 615.4C1419.02 562 1462.52 520.3 1515.32 490.3C1534.52 479.5 1553.72 471.7 1572.92 466.9C1577.72 465.7 1584.32 464.5 1592.72 463.3C1627.52 460.9 1648.22 477.4 1654.82 512.8C1656.62 518.8 1657.52 525.7 1657.52 533.5C1657.52 538.9 1656.32 547.6 1653.92 559.6C1649.12 580.6 1641.92 599.8 1632.32 617.2C1615.52 646.6 1593.92 678.1 1567.52 711.7L1561.22 718.9C1558.82 721.3 1555.82 722.8 1552.22 723.4C1549.22 723.4 1547.12 722.2 1545.92 719.8C1545.32 718.6 1545.02 717.1 1545.02 715.3C1545.02 712.9 1546.52 710.2 1549.52 707.2C1568.72 682.6 1585.82 657.4 1600.82 631.6C1614.02 611.2 1623.92 589 1630.52 565C1633.52 554.8 1635.02 545.5 1635.02 537.1C1635.02 532.9 1634.72 529.6 1634.12 527.2C1632.32 500.2 1620.32 486.7 1598.12 486.7C1595.12 486.7 1590.02 487.3 1582.82 488.5C1566.62 492.7 1550.12 499 1533.32 507.4C1486.52 532.6 1447.82 566.8 1417.22 610C1383.02 656.8 1356.62 714.4 1338.02 782.8C1331.42 806.2 1326.02 835.3 1321.82 870.1C1321.22 874.9 1320.92 881.8 1320.92 890.8C1320.92 917.8 1326.92 943.3 1338.92 967.3C1355.72 999.7 1384.52 1016.5 1425.32 1017.7C1439.12 1017.7 1454.42 1014.7 1471.22 1008.7C1524.62 990.1 1569.62 964.6 1606.22 932.2C1633.22 908.8 1662.02 879.4 1692.62 844C1699.82 835 1705.82 828.7 1710.62 825.1C1713.02 823.9 1715.12 823.3 1716.92 823.3C1719.92 823.3 1722.32 824.2 1724.12 826C1728.32 829.6 1728.92 834.1 1725.92 839.5C1725.92 840.1 1723.52 843.4 1718.72 849.4C1698.92 872.2 1681.82 891.1 1667.42 906.1C1653.62 921.1 1638.92 935.2 1623.32 948.4C1581.32 985 1533.02 1012.6 1478.42 1031.2C1459.82 1037.8 1441.52 1041.1 1423.52 1041.1C1408.52 1041.1 1393.22 1038.4 1377.62 1033ZM1745.5 971.8C1737.1 976.6 1728.7 979 1720.3 979C1709.5 979 1699.9 975.7 1691.5 969.1C1683.1 961.9 1677.7 952.6 1675.3 941.2C1673.5 932.8 1672.9 925 1673.5 917.8C1677.1 880.6 1691.2 847.9 1715.8 819.7C1723.6 809.5 1732 802.9 1741 799.9C1744.6 798.1 1748.5 797.2 1752.7 797.2C1758.7 798.4 1762 801.4 1762.6 806.2V809.8C1762.6 814.6 1760.8 817.3 1757.2 817.9C1748.2 819.7 1741.3 823 1736.5 827.8C1731.7 832.6 1725.7 840.7 1718.5 852.1C1710.1 867.1 1704.1 882.4 1700.5 898C1698.1 905.2 1696.9 913.9 1696.9 924.1C1696.9 934.3 1698.7 942.1 1702.3 947.5C1706.5 952.9 1712.5 955.6 1720.3 955.6C1725.1 955.6 1729.9 954.1 1734.7 951.1C1739.5 948.1 1743.4 943.9 1746.4 938.5C1753.6 925.9 1757.2 915.1 1757.2 906.1C1757.2 897.7 1754.5 889 1749.1 880C1746.7 876.4 1743.7 870.4 1740.1 862V859.3C1740.1 856.3 1741 853.9 1742.8 852.1C1744.6 850.3 1746.7 849.1 1749.1 848.5H1777C1787.8 849.7 1804.6 847 1827.4 840.4L1876.9 822.4L1891.3 818.8C1896.1 818.8 1900 821.2 1903 826C1903.6 827.2 1903.9 828.7 1903.9 830.5C1903.9 835.3 1901.2 838.6 1895.8 840.4L1871.5 849.4C1867.9 850.6 1857.7 854.2 1840.9 860.2C1824.7 865.6 1808.5 869.2 1792.3 871C1786.3 871.6 1782.4 872.5 1780.6 873.7C1778.8 874.3 1777.9 876.1 1777.9 879.1C1777.9 882.7 1778.2 886 1778.8 889C1780 896.2 1780.6 901.6 1780.6 905.2C1780.6 916.6 1777.9 928.3 1772.5 940.3C1766.5 953.5 1757.5 964 1745.5 971.8ZM2154.36 486.7C2157.36 488.5 2159.46 492.7 2160.66 499.3C2160.66 505.3 2158.26 513.7 2153.46 524.5C2142.06 556.3 2128.26 584.5 2112.06 609.1C2094.06 637.3 2077.26 676 2061.66 725.2C2038.86 802 2023.56 866.8 2015.76 919.6C2009.16 965.8 2005.86 1004.2 2005.86 1034.8C2005.86 1047.4 2006.16 1057 2006.76 1063.6C2007.36 1085.8 2010.66 1108.9 2016.66 1132.9C2017.86 1135.3 2018.46 1137.1 2018.46 1138.3L2019.36 1143.7C2019.36 1149.7 2016.66 1153.6 2011.26 1155.4C2010.06 1156 2008.56 1156.3 2006.76 1156.3C2000.76 1156.3 1996.86 1152.1 1995.06 1143.7C1987.86 1114.9 1983.96 1087.9 1983.36 1062.7C1980.96 997.9 1988.16 926.8 2004.96 849.4C2007.36 837.4 2013.36 813.4 2022.96 777.4C2025.36 769 2025.96 762.4 2024.76 757.6V758.5C2019.36 760.9 2014.86 764.8 2011.26 770.2C2008.26 775.6 2005.86 779.5 2004.06 781.9C1972.26 828.1 1943.46 865.3 1917.66 893.5C1914.66 897.1 1905.06 907 1888.86 923.2C1881.66 929.2 1875.66 932.8 1870.86 934H1867.26C1863.06 934 1859.46 932.8 1856.46 930.4C1852.86 927.4 1850.76 923.5 1850.16 918.7C1850.16 912.7 1851.06 907 1852.86 901.6C1866.06 859 1883.76 821.8 1905.96 790C1914.96 778 1924.56 768.4 1934.76 761.2C1943.16 755.8 1950.06 753.1 1955.46 753.1C1963.86 753.1 1971.36 760 1977.96 773.8C1981.56 772.6 1984.26 770.5 1986.06 767.5C1987.86 763.9 1989.06 761.8 1989.66 761.2L2024.76 709.9C2050.56 671.5 2068.56 636.7 2078.76 605.5C2088.96 573.1 2102.46 542.8 2119.26 514.6C2125.26 502 2131.56 493.3 2138.16 488.5C2140.56 486.1 2143.56 484.9 2147.16 484.9C2150.16 484.9 2152.56 485.5 2154.36 486.7ZM1886.16 895.3C1924.56 849.7 1950.36 817.6 1963.56 799C1964.76 796.6 1967.16 793 1970.76 788.2C1974.96 783.4 1977.36 778.9 1977.96 774.7C1975.56 774.1 1971.96 773.8 1967.16 773.8C1958.76 773.8 1951.26 776.2 1944.66 781C1938.06 785.8 1931.46 792.4 1924.86 800.8C1923.66 801.4 1922.46 802.9 1921.26 805.3C1909.26 823.9 1897.26 848.2 1885.26 878.2L1883.46 885.4C1883.46 889 1884.36 892.3 1886.16 895.3ZM2158.1 986.2C2146.7 986.2 2136.8 983.5 2128.4 978.1C2120.6 972.1 2115.2 963.7 2112.2 952.9C2108 940.9 2106.2 930.7 2106.8 922.3C2106.2 911.5 2108.3 897.7 2113.1 880.9C2124.5 844.9 2141.9 815.8 2165.3 793.6C2174.3 785.2 2182.7 778.9 2190.5 774.7C2198.9 769.9 2208.2 767.5 2218.4 767.5C2227.4 767.5 2234.3 770.5 2239.1 776.5C2244.5 782.5 2246.6 790.6 2245.4 800.8C2243 818.8 2235.5 834.4 2222.9 847.6C2207.9 863.8 2194.1 876.7 2181.5 886.3C2168.9 895.3 2154.5 900.7 2138.3 902.5C2134.7 903.1 2132.3 905.8 2131.1 910.6C2130.5 913 2130.2 916.6 2130.2 921.4C2130.2 929.8 2131.4 936.7 2133.8 942.1C2137.4 958.9 2147.6 965.8 2164.4 962.8C2175.2 960.4 2188.1 955.6 2203.1 948.4C2226.5 935.8 2248.1 920.5 2267.9 902.5L2331.8 842.2L2348.9 826C2353.7 821.8 2358.2 821.8 2362.4 826C2366.6 830.2 2367.5 834.7 2365.1 839.5C2363.9 841.9 2361.5 844.9 2357.9 848.5C2321.9 885.1 2291.9 913.3 2267.9 933.1C2246.9 950.5 2225.6 964.3 2204 974.5C2186 982.3 2170.7 986.2 2158.1 986.2ZM2150 875.5C2180.6 859.3 2201.6 841 2213 820.6C2218.4 812.2 2221.1 805.3 2221.1 799.9C2220.5 793.9 2217.8 791.5 2213 792.7C2207.6 793.3 2202.2 795.4 2196.8 799C2172.8 814.6 2154.8 838.3 2142.8 870.1C2142.8 873.1 2143.4 874.6 2144.6 874.6C2147.6 875.8 2149.4 876.1 2150 875.5Z" fill="#FFF490"/>
</g>
<path d="M1377.62 1033C1354.82 1024 1337.42 1009.9 1325.42 990.7C1307.42 963.7 1298.42 929.2 1298.42 887.2C1298.42 861.4 1302.02 833.2 1309.22 802.6C1326.02 730.6 1351.22 668.2 1384.82 615.4C1419.02 562 1462.52 520.3 1515.32 490.3C1534.52 479.5 1553.72 471.7 1572.92 466.9C1577.72 465.7 1584.32 464.5 1592.72 463.3C1627.52 460.9 1648.22 477.4 1654.82 512.8C1656.62 518.8 1657.52 525.7 1657.52 533.5C1657.52 538.9 1656.32 547.6 1653.92 559.6C1649.12 580.6 1641.92 599.8 1632.32 617.2C1615.52 646.6 1593.92 678.1 1567.52 711.7L1561.22 718.9C1558.82 721.3 1555.82 722.8 1552.22 723.4C1549.22 723.4 1547.12 722.2 1545.92 719.8C1545.32 718.6 1545.02 717.1 1545.02 715.3C1545.02 712.9 1546.52 710.2 1549.52 707.2C1568.72 682.6 1585.82 657.4 1600.82 631.6C1614.02 611.2 1623.92 589 1630.52 565C1633.52 554.8 1635.02 545.5 1635.02 537.1C1635.02 532.9 1634.72 529.6 1634.12 527.2C1632.32 500.2 1620.32 486.7 1598.12 486.7C1595.12 486.7 1590.02 487.3 1582.82 488.5C1566.62 492.7 1550.12 499 1533.32 507.4C1486.52 532.6 1447.82 566.8 1417.22 610C1383.02 656.8 1356.62 714.4 1338.02 782.8C1331.42 806.2 1326.02 835.3 1321.82 870.1C1321.22 874.9 1320.92 881.8 1320.92 890.8C1320.92 917.8 1326.92 943.3 1338.92 967.3C1355.72 999.7 1384.52 1016.5 1425.32 1017.7C1439.12 1017.7 1454.42 1014.7 1471.22 1008.7C1524.62 990.1 1569.62 964.6 1606.22 932.2C1633.22 908.8 1662.02 879.4 1692.62 844C1699.82 835 1705.82 828.7 1710.62 825.1C1713.02 823.9 1715.12 823.3 1716.92 823.3C1719.92 823.3 1722.32 824.2 1724.12 826C1728.32 829.6 1728.92 834.1 1725.92 839.5C1725.92 840.1 1723.52 843.4 1718.72 849.4C1698.92 872.2 1681.82 891.1 1667.42 906.1C1653.62 921.1 1638.92 935.2 1623.32 948.4C1581.32 985 1533.02 1012.6 1478.42 1031.2C1459.82 1037.8 1441.52 1041.1 1423.52 1041.1C1408.52 1041.1 1393.22 1038.4 1377.62 1033ZM1745.5 971.8C1737.1 976.6 1728.7 979 1720.3 979C1709.5 979 1699.9 975.7 1691.5 969.1C1683.1 961.9 1677.7 952.6 1675.3 941.2C1673.5 932.8 1672.9 925 1673.5 917.8C1677.1 880.6 1691.2 847.9 1715.8 819.7C1723.6 809.5 1732 802.9 1741 799.9C1744.6 798.1 1748.5 797.2 1752.7 797.2C1758.7 798.4 1762 801.4 1762.6 806.2V809.8C1762.6 814.6 1760.8 817.3 1757.2 817.9C1748.2 819.7 1741.3 823 1736.5 827.8C1731.7 832.6 1725.7 840.7 1718.5 852.1C1710.1 867.1 1704.1 882.4 1700.5 898C1698.1 905.2 1696.9 913.9 1696.9 924.1C1696.9 934.3 1698.7 942.1 1702.3 947.5C1706.5 952.9 1712.5 955.6 1720.3 955.6C1725.1 955.6 1729.9 954.1 1734.7 951.1C1739.5 948.1 1743.4 943.9 1746.4 938.5C1753.6 925.9 1757.2 915.1 1757.2 906.1C1757.2 897.7 1754.5 889 1749.1 880C1746.7 876.4 1743.7 870.4 1740.1 862V859.3C1740.1 856.3 1741 853.9 1742.8 852.1C1744.6 850.3 1746.7 849.1 1749.1 848.5H1777C1787.8 849.7 1804.6 847 1827.4 840.4L1876.9 822.4L1891.3 818.8C1896.1 818.8 1900 821.2 1903 826C1903.6 827.2 1903.9 828.7 1903.9 830.5C1903.9 835.3 1901.2 838.6 1895.8 840.4L1871.5 849.4C1867.9 850.6 1857.7 854.2 1840.9 860.2C1824.7 865.6 1808.5 869.2 1792.3 871C1786.3 871.6 1782.4 872.5 1780.6 873.7C1778.8 874.3 1777.9 876.1 1777.9 879.1C1777.9 882.7 1778.2 886 1778.8 889C1780 896.2 1780.6 901.6 1780.6 905.2C1780.6 916.6 1777.9 928.3 1772.5 940.3C1766.5 953.5 1757.5 964 1745.5 971.8ZM2154.36 486.7C2157.36 488.5 2159.46 492.7 2160.66 499.3C2160.66 505.3 2158.26 513.7 2153.46 524.5C2142.06 556.3 2128.26 584.5 2112.06 609.1C2094.06 637.3 2077.26 676 2061.66 725.2C2038.86 802 2023.56 866.8 2015.76 919.6C2009.16 965.8 2005.86 1004.2 2005.86 1034.8C2005.86 1047.4 2006.16 1057 2006.76 1063.6C2007.36 1085.8 2010.66 1108.9 2016.66 1132.9C2017.86 1135.3 2018.46 1137.1 2018.46 1138.3L2019.36 1143.7C2019.36 1149.7 2016.66 1153.6 2011.26 1155.4C2010.06 1156 2008.56 1156.3 2006.76 1156.3C2000.76 1156.3 1996.86 1152.1 1995.06 1143.7C1987.86 1114.9 1983.96 1087.9 1983.36 1062.7C1980.96 997.9 1988.16 926.8 2004.96 849.4C2007.36 837.4 2013.36 813.4 2022.96 777.4C2025.36 769 2025.96 762.4 2024.76 757.6V758.5C2019.36 760.9 2014.86 764.8 2011.26 770.2C2008.26 775.6 2005.86 779.5 2004.06 781.9C1972.26 828.1 1943.46 865.3 1917.66 893.5C1914.66 897.1 1905.06 907 1888.86 923.2C1881.66 929.2 1875.66 932.8 1870.86 934H1867.26C1863.06 934 1859.46 932.8 1856.46 930.4C1852.86 927.4 1850.76 923.5 1850.16 918.7C1850.16 912.7 1851.06 907 1852.86 901.6C1866.06 859 1883.76 821.8 1905.96 790C1914.96 778 1924.56 768.4 1934.76 761.2C1943.16 755.8 1950.06 753.1 1955.46 753.1C1963.86 753.1 1971.36 760 1977.96 773.8C1981.56 772.6 1984.26 770.5 1986.06 767.5C1987.86 763.9 1989.06 761.8 1989.66 761.2L2024.76 709.9C2050.56 671.5 2068.56 636.7 2078.76 605.5C2088.96 573.1 2102.46 542.8 2119.26 514.6C2125.26 502 2131.56 493.3 2138.16 488.5C2140.56 486.1 2143.56 484.9 2147.16 484.9C2150.16 484.9 2152.56 485.5 2154.36 486.7ZM1886.16 895.3C1924.56 849.7 1950.36 817.6 1963.56 799C1964.76 796.6 1967.16 793 1970.76 788.2C1974.96 783.4 1977.36 778.9 1977.96 774.7C1975.56 774.1 1971.96 773.8 1967.16 773.8C1958.76 773.8 1951.26 776.2 1944.66 781C1938.06 785.8 1931.46 792.4 1924.86 800.8C1923.66 801.4 1922.46 802.9 1921.26 805.3C1909.26 823.9 1897.26 848.2 1885.26 878.2L1883.46 885.4C1883.46 889 1884.36 892.3 1886.16 895.3ZM2158.1 986.2C2146.7 986.2 2136.8 983.5 2128.4 978.1C2120.6 972.1 2115.2 963.7 2112.2 952.9C2108 940.9 2106.2 930.7 2106.8 922.3C2106.2 911.5 2108.3 897.7 2113.1 880.9C2124.5 844.9 2141.9 815.8 2165.3 793.6C2174.3 785.2 2182.7 778.9 2190.5 774.7C2198.9 769.9 2208.2 767.5 2218.4 767.5C2227.4 767.5 2234.3 770.5 2239.1 776.5C2244.5 782.5 2246.6 790.6 2245.4 800.8C2243 818.8 2235.5 834.4 2222.9 847.6C2207.9 863.8 2194.1 876.7 2181.5 886.3C2168.9 895.3 2154.5 900.7 2138.3 902.5C2134.7 903.1 2132.3 905.8 2131.1 910.6C2130.5 913 2130.2 916.6 2130.2 921.4C2130.2 929.8 2131.4 936.7 2133.8 942.1C2137.4 958.9 2147.6 965.8 2164.4 962.8C2175.2 960.4 2188.1 955.6 2203.1 948.4C2226.5 935.8 2248.1 920.5 2267.9 902.5L2331.8 842.2L2348.9 826C2353.7 821.8 2358.2 821.8 2362.4 826C2366.6 830.2 2367.5 834.7 2365.1 839.5C2363.9 841.9 2361.5 844.9 2357.9 848.5C2321.9 885.1 2291.9 913.3 2267.9 933.1C2246.9 950.5 2225.6 964.3 2204 974.5C2186 982.3 2170.7 986.2 2158.1 986.2ZM2150 875.5C2180.6 859.3 2201.6 841 2213 820.6C2218.4 812.2 2221.1 805.3 2221.1 799.9C2220.5 793.9 2217.8 791.5 2213 792.7C2207.6 793.3 2202.2 795.4 2196.8 799C2172.8 814.6 2154.8 838.3 2142.8 870.1C2142.8 873.1 2143.4 874.6 2144.6 874.6C2147.6 875.8 2149.4 876.1 2150 875.5Z" fill="#FFF490"/>
</g>
<defs>
<filter id="filter0_f_235_2" x="-4.44531" y="692.153" width="2908.3" height="1418.5" filterUnits="userSpaceOnUse" color-interpolation-filters="sRGB">
<feFlood flood-opacity="0" result="BackgroundImageFix"/>
<feBlend mode="normal" in="SourceGraphic" in2="BackgroundImageFix" result="shape"/>
<feGaussianBlur stdDeviation="60" result="effect1_foregroundBlur_235_2"/>
</filter>
<filter id="filter1_f_235_2" x="309" y="119.5" width="1212.02" height="1449" filterUnits="userSpaceOnUse" color-interpolation-filters="sRGB">
<feFlood flood-opacity="0" result="BackgroundImageFix"/>
<feBlend mode="normal" in="SourceGraphic" in2="BackgroundImageFix" result="shape"/>
<feGaussianBlur stdDeviation="100" result="effect1_foregroundBlur_235_2"/>
</filter>
<filter id="filter2_f_235_2" x="1198.41" y="359.7" width="1270.29" height="896.6" filterUnits="userSpaceOnUse" color-interpolation-filters="sRGB">
<feFlood flood-opacity="0" result="BackgroundImageFix"/>
<feBlend mode="normal" in="SourceGraphic" in2="BackgroundImageFix" result="shape"/>
<feGaussianBlur stdDeviation="50" result="effect1_foregroundBlur_235_2"/>
</filter>
<clipPath id="clip0_235_2">
<rect width="2218" height="1688" fill="white" transform="translate(331)"/>
</clipPath>
</defs>
</svg>
