<svg width="2738" height="1992" viewBox="0 0 2738 1992" fill="none" xmlns="http://www.w3.org/2000/svg">
<path d="M2308.48 1365.17C2306.21 1367.6 2303.1 1369.16 2299.16 1369.86C2295.87 1370.44 2292.75 1369.97 2289.77 1368.47C2286.68 1366.3 2284.41 1362.98 2282.94 1358.5C2281.82 1355.99 2280.74 1351.78 2279.7 1345.87C2278.93 1333.82 2278.79 1325.38 2279.29 1320.56L2281.56 1298.83C2282.68 1278.33 2284.42 1259.4 2286.78 1242.06C2292.81 1207.15 2302.51 1154.67 2315.88 1084.62C2317.04 1079.68 2320.29 1069.29 2325.62 1053.46C2327.01 1049.83 2329.29 1047.39 2332.45 1046.16C2335.5 1044.27 2338.52 1044.07 2341.49 1045.58C2347.98 1047.82 2350.6 1053.11 2349.37 1061.45L2345.54 1074.31L2314.01 1235.23C2313.7 1237.32 2313.02 1241.16 2311.98 1246.76C2310.93 1252.36 2310.82 1257.46 2311.63 1262.05C2312.44 1266.65 2313.73 1270.14 2315.51 1272.54C2329.38 1232.18 2348.56 1191.23 2373.05 1149.68C2384.71 1131.38 2395.88 1117.9 2406.54 1109.25C2410.67 1105.82 2415.36 1103.63 2420.61 1102.71C2429.8 1101.09 2438.28 1105.01 2446.04 1114.47C2449.59 1119.26 2453.01 1127.12 2456.29 1138.05L2469.72 1185.44C2473.12 1197.02 2477.87 1206.68 2483.97 1214.4C2488.53 1221.05 2494.51 1222.36 2501.93 1218.34C2511.2 1213.32 2520.81 1204.52 2530.78 1191.93L2544.74 1173.22L2573.48 1134.65C2581.28 1125.15 2586.81 1118.08 2590.05 1113.45C2593.3 1108.81 2595.46 1105.72 2596.54 1104.18C2600.33 1098.77 2604.92 1097.96 2610.33 1101.75C2615.62 1104.88 2617.74 1109.24 2616.7 1114.84C2615.66 1120.44 2613.51 1125.56 2610.27 1130.19C2605.4 1137.14 2588.35 1159.44 2559.11 1197.09L2543.35 1217.13C2533.5 1230.38 2521.58 1239.59 2507.6 1244.76L2498.91 1247.31C2485.78 1249.62 2474.06 1244.58 2463.75 1232.18C2454.99 1220.87 2449.23 1209.36 2446.49 1197.66C2439.58 1173.83 2433.87 1154.86 2429.35 1140.77C2428 1136.94 2425.63 1134.99 2422.23 1134.92C2419.37 1134.07 2416.86 1135.19 2414.7 1138.27C2403.11 1153.18 2395 1164.76 2390.36 1173.03C2363.29 1219.1 2341.52 1270.32 2325.06 1326.7C2324.09 1328.9 2322.39 1334.62 2319.96 1343.85C2318.06 1352.31 2314.24 1359.41 2308.48 1365.17Z" fill="#00FFFF"/>
<path d="M2171.37 1343.65C2163.11 1350.52 2154.38 1354.77 2145.19 1356.39C2133.37 1358.47 2122.23 1356.71 2111.77 1351.11C2101.18 1344.85 2093.48 1335.72 2088.66 1323.71C2085.07 1314.86 2082.9 1306.44 2082.17 1298.45C2078.93 1257.05 2088.05 1218.55 2109.53 1182.94C2116.1 1170.28 2124.01 1161.44 2133.28 1156.42C2136.88 1153.75 2140.97 1152.02 2145.57 1151.2C2152.36 1151.36 2156.55 1154.01 2158.13 1159.14L2158.83 1163.08C2159.76 1168.33 2158.31 1171.64 2154.48 1172.99C2144.98 1176.69 2138.07 1181.64 2133.74 1187.81C2129.42 1193.99 2124.41 1204.01 2118.74 1217.88C2112.44 1235.91 2108.82 1253.81 2107.9 1271.57C2106.66 1279.92 2107.02 1289.67 2108.99 1300.83C2110.96 1311.99 2114.43 1320.18 2119.42 1325.39C2125.05 1330.49 2132.14 1332.29 2140.67 1330.78C2145.93 1329.86 2150.89 1327.29 2155.56 1323.08C2160.24 1318.87 2163.69 1313.52 2165.93 1307.04C2171.38 1291.86 2173.24 1279.35 2171.5 1269.5C2169.88 1260.31 2165.25 1251.31 2157.6 1242.5C2154.28 1239.03 2149.84 1233.04 2144.28 1224.54L2143.76 1221.59C2143.18 1218.3 2143.7 1215.51 2145.33 1213.19C2146.95 1210.87 2149.01 1209.15 2151.52 1208.03L2182.05 1202.65C2194.1 1201.88 2211.96 1195.68 2235.64 1184.06L2286.33 1154.82L2301.39 1148.1C2306.65 1147.17 2311.38 1149.05 2315.59 1153.72C2316.47 1154.92 2317.09 1156.5 2317.44 1158.47C2318.36 1163.72 2316.05 1167.85 2310.49 1170.87L2285.63 1185.4C2281.92 1187.41 2271.46 1193.32 2254.23 1203.12C2237.55 1212.16 2220.52 1219.22 2203.14 1224.32C2196.69 1226.13 2192.59 1227.87 2190.85 1229.53C2189 1230.53 2188.36 1232.68 2188.94 1235.96C2189.64 1239.9 2190.6 1243.45 2191.84 1246.62C2194.54 1254.27 2196.24 1260.06 2196.93 1264C2199.13 1276.47 2198.43 1289.8 2194.84 1303.97C2190.82 1319.57 2183 1332.8 2171.37 1343.65Z" fill="#00FFFF"/>
<path d="M2118.62 1188.45C2123.14 1191.04 2125.47 1194.69 2125.63 1199.4C2125.35 1205.54 2121.97 1213.25 2115.48 1222.51C2106.18 1234.99 2090.94 1252.23 2069.77 1274.24C2049.15 1295.47 2033.66 1309.37 2023.31 1315.94C2015.35 1320.73 2008.75 1323.58 2003.49 1324.51C1994.3 1326.13 1985.9 1324.56 1978.3 1319.81C1970.57 1314.41 1964.41 1306.35 1959.82 1295.65C1953.76 1280.48 1949.19 1260.3 1946.1 1235.12C1944.13 1223.96 1942.3 1215.48 1940.6 1209.69C1940.37 1208.37 1939.21 1207.56 1937.12 1207.25C1935.58 1206.17 1934.27 1206.4 1933.19 1207.95C1928.51 1212.16 1925.15 1216.13 1923.1 1219.88C1911.44 1238.18 1900.58 1261.08 1890.54 1288.58C1874.89 1326.54 1860.4 1371.06 1847.07 1422.15L1831.89 1468.5C1829.46 1477.72 1825.42 1485.54 1819.78 1491.95C1815.76 1496.05 1812.11 1498.38 1808.83 1498.96C1801.61 1500.24 1795.6 1496.89 1790.82 1488.94C1787.46 1481.41 1784.97 1473.05 1783.35 1463.85C1777.06 1435.85 1773.41 1397.91 1772.41 1350.02C1772.22 1341.26 1772.59 1327.99 1773.52 1310.23L1773.82 1271.59C1774.12 1269.5 1774.53 1266.05 1775.03 1261.22C1775.42 1255.74 1775.27 1251.02 1774.57 1247.08C1773.76 1242.49 1771.97 1238.07 1769.19 1233.82C1768.41 1233.28 1767.85 1232.02 1767.51 1230.05C1767.04 1227.43 1767.24 1224.68 1768.09 1221.83C1769.59 1218.85 1770.56 1216.65 1770.98 1215.22C1775.93 1204.87 1779.54 1192.73 1781.82 1178.79C1784.76 1164.73 1786.54 1155.62 1787.16 1151.45C1800.57 1062.43 1827.29 966.332 1867.31 863.148C1868.59 858.862 1875.31 845.153 1887.48 822.022C1890.18 818.16 1893.93 814.453 1898.72 810.901C1899.26 810.129 1900.18 809.627 1901.5 809.395C1904.12 808.932 1906.59 809.512 1908.91 811.134C1911.11 812.1 1912.39 813.568 1912.73 815.537C1914.01 822.759 1914.28 828.127 1913.54 831.641C1912.73 838.554 1910.86 849.039 1907.92 863.096C1893.97 918.358 1880.23 967.151 1866.71 1009.48C1853.73 1051.03 1838.87 1091.56 1822.15 1131.06C1814.65 1149.98 1809.69 1169.81 1807.25 1190.55C1797.35 1268.79 1795.12 1340.6 1800.56 1405.99C1800.95 1412.01 1802.12 1420.6 1804.09 1431.76C1804.21 1432.42 1805.61 1436.57 1808.32 1444.22C1814.07 1438.47 1817.74 1432.4 1819.33 1426.03C1820.79 1419 1821.95 1414.06 1822.8 1411.2C1837.76 1357.79 1853.27 1311.4 1869.34 1272.01C1879.93 1243.74 1890.84 1221.17 1902.08 1204.29C1908.34 1193.71 1915.81 1184.27 1924.5 1175.97C1927.86 1171.99 1932.5 1169.48 1938.4 1168.44C1950.22 1166.36 1958.27 1171.71 1962.56 1184.49C1963.68 1187 1964.76 1191.21 1965.8 1197.12L1969.62 1218.79C1970.43 1223.38 1971.09 1229.02 1971.59 1235.7C1972.75 1242.27 1974.41 1249.76 1976.57 1258.18C1978.65 1270 1980.81 1278.41 1983.05 1283.44C1986.99 1294.25 1992.57 1299.02 1999.79 1297.75C2003.73 1297.05 2007.5 1295.37 2011.09 1292.71C2021.44 1286.14 2036.6 1272.3 2056.57 1251.18C2076.54 1230.06 2090.25 1213.76 2097.7 1202.29C2100.29 1197.78 2103.27 1193.53 2106.63 1189.55C2109.45 1186.35 2113.44 1185.98 2118.62 1188.45ZM1857.33 973.558C1858.3 971.357 1858.66 969.6 1858.43 968.287C1858.2 966.974 1858.36 965.931 1858.9 965.159L1857.33 973.558ZM1855.25 979.003C1854.05 979.891 1852.37 981.88 1850.21 984.969L1855.25 979.003ZM1848.58 987.286C1848.66 995.396 1847.35 1001.38 1844.64 1005.24L1845.63 1005.07L1845.45 1004.08C1849.01 997.366 1850.05 991.766 1848.58 987.286Z" fill="#00FFFF"/>
<path d="M1631.56 1565.76C1626.77 1569.31 1621.75 1571.55 1616.5 1572.48C1606 1574.33 1596.25 1568.94 1587.25 1556.31C1581.69 1547.81 1577.52 1535.69 1574.74 1519.93C1571.85 1503.52 1570.09 1485.89 1569.48 1467.04C1568.86 1448.19 1568.48 1436.41 1568.32 1431.7C1567.48 1365.51 1575.49 1284.22 1592.34 1187.83C1593.77 1176.74 1595.65 1166.26 1597.96 1156.37L1602.02 1133.32C1603.07 1127.72 1603.3 1123.28 1602.72 1120C1602.14 1116.71 1600.15 1115.03 1596.75 1114.95C1593.9 1114.1 1589.24 1114.59 1582.79 1116.4L1504.76 1140.31C1502.25 1141.43 1499.08 1142.67 1495.26 1144.02C1491.44 1145.37 1486.57 1146.57 1480.66 1147.61C1476.06 1148.42 1472.4 1148.73 1469.65 1148.54C1465.48 1147.92 1462.84 1146.35 1461.72 1143.84L1461.2 1140.89C1460.5 1136.95 1461.68 1134.03 1464.73 1132.14C1470.95 1129.01 1479.74 1125.09 1491.09 1120.38C1510.98 1114.17 1545.35 1103.71 1594.21 1089C1605.91 1086.26 1613.13 1079.23 1615.88 1067.92L1632.05 1004.14C1640.16 981.049 1646.57 963.672 1651.29 952.009C1652.87 945.637 1655.4 940.791 1658.88 937.47C1662.24 933.493 1665.56 931.215 1668.84 930.636C1671.47 930.173 1673.61 930.811 1675.27 932.549C1677.59 934.171 1679.04 936.624 1679.62 939.906C1680.31 943.845 1679.71 950.044 1677.82 958.501C1674.88 972.558 1667.37 1000.96 1655.27 1043.71C1654.85 1045.14 1654.05 1048.33 1652.9 1053.27C1651.62 1057.55 1651.5 1062.65 1652.55 1068.56C1659.34 1068.72 1663.73 1068.62 1665.7 1068.27L1676.35 1065.38C1706.63 1056.66 1735.71 1048.82 1763.6 1041.87L1852.64 1017.03C1860.4 1014.99 1867.29 1013.77 1873.32 1013.39C1879.23 1012.34 1884.15 1011.48 1888.09 1010.78C1892.03 1010.09 1895.23 1012.91 1897.71 1019.24C1898.63 1024.49 1897.24 1028.12 1893.53 1030.13C1887.2 1032.6 1878.9 1035.42 1868.62 1038.58L1660.19 1094.63C1653.08 1096.56 1647.52 1099.57 1643.5 1103.66C1639.37 1107.1 1636.57 1112.33 1635.1 1119.36C1628.03 1148.36 1619.91 1194.47 1610.75 1257.69C1601.48 1320.25 1596.22 1367.21 1594.98 1398.57C1593.04 1425.99 1593.91 1459.69 1597.57 1499.66C1598.15 1502.94 1598.4 1506.28 1598.32 1509.68C1598.24 1513.08 1598.49 1516.42 1599.07 1519.7C1600.92 1530.21 1605.98 1537.78 1614.25 1542.41C1620.7 1540.6 1625.54 1537.37 1628.79 1532.74C1632.15 1528.76 1635.06 1524.19 1637.54 1519.01C1640.78 1514.38 1642.89 1510.96 1643.85 1508.76C1659.69 1479.56 1680.4 1437.67 1705.97 1383.06C1709.95 1374.91 1718.93 1356.75 1732.91 1328.56C1746.78 1299.71 1756.9 1280.32 1763.28 1270.4C1763.82 1269.63 1765.32 1266.65 1767.8 1261.48C1770.81 1255.53 1775.37 1250.67 1781.47 1246.88C1785.18 1244.88 1788.85 1244.57 1792.48 1245.96C1798.42 1248.97 1800.28 1253.72 1798.04 1260.21C1798.38 1262.18 1797.74 1264.32 1796.12 1266.64C1786.2 1283.28 1767.31 1320.12 1739.45 1377.16C1734.93 1386.08 1723.75 1409.04 1705.9 1446.03C1687.94 1482.37 1671.08 1513.44 1655.32 1539.23C1650.37 1549.58 1642.46 1558.42 1631.56 1565.76Z" fill="#00FFFF"/>
<path d="M1332.88 1460.02C1329.28 1462.68 1325.52 1464.36 1321.58 1465.06C1315.67 1466.1 1310.4 1465 1305.77 1461.75C1301.02 1457.85 1297.68 1452.35 1295.75 1445.24C1294.47 1438.02 1293.87 1432.71 1293.95 1429.31C1297.74 1377.87 1311.32 1335.88 1334.69 1303.32C1337.28 1298.8 1341.45 1293.67 1347.21 1287.92C1356.21 1277.53 1366.29 1271.35 1377.45 1269.38C1387.3 1267.65 1397.84 1269.85 1409.08 1275.99C1414.25 1278.46 1417.5 1279.58 1418.81 1279.35C1420.78 1279 1423.27 1275.86 1426.28 1269.91C1430.49 1263.08 1436.04 1252.28 1442.91 1237.53L1452.59 1217.55C1460.01 1202.02 1463.72 1194.26 1463.72 1194.26C1468.58 1187.31 1474.2 1184.63 1480.57 1186.21C1487.83 1188.99 1490.63 1195.27 1488.97 1205.04L1480.86 1233.89C1469.27 1271.81 1461.92 1306.95 1458.83 1339.31C1456.43 1364.11 1456.27 1382.41 1458.36 1394.23C1458.94 1397.51 1460.38 1399.97 1462.7 1401.59C1464.9 1402.55 1467.2 1402.15 1469.6 1400.37C1480.49 1393.04 1488.6 1387.21 1493.93 1382.88C1507.29 1370.37 1517.87 1359.37 1525.68 1349.87C1533.6 1341.02 1540.53 1332.35 1546.48 1323.86L1566.47 1299.01C1575.47 1288.62 1580.24 1283.04 1580.78 1282.27C1584.14 1278.29 1588.13 1277.93 1592.77 1281.17C1597.94 1283.64 1600.12 1288.34 1599.31 1295.25C1599.43 1295.91 1597.86 1298.55 1594.62 1303.19C1563.79 1347.21 1534.9 1381.07 1507.94 1404.78C1491.76 1420.5 1477.1 1429.51 1463.97 1431.83C1447.56 1434.72 1437.67 1426.65 1434.32 1407.61C1432.7 1398.42 1431.58 1384.4 1430.96 1365.55C1431 1358.1 1431.76 1345.1 1433.23 1326.57C1425.81 1330.58 1420.6 1335.56 1417.58 1341.51C1415.11 1346.68 1413.33 1350.04 1412.25 1351.59C1391.01 1388.5 1372.31 1416.85 1356.17 1436.62C1347.82 1446.89 1340.06 1454.69 1332.88 1460.02ZM1324.19 1428.04C1327.59 1428.12 1330.37 1426.61 1332.53 1423.52C1353.78 1398.12 1376.63 1362.61 1401.08 1317C1402.27 1316.12 1403.3 1314.24 1404.15 1311.38C1404.57 1309.96 1404.61 1308.26 1404.27 1306.29C1403.57 1302.35 1401.41 1299.68 1397.78 1298.29C1392.6 1295.82 1387.72 1294.99 1383.12 1295.8C1381.81 1296.03 1379.3 1297.15 1375.59 1299.16C1370.03 1302.17 1365.36 1306.38 1361.57 1311.78C1335.46 1344.14 1322.23 1382.35 1321.87 1426.42C1321.87 1426.42 1322.26 1426.69 1323.03 1427.23C1323.69 1427.11 1324.08 1427.38 1324.19 1428.04Z" fill="#00FFFF"/>
<path d="M1091.16 1610.28C1081.31 1612.01 1074.8 1607.74 1071.64 1597.47C1071.17 1594.85 1070.48 1590.91 1069.55 1585.65C1067.97 1580.52 1067.16 1575.92 1067.12 1571.87C1065.01 1509.96 1070.19 1454.89 1082.67 1406.66L1101.16 1327.24C1102.12 1325.04 1102.76 1322.89 1103.07 1320.81C1103.92 1317.95 1105.1 1315.04 1106.61 1312.06C1109.31 1308.2 1113.08 1306.52 1117.9 1307.02C1124.16 1307.95 1127.04 1310.83 1126.53 1315.66C1127.69 1322.22 1127.32 1329.73 1125.43 1338.19C1122.49 1352.25 1117.43 1373.45 1110.24 1401.79C1102.55 1434.97 1097.37 1467.02 1094.7 1497.95C1093.7 1507.61 1093.54 1514.4 1094.24 1518.34C1094.93 1522.28 1096.61 1526.05 1099.28 1529.64L1098.29 1529.81L1099.45 1530.63L1124.14 1446.05C1133.95 1417.25 1145.95 1393.13 1160.12 1373.71C1166.61 1364.44 1173.06 1356.87 1179.47 1351C1183.07 1348.34 1186.83 1346.66 1190.77 1345.96C1198.65 1344.57 1205.58 1347.41 1211.57 1354.48C1214.11 1357.42 1216.45 1361.07 1218.57 1365.43C1221.24 1369.02 1223.84 1372.29 1226.39 1375.22C1235.7 1385.77 1244.62 1390.29 1253.15 1388.78C1257.75 1387.97 1263.04 1385.34 1269.03 1380.9C1285.67 1367.81 1300.87 1352.27 1314.62 1334.28C1317.87 1329.64 1321.56 1325.61 1325.69 1322.17C1326.23 1321.4 1327.49 1320.84 1329.46 1320.49C1332.08 1320.03 1334.88 1320.55 1337.85 1322.06C1342.49 1325.3 1344.17 1329.07 1342.89 1333.36C1341.31 1339.73 1339.11 1344.52 1336.29 1347.72C1323 1368.34 1304.05 1387.59 1279.45 1405.47C1273.46 1409.91 1266.2 1412.88 1257.67 1414.39C1241.26 1417.28 1226.52 1412.43 1213.47 1399.84C1213.47 1399.84 1207.16 1392.83 1194.53 1378.81C1188.62 1379.85 1183.62 1384.12 1179.53 1391.61C1166.55 1410.14 1155.48 1433.76 1146.32 1462.45L1134.21 1503.17C1132.74 1510.2 1126.64 1531.25 1115.9 1566.31C1112.07 1579.17 1107.96 1590.39 1103.55 1599.97C1101.2 1605.8 1097.06 1609.23 1091.16 1610.28Z" fill="#00FFFF"/>
<path d="M837.587 1547.35C833.995 1550.02 830.229 1551.7 826.29 1552.39C820.381 1553.43 815.11 1552.33 810.476 1549.09C805.727 1545.19 802.387 1539.68 800.457 1532.58C799.183 1525.35 798.586 1520.04 798.663 1516.64C802.455 1465.2 816.035 1423.21 839.404 1390.66C841.993 1386.14 846.164 1381 851.919 1375.25C860.919 1364.86 870.999 1358.68 882.16 1356.72C892.008 1354.98 902.551 1357.18 913.788 1363.32C918.963 1365.8 922.207 1366.92 923.52 1366.69C925.49 1366.34 927.981 1363.19 930.994 1357.24C935.204 1350.41 940.748 1339.62 947.624 1324.86L957.301 1304.88C964.718 1289.36 968.426 1281.59 968.426 1281.59C973.293 1274.64 978.913 1271.96 985.285 1273.54C992.545 1276.33 995.344 1282.6 993.682 1292.37L985.568 1321.22C973.977 1359.14 966.634 1394.28 963.54 1426.65C961.142 1451.44 960.985 1469.75 963.069 1481.56C963.648 1484.85 965.096 1487.3 967.413 1488.92C969.614 1489.89 971.912 1489.48 974.306 1487.7C985.198 1480.37 993.309 1474.54 998.639 1470.21C1012 1457.7 1022.59 1446.7 1030.39 1437.2C1038.31 1428.36 1045.24 1419.69 1051.19 1411.19L1071.18 1386.34C1080.18 1375.96 1084.95 1370.38 1085.49 1369.6C1088.85 1365.63 1092.84 1365.26 1097.48 1368.51C1102.65 1370.98 1104.83 1375.67 1104.02 1382.58C1104.14 1383.24 1102.57 1385.88 1099.33 1390.52C1068.51 1434.54 1039.61 1468.4 1012.65 1492.11C996.471 1507.83 981.814 1516.84 968.683 1519.16C952.269 1522.05 942.384 1513.98 939.027 1494.94C937.406 1485.75 936.288 1471.73 935.673 1452.88C935.713 1445.43 936.467 1432.44 937.938 1413.9C930.522 1417.91 925.308 1422.9 922.295 1428.84C919.822 1434.02 918.045 1437.38 916.964 1438.92C895.718 1475.84 877.023 1504.18 860.877 1523.95C852.534 1534.22 844.771 1542.02 837.587 1547.35ZM828.902 1515.37C832.301 1515.45 835.081 1513.95 837.244 1510.86C858.488 1485.45 881.336 1449.94 905.789 1404.34C906.986 1403.45 908.01 1401.58 908.86 1398.72C909.285 1397.29 909.323 1395.59 908.976 1393.62C908.282 1389.68 906.119 1387.02 902.489 1385.62C897.315 1383.15 892.429 1382.32 887.834 1383.13C886.521 1383.36 884.01 1384.48 880.303 1386.49C874.741 1389.5 870.068 1393.71 866.282 1399.12C840.171 1431.48 826.939 1469.69 826.585 1513.75C826.585 1513.75 826.971 1514.02 827.744 1514.56C828.4 1514.45 828.786 1514.72 828.902 1515.37Z" fill="#00FFFF"/>
<path d="M163.745 1863.16C160.501 1867.79 156.581 1870.52 151.985 1871.33C144.106 1872.72 138.43 1869.32 134.955 1861.13C132.485 1854.8 130.555 1847.69 129.165 1839.81C127.892 1832.59 127.082 1827.99 126.734 1826.02C121.293 1795.17 119.581 1752.82 121.596 1698.99C123.227 1639.13 131.309 1560.19 145.843 1462.18C146.23 1456.69 147.815 1444.57 150.599 1425.8L177.912 1217.9C178.105 1215.16 178.936 1210.27 180.405 1203.24C181.758 1195.56 183.612 1188.8 185.969 1182.97C188.016 1179.22 190.295 1176.79 192.805 1175.67C195.857 1173.78 198.811 1173.26 201.669 1174.11C208.929 1176.89 211.554 1182.18 209.545 1189.98C205.758 1206.9 201.641 1235.38 197.194 1275.42L192.322 1316.9C191.008 1328.64 189.21 1341.48 186.93 1355.42C185.19 1368.59 183.353 1383.13 181.42 1399.04C170.403 1474.77 161.628 1538.26 155.094 1589.51C147.052 1655.23 144.63 1718.28 147.827 1778.64C147.671 1785.44 147.941 1790.81 148.636 1794.75C148.751 1795.4 148.713 1797.1 148.519 1799.84C149.098 1803.13 151.029 1804.48 154.311 1803.9C156.937 1803.44 158.676 1801.78 159.526 1798.92C160.491 1796.72 161.245 1795.23 161.785 1794.46L169.378 1762.66L186.361 1697.72C195.016 1662.35 203.053 1631.14 210.472 1604.11C234.815 1511.82 266.088 1428.11 304.293 1353C326.041 1311.26 348.677 1276.47 372.2 1248.63L397.112 1222.91C400.704 1220.25 406.208 1216.91 413.623 1212.89C420.614 1210.3 427.082 1210.52 433.029 1213.53C438.86 1215.89 443.069 1220.56 445.656 1227.55C448.358 1235.2 449.999 1240.66 450.577 1243.95C450.809 1245.26 451.503 1254.95 452.659 1273.03C452.075 1304.27 448.903 1340.03 443.144 1380.31C434.523 1442.75 429.689 1488.29 428.642 1516.9C426.939 1545.63 427.419 1567.55 430.082 1582.65C431.008 1587.9 432.957 1591.28 435.931 1592.79C436.703 1593.33 438.074 1593.43 440.044 1593.08C443.326 1592.5 445.663 1590.4 447.054 1586.77C458.719 1568.46 466.754 1554.52 471.158 1544.94C474.171 1539 481.434 1524.52 492.945 1501.5C505.113 1478.37 517.301 1457.27 529.507 1438.19C537.812 1423.86 548.299 1408.48 560.968 1392.03C569.312 1381.75 579.064 1375.64 590.225 1373.67C604.669 1371.12 616.273 1375.51 625.038 1386.82C631.255 1395.2 636.332 1404.8 640.269 1415.61L667.368 1500.19C675.475 1523.13 683.138 1539.72 690.359 1549.96C702.251 1567.49 714.434 1575.16 726.908 1572.96C736.1 1571.34 745.195 1565.34 754.195 1554.95C757.015 1551.74 767.734 1531.91 786.354 1495.46C791.182 1484.45 803.447 1459.95 823.148 1421.95C824.346 1421.07 825.157 1419.91 825.582 1418.48C826.664 1416.93 828.131 1415.66 829.985 1414.66C833.461 1411.34 837.458 1410.97 841.976 1413.56C846.919 1414.72 849.14 1417.71 848.637 1422.54C848.25 1428.02 846.337 1434.45 842.899 1441.83C799.866 1527.94 771.493 1576.27 757.782 1586.81C746.891 1594.15 737.506 1598.51 729.627 1599.9C715.84 1602.33 701.378 1597.09 686.241 1584.19C672.533 1571.72 663.15 1558.82 658.093 1545.49C653.152 1532.82 644.601 1509.29 632.441 1474.87L615.532 1425.05C613.062 1418.72 610.823 1413.7 608.815 1409.99C604.8 1402.58 599.837 1399.39 593.929 1400.43C590.646 1401.01 586.996 1403.35 582.979 1407.44C578.962 1411.53 574.791 1416.67 570.464 1422.85C566.022 1428.37 562.72 1432.67 560.557 1435.76C541.552 1466.19 521.562 1502.55 500.586 1544.83C493.053 1559.7 484.922 1575.01 476.191 1590.77C469.509 1602.78 462.035 1612.22 453.769 1619.09C448.555 1624.07 442.993 1627.08 437.085 1628.13C431.832 1629.05 426.561 1627.95 421.271 1624.82C416.521 1620.92 412.795 1615.15 410.093 1607.5C408.857 1604.33 407.835 1600.45 407.024 1595.86C406.214 1591.26 405.249 1587.71 404.129 1585.2C400.696 1558.05 400.72 1525.55 404.201 1487.7C405.825 1473.88 409.382 1444.14 414.872 1398.49L420.208 1353.89C424.461 1316.58 426.28 1288.51 425.665 1269.66C426.167 1264.84 425.493 1257.17 423.64 1246.66C423.177 1244.04 421.304 1243.01 418.022 1243.59C414.739 1244.17 411.36 1246.12 407.883 1249.44C404.948 1251.99 402.611 1254.1 400.873 1255.76C379.282 1279.19 359.428 1306.73 341.311 1338.35C301.33 1411.07 270 1488.69 247.319 1571.21C236.075 1611.11 219.982 1671.48 199.039 1752.35L191.099 1782.18C188.355 1793.5 183.584 1810.58 176.783 1833.45C173.924 1844.1 169.578 1854.01 163.745 1863.16Z" fill="#00FFFF"/>
<g filter="url(#filter0_f_247_2)">
<path d="M2308.64 1365.54C2306.36 1367.97 2303.25 1369.54 2299.31 1370.23C2296.03 1370.81 2292.9 1370.35 2289.93 1368.84C2286.84 1366.68 2284.56 1363.36 2283.1 1358.88C2281.98 1356.37 2280.89 1352.16 2279.85 1346.25C2279.08 1334.2 2278.95 1325.76 2279.45 1320.93L2281.71 1299.21C2282.84 1278.7 2284.58 1259.78 2286.93 1242.44C2292.96 1207.53 2302.66 1155.05 2316.04 1084.99C2317.2 1080.05 2320.44 1069.66 2325.77 1053.83C2327.16 1050.2 2329.44 1047.77 2332.61 1046.53C2335.66 1044.64 2338.67 1044.45 2341.65 1045.95C2348.13 1048.19 2350.76 1053.49 2349.52 1061.83L2345.7 1074.69L2314.16 1235.61C2313.85 1237.69 2313.18 1241.54 2312.13 1247.14C2311.09 1252.74 2310.97 1257.83 2311.78 1262.43C2312.59 1267.02 2313.89 1270.52 2315.66 1272.91C2329.53 1232.56 2348.71 1191.61 2373.2 1150.06C2384.87 1131.75 2396.03 1118.28 2406.69 1109.63C2410.82 1106.19 2415.52 1104.01 2420.77 1103.08C2429.96 1101.46 2438.44 1105.38 2446.2 1114.85C2449.75 1119.63 2453.17 1127.49 2456.45 1138.42L2469.88 1185.81C2473.28 1197.4 2478.03 1207.05 2484.13 1214.78C2488.68 1221.42 2494.67 1222.73 2502.08 1218.72C2511.35 1213.7 2520.97 1204.9 2530.94 1192.31L2544.9 1173.6L2573.64 1135.02C2581.44 1125.52 2586.96 1118.46 2590.21 1113.82C2593.45 1109.19 2595.62 1106.1 2596.7 1104.56C2600.48 1099.15 2605.08 1098.34 2610.48 1102.12C2615.78 1105.25 2617.9 1109.62 2616.86 1115.22C2615.81 1120.82 2613.67 1125.93 2610.42 1130.57C2605.56 1137.52 2588.5 1159.82 2559.26 1197.47L2543.5 1217.51C2533.65 1230.75 2521.74 1239.96 2507.76 1245.14L2499.07 1247.68C2485.94 1250 2474.22 1244.96 2463.91 1232.56C2455.14 1221.24 2449.39 1209.73 2446.65 1198.03C2439.74 1174.2 2434.03 1155.24 2429.51 1141.14C2428.16 1137.32 2425.78 1135.37 2422.39 1135.29C2419.53 1134.44 2417.02 1135.56 2414.86 1138.65C2403.27 1153.56 2395.16 1165.14 2390.52 1173.4C2363.44 1219.47 2341.67 1270.7 2325.21 1327.08C2324.25 1329.28 2322.55 1335 2320.11 1344.22C2318.22 1352.68 2314.4 1359.79 2308.64 1365.54Z" fill="#00FFFF"/>
</g>
<g filter="url(#filter1_f_247_2)">
<path d="M2171.53 1344.02C2163.27 1350.89 2154.54 1355.14 2145.35 1356.76C2133.53 1358.85 2122.39 1357.09 2111.93 1351.49C2101.34 1345.23 2093.64 1336.09 2088.82 1324.08C2085.23 1315.24 2083.06 1306.82 2082.33 1298.83C2079.09 1257.43 2088.21 1218.92 2109.69 1183.32C2116.26 1170.65 2124.17 1161.81 2133.44 1156.79C2137.04 1154.13 2141.13 1152.39 2145.73 1151.58C2152.52 1151.74 2156.71 1154.38 2158.3 1159.52L2158.99 1163.46C2159.92 1168.71 2158.47 1172.01 2154.64 1173.36C2145.14 1177.07 2138.23 1182.01 2133.9 1188.19C2129.58 1194.37 2124.57 1204.39 2118.9 1218.25C2112.6 1236.29 2108.98 1254.19 2108.06 1271.95C2106.82 1280.29 2107.18 1290.04 2109.15 1301.2C2111.12 1312.37 2114.59 1320.55 2119.58 1325.77C2125.21 1330.87 2132.3 1332.66 2140.83 1331.16C2146.09 1330.23 2151.05 1327.66 2155.72 1323.45C2160.4 1319.25 2163.85 1313.9 2166.09 1307.41C2171.54 1292.23 2173.4 1279.72 2171.66 1269.87C2170.04 1260.68 2165.41 1251.68 2157.76 1242.88C2154.44 1239.4 2150 1233.41 2144.44 1224.92L2143.92 1221.96C2143.34 1218.68 2143.86 1215.88 2145.49 1213.56C2147.11 1211.25 2149.17 1209.53 2151.68 1208.41L2182.21 1203.03C2194.26 1202.25 2212.12 1196.06 2235.8 1184.44L2286.49 1155.19L2301.55 1148.47C2306.81 1147.55 2311.54 1149.42 2315.75 1154.09C2316.63 1155.29 2317.25 1156.88 2317.6 1158.84C2318.52 1164.1 2316.21 1168.23 2310.65 1171.24L2285.79 1185.78C2282.08 1187.78 2271.62 1193.69 2254.39 1203.5C2237.71 1212.53 2220.68 1219.6 2203.3 1224.69C2196.85 1226.51 2192.75 1228.25 2191.01 1229.91C2189.16 1230.91 2188.52 1233.05 2189.1 1236.34C2189.8 1240.27 2190.76 1243.83 2192 1246.99C2194.7 1254.64 2196.4 1260.43 2197.09 1264.37C2199.29 1276.85 2198.6 1290.17 2195 1304.34C2190.98 1319.95 2183.16 1333.17 2171.53 1344.02Z" fill="#00FFFF"/>
</g>
<g filter="url(#filter2_f_247_2)">
<path d="M2118.77 1188.83C2123.29 1191.41 2125.63 1195.06 2125.78 1199.78C2125.51 1205.92 2122.13 1213.62 2115.64 1222.89C2106.33 1235.36 2091.09 1252.6 2069.93 1274.61C2049.3 1295.85 2033.81 1309.75 2023.46 1316.31C2015.51 1321.1 2008.9 1323.96 2003.65 1324.88C1994.46 1326.5 1986.06 1324.94 1978.45 1320.19C1970.73 1314.78 1964.57 1306.73 1959.98 1296.03C1953.92 1280.85 1949.34 1260.67 1946.26 1235.49C1944.29 1224.33 1942.45 1215.85 1940.76 1210.06C1940.53 1208.75 1939.37 1207.94 1937.28 1207.63C1935.74 1206.55 1934.42 1206.78 1933.34 1208.32C1928.67 1212.53 1925.31 1216.51 1923.26 1220.25C1911.6 1238.56 1900.74 1261.46 1890.7 1288.95C1875.05 1326.91 1860.56 1371.44 1847.23 1422.53L1832.05 1468.87C1829.61 1478.1 1825.58 1485.92 1819.94 1492.33C1815.92 1496.42 1812.27 1498.76 1808.99 1499.34C1801.76 1500.61 1795.76 1497.27 1790.97 1489.31C1787.61 1481.78 1785.12 1473.42 1783.5 1464.23C1777.21 1436.23 1773.57 1398.29 1772.57 1350.4C1772.38 1341.63 1772.75 1328.37 1773.68 1310.6L1773.97 1271.96C1774.28 1269.88 1774.69 1266.42 1775.19 1261.59C1775.58 1256.11 1775.42 1251.4 1774.73 1247.46C1773.92 1242.86 1772.12 1238.44 1769.34 1234.19C1768.57 1233.65 1768.01 1232.4 1767.66 1230.43C1767.2 1227.8 1767.39 1225.06 1768.24 1222.2C1769.75 1219.23 1770.72 1217.03 1771.14 1215.6C1776.09 1205.25 1779.7 1193.1 1781.98 1179.16C1784.92 1165.11 1786.69 1155.99 1787.31 1151.82C1800.73 1062.81 1827.44 966.707 1867.47 863.523C1868.74 859.236 1875.46 845.528 1887.63 822.397C1890.34 818.535 1894.08 814.828 1898.87 811.276C1899.41 810.504 1900.34 810.002 1901.65 809.77C1904.28 809.307 1906.75 809.887 1909.07 811.509C1911.27 812.475 1912.54 813.943 1912.89 815.912C1914.16 823.134 1914.43 828.502 1913.7 832.016C1912.89 838.929 1911.01 849.414 1908.08 863.471C1894.13 918.733 1880.39 967.526 1866.87 1009.85C1853.89 1051.4 1839.03 1091.93 1822.3 1131.44C1814.81 1150.36 1809.84 1170.19 1807.41 1190.93C1797.51 1269.17 1795.28 1340.98 1800.72 1406.36C1801.1 1412.39 1802.28 1420.98 1804.25 1432.14C1804.36 1432.8 1805.77 1436.95 1808.47 1444.6C1814.23 1438.84 1817.9 1432.78 1819.48 1426.41C1820.95 1419.38 1822.11 1414.44 1822.96 1411.58C1837.91 1358.17 1853.42 1311.77 1869.5 1272.38C1880.08 1244.11 1890.99 1221.54 1902.23 1204.67C1908.49 1194.09 1915.97 1184.65 1924.66 1176.34C1928.02 1172.37 1932.65 1169.86 1938.56 1168.82C1950.38 1166.73 1958.43 1172.08 1962.71 1184.87C1963.83 1187.38 1964.92 1191.59 1965.96 1197.49L1969.78 1219.16C1970.59 1223.76 1971.24 1229.39 1971.74 1236.08C1972.9 1242.64 1974.56 1250.13 1976.72 1258.55C1978.81 1270.37 1980.97 1278.79 1983.21 1283.81C1987.15 1294.62 1992.73 1299.39 1999.95 1298.12C2003.89 1297.43 2007.65 1295.75 2011.24 1293.08C2021.59 1286.52 2036.75 1272.68 2056.72 1251.55C2076.69 1230.43 2090.4 1214.14 2097.86 1202.67C2100.45 1198.15 2103.42 1193.9 2106.78 1189.93C2109.6 1186.72 2113.6 1186.35 2118.77 1188.83ZM1857.49 973.933C1858.45 971.732 1858.82 969.975 1858.59 968.662C1858.36 967.349 1858.51 966.306 1859.05 965.534L1857.49 973.933ZM1855.4 979.378C1854.2 980.266 1852.52 982.255 1850.36 985.344L1855.4 979.378ZM1848.74 987.661C1848.82 995.771 1847.5 1001.76 1844.8 1005.62L1845.78 1005.44L1845.61 1004.46C1849.16 997.741 1850.21 992.141 1848.74 987.661Z" fill="#00FFFF"/>
</g>
<g filter="url(#filter3_f_247_2)">
<path d="M1631.72 1566.13C1626.93 1569.69 1621.91 1571.92 1616.66 1572.85C1606.15 1574.7 1596.4 1569.31 1587.41 1556.68C1581.85 1548.19 1577.68 1536.06 1574.9 1520.3C1572 1503.89 1570.25 1486.26 1569.63 1467.41C1569.02 1448.57 1568.63 1436.79 1568.48 1432.08C1567.64 1365.89 1575.65 1284.59 1592.5 1188.2C1593.93 1177.12 1595.8 1166.63 1598.12 1156.75L1602.18 1133.69C1603.22 1128.09 1603.45 1123.65 1602.88 1120.37C1602.3 1117.09 1600.31 1115.41 1596.91 1115.33C1594.05 1114.48 1589.4 1114.96 1582.95 1116.78L1504.92 1140.69C1502.41 1141.81 1499.24 1143.04 1495.42 1144.4C1491.59 1145.75 1486.73 1146.94 1480.82 1147.98C1476.22 1148.8 1472.55 1149.1 1469.81 1148.91C1465.64 1148.29 1462.99 1146.73 1461.87 1144.22L1461.35 1141.26C1460.66 1137.32 1461.84 1134.41 1464.89 1132.52C1471.11 1129.39 1479.89 1125.47 1491.25 1120.76C1511.14 1114.55 1545.51 1104.08 1594.36 1089.38C1606.07 1086.64 1613.29 1079.61 1616.03 1068.29L1632.2 1004.52C1640.32 981.424 1646.73 964.047 1651.44 952.384C1653.03 946.012 1655.56 941.166 1659.03 937.845C1662.39 933.868 1665.72 931.59 1669 931.011C1671.62 930.548 1673.77 931.186 1675.43 932.924C1677.75 934.546 1679.19 936.999 1679.77 940.281C1680.47 944.22 1679.87 950.419 1677.97 958.876C1675.04 972.933 1667.52 1001.34 1655.43 1044.09C1655 1045.51 1654.21 1048.7 1653.05 1053.64C1651.78 1057.93 1651.66 1063.03 1652.7 1068.94C1659.5 1069.09 1663.88 1069 1665.85 1068.65L1676.51 1065.75C1706.79 1057.03 1735.87 1049.19 1763.75 1042.25L1852.79 1017.41C1860.56 1015.36 1867.45 1014.15 1873.47 1013.76C1879.38 1012.72 1884.31 1011.85 1888.25 1011.16C1892.19 1010.46 1895.39 1013.28 1897.86 1019.62C1898.79 1024.87 1897.4 1028.5 1893.69 1030.51C1887.36 1032.98 1879.05 1035.79 1868.78 1038.96L1660.34 1095.01C1653.24 1096.94 1647.68 1099.95 1643.66 1104.04C1639.53 1107.48 1636.73 1112.71 1635.26 1119.74C1628.19 1148.74 1620.07 1194.85 1610.91 1258.07C1601.63 1320.63 1596.37 1367.59 1595.13 1398.95C1593.2 1426.37 1594.06 1460.06 1597.73 1500.03C1598.3 1503.32 1598.55 1506.66 1598.48 1510.05C1598.4 1513.45 1598.65 1516.79 1599.23 1520.08C1601.08 1530.58 1606.14 1538.15 1614.4 1542.79C1620.85 1540.97 1625.7 1537.75 1628.94 1533.11C1632.3 1529.14 1635.22 1524.56 1637.69 1519.39C1640.94 1514.75 1643.04 1511.33 1644.01 1509.13C1659.85 1479.94 1680.55 1438.04 1706.13 1383.44C1710.1 1375.29 1719.09 1357.12 1733.07 1328.93C1746.94 1300.08 1757.06 1280.7 1763.43 1270.77C1763.97 1270 1765.48 1267.03 1767.95 1261.85C1770.97 1255.91 1775.52 1251.04 1781.63 1247.26C1785.33 1245.25 1789 1244.94 1792.63 1246.33C1798.58 1249.35 1800.43 1254.1 1798.19 1260.58C1798.54 1262.55 1797.9 1264.7 1796.28 1267.01C1786.35 1283.66 1767.46 1320.5 1739.61 1377.53C1735.09 1386.45 1723.91 1409.41 1706.06 1446.41C1688.1 1482.74 1671.23 1513.81 1655.47 1539.61C1650.53 1549.95 1642.61 1558.8 1631.72 1566.13Z" fill="#00FFFF"/>
</g>
<g filter="url(#filter4_f_247_2)">
<path d="M1333.03 1460.39C1329.44 1463.06 1325.67 1464.74 1321.74 1465.43C1315.83 1466.47 1310.56 1465.37 1305.92 1462.13C1301.17 1458.23 1297.83 1452.72 1295.9 1445.62C1294.63 1438.4 1294.03 1433.09 1294.11 1429.69C1297.9 1378.25 1311.48 1336.25 1334.85 1303.7C1337.44 1299.18 1341.61 1294.04 1347.36 1288.29C1356.36 1277.9 1366.44 1271.73 1377.61 1269.76C1387.45 1268.02 1398 1270.22 1409.23 1276.37C1414.41 1278.84 1417.65 1279.96 1418.97 1279.73C1420.93 1279.38 1423.43 1276.23 1426.44 1270.29C1430.65 1263.45 1436.19 1252.66 1443.07 1237.91L1452.75 1217.92C1460.16 1202.4 1463.87 1194.64 1463.87 1194.64C1468.74 1187.69 1474.36 1185 1480.73 1186.59C1487.99 1189.37 1490.79 1195.64 1489.13 1205.41L1481.01 1234.26C1469.42 1272.18 1462.08 1307.33 1458.99 1339.69C1456.59 1364.48 1456.43 1382.79 1458.51 1394.6C1459.09 1397.89 1460.54 1400.34 1462.86 1401.96C1465.06 1402.93 1467.36 1402.52 1469.75 1400.75C1480.64 1393.41 1488.75 1387.58 1494.08 1383.26C1507.45 1370.75 1518.03 1359.74 1525.83 1350.24C1533.75 1341.4 1540.68 1332.73 1546.63 1324.23L1566.62 1299.39C1575.62 1289 1580.39 1283.42 1580.93 1282.65C1584.29 1278.67 1588.29 1278.3 1592.92 1281.55C1598.1 1284.02 1600.28 1288.71 1599.47 1295.62C1599.58 1296.28 1598.02 1298.93 1594.77 1303.56C1563.95 1347.58 1535.06 1381.45 1508.1 1405.15C1491.92 1420.87 1477.26 1429.89 1464.13 1432.2C1447.71 1435.1 1437.83 1427.02 1434.47 1407.98C1432.85 1398.79 1431.73 1384.77 1431.12 1365.93C1431.16 1358.47 1431.91 1345.48 1433.38 1326.94C1425.97 1330.96 1420.75 1335.94 1417.74 1341.88C1415.27 1347.06 1413.49 1350.42 1412.41 1351.96C1391.16 1388.88 1372.47 1417.22 1356.32 1436.99C1347.98 1447.27 1340.22 1455.07 1333.03 1460.39ZM1324.35 1428.42C1327.75 1428.49 1330.53 1426.99 1332.69 1423.9C1353.93 1398.49 1376.78 1362.98 1401.23 1317.38C1402.43 1316.49 1403.45 1314.62 1404.3 1311.76C1404.73 1310.33 1404.77 1308.63 1404.42 1306.66C1403.73 1302.72 1401.56 1300.06 1397.93 1298.67C1392.76 1296.19 1387.87 1295.36 1383.28 1296.17C1381.97 1296.41 1379.46 1297.53 1375.75 1299.53C1370.19 1302.54 1365.51 1306.75 1361.73 1312.16C1335.62 1344.52 1322.38 1382.73 1322.03 1426.79C1322.03 1426.79 1322.42 1427.06 1323.19 1427.61C1323.85 1427.49 1324.23 1427.76 1324.35 1428.42Z" fill="#00FFFF"/>
</g>
<g filter="url(#filter5_f_247_2)">
<path d="M1091.31 1610.65C1081.46 1612.39 1074.96 1608.12 1071.79 1597.85C1071.33 1595.22 1070.63 1591.28 1069.71 1586.03C1068.13 1580.89 1067.31 1576.3 1067.28 1572.24C1065.16 1510.33 1070.34 1455.26 1082.82 1407.03L1101.31 1327.61C1102.28 1325.41 1102.92 1323.27 1103.23 1321.18C1104.08 1318.33 1105.26 1315.41 1106.76 1312.44C1109.47 1308.58 1113.23 1306.9 1118.06 1307.4C1124.32 1308.33 1127.19 1311.2 1126.69 1316.03C1127.85 1322.6 1127.48 1330.11 1125.59 1338.57C1122.65 1352.62 1117.59 1373.82 1110.4 1402.17C1102.71 1435.34 1097.53 1467.39 1094.86 1498.33C1093.86 1507.98 1093.7 1514.78 1094.39 1518.72C1095.09 1522.66 1096.77 1526.42 1099.43 1530.02L1098.45 1530.19L1099.61 1531L1124.3 1446.43C1134.11 1417.62 1146.1 1393.5 1160.28 1374.08C1166.77 1364.81 1173.22 1357.24 1179.63 1351.38C1183.22 1348.71 1186.99 1347.03 1190.93 1346.34C1198.81 1344.95 1205.74 1347.79 1211.72 1354.86C1214.27 1357.79 1216.61 1361.44 1218.73 1365.81C1221.39 1369.4 1224 1372.66 1226.55 1375.6C1235.86 1386.14 1244.78 1390.66 1253.31 1389.16C1257.91 1388.34 1263.2 1385.72 1269.18 1381.28C1285.83 1368.19 1301.03 1352.65 1314.78 1334.65C1318.02 1330.02 1321.71 1325.98 1325.85 1322.55C1326.39 1321.78 1327.64 1321.22 1329.61 1320.87C1332.24 1320.41 1335.04 1320.93 1338.01 1322.43C1342.64 1325.68 1344.32 1329.44 1343.05 1333.73C1341.47 1340.1 1339.26 1344.89 1336.44 1348.1C1323.16 1368.72 1304.21 1387.97 1279.61 1405.84C1273.62 1410.28 1266.36 1413.26 1257.83 1414.76C1241.41 1417.65 1226.68 1412.81 1213.63 1400.21C1213.63 1400.21 1207.31 1393.2 1194.69 1379.18C1188.78 1380.23 1183.78 1384.49 1179.68 1391.98C1166.7 1410.52 1155.64 1434.13 1146.48 1462.83L1134.37 1503.55C1132.9 1510.58 1126.79 1531.62 1116.05 1566.69C1112.23 1579.55 1108.11 1590.76 1103.71 1600.34C1101.35 1606.17 1097.22 1609.61 1091.31 1610.65Z" fill="#00FFFF"/>
</g>
<g filter="url(#filter6_f_247_2)">
<path d="M837.743 1547.73C834.151 1550.39 830.386 1552.07 826.446 1552.77C820.538 1553.81 815.266 1552.71 810.632 1549.46C805.883 1545.56 802.543 1540.06 800.613 1532.95C799.34 1525.73 798.742 1520.42 798.819 1517.02C802.611 1465.58 816.192 1423.58 839.561 1391.03C842.149 1386.51 846.32 1381.38 852.075 1375.62C861.075 1365.24 871.155 1359.06 882.317 1357.09C892.165 1355.35 902.707 1357.56 913.945 1363.7C919.119 1366.17 922.363 1367.29 923.676 1367.06C925.646 1366.71 928.137 1363.57 931.15 1357.62C935.361 1350.78 940.904 1339.99 947.78 1325.24L957.457 1305.26C964.874 1289.73 968.583 1281.97 968.583 1281.97C973.45 1275.02 979.069 1272.34 985.441 1273.92C992.701 1276.7 995.5 1282.98 993.838 1292.75L985.724 1321.6C974.133 1359.52 966.79 1394.66 963.696 1427.02C961.299 1451.81 961.142 1470.12 963.225 1481.94C963.804 1485.22 965.252 1487.67 967.569 1489.3C969.77 1490.26 972.068 1489.86 974.463 1488.08C985.354 1480.74 993.465 1474.91 998.795 1470.59C1012.16 1458.08 1022.74 1447.07 1030.54 1437.57C1038.46 1428.73 1045.4 1420.06 1051.34 1411.57L1071.33 1386.72C1080.33 1376.33 1085.1 1370.75 1085.64 1369.98C1089 1366 1093 1365.64 1097.64 1368.88C1102.81 1371.35 1104.99 1376.05 1104.18 1382.96C1104.29 1383.61 1102.73 1386.26 1099.49 1390.89C1068.66 1434.91 1039.77 1468.78 1012.81 1492.49C996.627 1508.2 981.97 1517.22 968.839 1519.53C952.426 1522.43 942.54 1514.36 939.183 1495.32C937.562 1486.12 936.444 1472.11 935.829 1453.26C935.869 1445.81 936.624 1432.81 938.094 1414.27C930.678 1418.29 925.464 1423.27 922.451 1429.22C919.979 1434.39 918.202 1437.75 917.12 1439.3C895.875 1476.21 877.179 1504.56 861.034 1524.33C852.69 1534.6 844.927 1542.4 837.743 1547.73ZM829.058 1515.75C832.457 1515.83 835.238 1514.32 837.401 1511.23C858.645 1485.82 881.493 1450.32 905.945 1404.71C907.142 1403.82 908.166 1401.95 909.016 1399.09C909.441 1397.66 909.48 1395.96 909.132 1393.99C908.438 1390.06 906.275 1387.39 902.646 1386C897.471 1383.53 892.586 1382.7 887.99 1383.51C886.677 1383.74 884.166 1384.86 880.459 1386.87C874.897 1389.88 870.224 1394.09 866.438 1399.49C840.327 1431.85 827.095 1470.06 826.741 1514.13C826.741 1514.13 827.128 1514.4 827.9 1514.94C828.556 1514.82 828.943 1515.09 829.058 1515.75Z" fill="#00FFFF"/>
</g>
<g filter="url(#filter7_f_247_2)">
<path d="M163.902 1863.54C160.657 1868.17 156.737 1870.89 152.141 1871.7C144.263 1873.09 138.586 1869.69 135.111 1861.5C132.641 1855.17 130.711 1848.06 129.322 1840.19C128.048 1832.96 127.238 1828.37 126.891 1826.4C121.45 1795.54 119.737 1753.2 121.753 1699.36C123.383 1639.5 131.465 1560.57 146 1462.55C146.387 1457.07 147.972 1444.94 150.755 1426.17L178.068 1218.27C178.262 1215.53 179.093 1210.65 180.561 1203.62C181.914 1195.93 183.768 1189.17 186.125 1183.34C188.172 1179.6 190.451 1177.16 192.962 1176.05C196.013 1174.15 198.967 1173.63 201.825 1174.48C209.085 1177.26 211.71 1182.56 209.701 1190.36C205.914 1207.27 201.797 1235.75 197.35 1275.8L192.479 1317.27C191.164 1329.01 189.366 1341.86 187.086 1355.8C185.346 1368.97 183.51 1383.5 181.577 1399.42C170.56 1475.15 161.784 1538.63 155.25 1589.88C147.209 1655.61 144.786 1718.65 147.983 1779.02C147.828 1785.81 148.097 1791.18 148.792 1795.12C148.908 1795.78 148.869 1797.48 148.675 1800.22C149.254 1803.5 151.185 1804.85 154.468 1804.27C157.094 1803.81 158.832 1802.15 159.682 1799.29C160.648 1797.09 161.401 1795.6 161.942 1794.83L169.535 1763.03L186.517 1698.1C195.172 1662.72 203.209 1631.52 210.628 1604.49C234.971 1512.19 266.245 1428.49 304.449 1353.38C326.197 1311.64 348.833 1276.84 372.356 1249L397.269 1223.29C400.861 1220.62 406.364 1217.28 413.78 1213.27C420.77 1210.68 427.239 1210.89 433.186 1213.91C439.017 1216.26 443.226 1220.94 445.812 1227.93C448.514 1235.57 450.155 1241.04 450.734 1244.32C450.965 1245.63 451.659 1255.33 452.815 1273.4C452.231 1304.64 449.06 1340.4 443.3 1380.68C434.679 1443.13 429.845 1488.66 428.799 1517.28C427.095 1546.01 427.575 1567.93 430.238 1583.03C431.164 1588.28 433.114 1591.66 436.087 1593.16C436.859 1593.7 438.23 1593.8 440.2 1593.45C443.483 1592.88 445.819 1590.77 447.21 1587.14C458.876 1568.84 466.91 1554.9 471.314 1545.32C474.327 1539.37 481.59 1524.89 493.101 1501.88C505.27 1478.75 517.457 1457.64 529.663 1438.57C537.968 1424.24 548.455 1408.85 561.125 1392.4C569.468 1382.13 579.22 1376.01 590.381 1374.04C604.825 1371.5 616.429 1375.88 625.194 1387.2C631.411 1395.58 636.488 1405.18 640.425 1415.99L667.524 1500.57C675.631 1523.51 683.295 1540.1 690.515 1550.33C702.407 1567.87 714.59 1575.53 727.065 1573.33C736.256 1571.71 745.352 1565.71 754.351 1555.32C757.171 1552.12 767.89 1532.29 786.51 1495.83C791.339 1484.83 803.604 1460.33 823.305 1422.33C824.502 1421.44 825.313 1420.28 825.738 1418.85C826.82 1417.31 828.287 1416.03 830.141 1415.03C833.617 1411.71 837.615 1411.34 842.133 1413.93C847.076 1415.09 849.296 1418.08 848.793 1422.91C848.406 1428.4 846.494 1434.83 843.055 1442.2C800.022 1528.32 771.65 1576.64 757.938 1587.18C747.047 1594.52 737.662 1598.88 729.783 1600.27C715.996 1602.7 701.534 1597.47 686.397 1584.57C672.689 1572.09 663.307 1559.19 658.249 1545.87C653.308 1533.2 644.757 1509.66 632.597 1475.25L615.689 1425.43C613.218 1419.09 610.979 1414.07 608.971 1410.37C604.956 1402.95 599.994 1399.76 594.085 1400.81C590.802 1401.38 587.152 1403.72 583.135 1407.81C579.118 1411.91 574.947 1417.04 570.621 1423.22C566.179 1428.74 562.876 1433.05 560.713 1436.14C541.708 1466.57 521.718 1502.92 500.742 1545.21C493.209 1560.08 485.078 1575.39 476.348 1591.14C469.665 1603.15 462.191 1612.59 453.925 1619.47C448.711 1624.45 443.15 1627.46 437.241 1628.5C431.988 1629.43 426.717 1628.33 421.427 1625.2C416.677 1621.3 412.951 1615.52 410.249 1607.87C409.014 1604.71 407.991 1600.83 407.18 1596.23C406.37 1591.63 405.405 1588.08 404.285 1585.57C400.852 1558.42 400.876 1525.92 404.357 1488.08C405.981 1474.25 409.538 1444.52 415.028 1398.87L420.364 1354.26C424.617 1316.96 426.436 1288.88 425.821 1270.04C426.324 1265.21 425.649 1257.54 423.797 1247.04C423.334 1244.41 421.461 1243.39 418.178 1243.97C414.895 1244.55 411.516 1246.5 408.04 1249.82C405.104 1252.37 402.768 1254.47 401.029 1256.13C379.438 1279.57 359.584 1307.1 341.467 1338.73C301.487 1411.44 270.156 1489.06 247.475 1571.59C236.231 1611.48 220.138 1671.86 199.195 1752.72L191.255 1782.56C188.512 1793.87 183.74 1810.96 176.94 1833.82C174.08 1844.48 169.734 1854.38 163.902 1863.54Z" fill="#00FFFF"/>
</g>
<path fill-rule="evenodd" clip-rule="evenodd" d="M924.658 260.5C851.532 260.5 792.26 319.758 792.26 392.85C792.26 423.89 802.939 452.41 820.827 474.979L829.985 486.534L652.89 539.645L646.012 542.014C622.718 551.17 604.519 570.212 596.528 594.175L556.945 712.886L555.653 717.661C551.974 735.916 562.415 754.488 580.548 760.528L580.549 760.529C600.181 767.073 621.398 756.464 627.941 736.841L669.257 612.935L765.563 584.052L723.645 751.667L722.177 758.707C717.066 789.617 729.526 820.031 752.925 838.765L753.594 839.301L754.162 839.943C755.857 841.856 757.776 843.63 759.916 845.218L759.917 845.219L912.955 958.863L934.387 1151.7L935.218 1156.72C939.537 1175.68 956.487 1189.5 976.372 1189.5H1019.3L1024.24 1189.21C1042.74 1186.93 1057.06 1171.15 1057.06 1152.05C1057.06 1131.37 1040.28 1114.6 1019.59 1114.6H1005.66L987.937 955.152L986.644 946.981C982.421 926.722 970.91 908.596 954.144 896.148L954.143 896.147L867.868 832.076L877.615 818.128C882.41 810.611 886.099 802.195 888.39 793.04L922.861 655.192L942.941 687.301L947.244 693.583C970.095 723.941 1010.77 735.651 1046.62 721.314L1128.17 688.704L1132.65 686.605C1148.97 677.62 1156.41 657.655 1149.31 639.917C1141.63 620.716 1119.82 611.371 1100.6 619.055L1011.03 654.873L930.664 526.334L953.027 522.157C1012.52 509.179 1057.06 456.201 1057.06 392.85C1057.06 319.758 997.784 260.5 924.658 260.5ZM963.004 540.334C1028.61 523.334 1077.06 463.761 1077.06 392.85C1077.06 308.707 1008.82 240.5 924.658 240.5C840.492 240.5 772.26 308.707 772.26 392.85C772.26 423.364 781.244 451.8 796.703 475.635L646.757 520.604L639.11 523.239L638.922 523.312C610.034 534.59 587.455 558.16 577.555 587.849L537.79 707.106L536.191 713.015L536.132 713.299C530.24 741.466 546.262 770.187 574.227 779.503C604.334 789.537 636.877 773.27 646.914 743.167C646.914 743.167 646.914 743.167 646.914 743.167L684.946 629.11L737.631 613.31L704.147 747.197L702.516 755.014L702.484 755.209C697.99 782.012 704.181 808.482 718.198 829.901L649.827 931.478L553.397 867.214C530.419 851.903 499.82 854.929 480.291 874.451L456.832 897.901C434.389 920.335 434.389 956.715 456.833 979.149C475.892 998.203 504.993 1001.07 527.086 987.77L613.041 1045.05C648.896 1068.95 697.181 1060.68 723.039 1026.22L723.17 1026.04L806.25 904.536L894.04 969.727L914.568 1154.44L915.577 1160.53L915.635 1160.79C921.871 1188.96 946.934 1209.5 976.372 1209.5H1019.88L1025.99 1209.15L1026.28 1209.11C1054.87 1205.79 1077.06 1181.52 1077.06 1152.05C1077.06 1121.66 1053.45 1096.78 1023.57 1094.74L1007.76 952.484L1006.33 943.396L1006.28 943.17C1001.11 918.03 986.858 895.528 966.067 880.091C966.067 880.09 966.067 880.09 966.066 880.09L895.315 827.548C900.845 818.581 905.105 808.632 907.792 797.896L907.792 797.894L930.969 705.212L930.987 705.239L931.113 705.408C959.326 743.078 1009.67 757.631 1054.05 739.884L1136.13 707.061L1141.67 704.464L1141.93 704.326C1167.24 690.629 1178.83 659.851 1167.88 632.487C1156.09 603.027 1122.64 588.703 1093.18 600.484L1019.12 630.096L963.004 540.334ZM790.181 892.604L747.996 861.278C747.995 861.277 747.994 861.277 747.994 861.276C744.969 859.031 742.226 856.538 739.774 853.852C736.817 851.445 734.004 848.886 731.343 846.19L655.302 959.161L542.307 883.857C542.306 883.857 542.307 883.857 542.307 883.857C527.258 873.83 507.218 875.813 494.43 888.596L470.972 912.045C456.343 926.669 456.343 950.381 470.972 965.004C484.577 978.606 506.06 979.562 520.761 967.863L526.467 963.323L624.132 1028.41C651.1 1046.38 687.395 1040.22 706.914 1014.38L790.181 892.604Z" fill="#FFF490"/>
<g opacity="0.5" filter="url(#filter8_f_247_2)">
<path fill-rule="evenodd" clip-rule="evenodd" d="M924.657 300.5C873.611 300.5 832.26 341.862 832.26 392.85C832.26 414.547 839.686 434.377 852.174 450.133L886.81 493.834L945.037 482.958C986.283 473.701 1017.05 436.802 1017.05 392.85C1017.05 341.862 975.704 300.5 924.657 300.5ZM1021.79 558.908C1078.77 525.53 1117.05 463.699 1117.05 392.85C1117.05 286.603 1030.9 200.5 924.657 200.5C818.412 200.5 732.26 286.603 732.26 392.85C732.26 412.936 735.352 432.327 741.082 450.556L634.493 482.522L625.317 485.683L624.375 486.051C584.473 501.628 553.285 534.182 539.609 575.196L499.479 695.547L497.276 703.689L496.979 705.109C486.977 752.927 514.129 801.64 561.576 817.45C561.579 817.451 561.581 817.452 561.584 817.453C598.321 829.695 637.201 818.846 662.462 792.776C664.659 808.255 669.345 823.141 676.19 836.903C669.021 842.3 662.483 848.785 656.827 856.322L656.827 856.323L640.946 877.491L575.58 833.928L575.576 833.926C536.739 808.048 485.025 813.162 452.012 846.161L452.011 846.162L428.553 869.611C428.554 869.611 428.553 869.611 428.553 869.611C390.483 907.667 390.482 969.38 428.551 1007.44C454.002 1032.88 489.981 1041.3 522.424 1032.73L590.857 1078.34C644.372 1114 716.437 1101.67 755.034 1050.22C755.034 1050.22 755.034 1050.22 755.034 1050.22L812.76 973.279C815.055 970.22 817.143 967.071 819.027 963.847L856.208 991.457L874.931 1159.92L876.29 1168.13L876.581 1169.44C886.835 1215.75 928.002 1249.5 976.371 1249.5H1021.03L1029.45 1249.01L1030.89 1248.85C1079.41 1243.21 1117.05 1202.08 1117.05 1152.05C1117.05 1112.77 1093.82 1078.93 1060.35 1063.5L1047.42 947.148L1045.69 936.237L1045.46 935.109C1038.31 900.382 1018.63 869.299 989.911 847.974L944.717 814.412C945.395 812.169 946.021 809.9 946.595 807.607L946.597 807.598L954.92 774.317C989.946 790.281 1030.99 792.182 1068.9 777.025L1152.05 743.773L1159.69 740.196L1160.96 739.506C1203.93 716.259 1223.6 664.072 1205.01 617.629L1205.01 617.628C1185.02 567.649 1128.29 543.366 1078.33 563.343L1035.32 580.542L1021.79 558.908ZM905.177 561.023L849.587 783.329C849.586 783.332 849.585 783.335 849.584 783.338C848.415 788.005 846.593 792.239 844.268 796.017L815.735 836.846L783.944 813.239L781.27 810.218L777.925 807.541C765.656 797.717 759.148 781.904 761.531 765.927L762.641 760.607L819.99 531.291L876.073 514.472L905.177 561.023ZM783.756 813.099C783.759 813.101 783.762 813.103 783.764 813.105L783.756 813.099ZM732.772 913.264L732.754 913.288C732.76 913.28 732.766 913.272 732.772 913.264Z" fill="#FFF490"/>
</g>
<g filter="url(#filter9_f_247_2)">
<path d="M2049.1 867.2C2037.7 867.2 2027.8 864.5 2019.4 859.1C2011.6 853.1 2006.2 844.7 2003.2 833.9C1999 821.9 1997.2 811.7 1997.8 803.3C1997.2 792.5 1999.3 778.7 2004.1 761.9C2015.5 725.9 2032.9 696.8 2056.3 674.6C2065.3 666.2 2073.7 659.9 2081.5 655.7C2089.9 650.9 2099.2 648.5 2109.4 648.5C2118.4 648.5 2125.3 651.5 2130.1 657.5C2135.5 663.5 2137.6 671.6 2136.4 681.8C2134 699.8 2126.5 715.4 2113.9 728.6C2098.9 744.8 2085.1 757.7 2072.5 767.3C2059.9 776.3 2045.5 781.7 2029.3 783.5C2025.7 784.1 2023.3 786.8 2022.1 791.6C2021.5 794 2021.2 797.6 2021.2 802.4C2021.2 810.8 2022.4 817.7 2024.8 823.1C2028.4 839.9 2038.6 846.8 2055.4 843.8C2066.2 841.4 2079.1 836.6 2094.1 829.4C2117.5 816.8 2139.1 801.5 2158.9 783.5L2222.8 723.2L2239.9 707C2244.7 702.8 2249.2 702.8 2253.4 707C2257.6 711.2 2258.5 715.7 2256.1 720.5C2254.9 722.9 2252.5 725.9 2248.9 729.5C2212.9 766.1 2182.9 794.3 2158.9 814.1C2137.9 831.5 2116.6 845.3 2095 855.5C2077 863.3 2061.7 867.2 2049.1 867.2ZM2041 756.5C2071.6 740.3 2092.6 722 2104 701.6C2109.4 693.2 2112.1 686.3 2112.1 680.9C2111.5 674.9 2108.8 672.5 2104 673.7C2098.6 674.3 2093.2 676.4 2087.8 680C2063.8 695.6 2045.8 719.3 2033.8 751.1C2033.8 754.1 2034.4 755.6 2035.6 755.6C2038.6 756.8 2040.4 757.1 2041 756.5Z" fill="#FFF490"/>
</g>
<g filter="url(#filter10_f_247_2)">
<path d="M2045.36 367.699C2048.36 369.499 2050.46 373.699 2051.66 380.299C2051.66 386.299 2049.26 394.699 2044.46 405.499C2033.06 437.299 2019.26 465.499 2003.06 490.099C1985.06 518.299 1968.26 556.999 1952.66 606.199C1929.86 682.999 1914.56 747.799 1906.76 800.599C1900.16 846.799 1896.86 885.199 1896.86 915.799C1896.86 928.399 1897.16 937.999 1897.76 944.599C1898.36 966.799 1901.66 989.899 1907.66 1013.9C1908.86 1016.3 1909.46 1018.1 1909.46 1019.3L1910.36 1024.7C1910.36 1030.7 1907.66 1034.6 1902.26 1036.4C1901.06 1037 1899.56 1037.3 1897.76 1037.3C1891.76 1037.3 1887.86 1033.1 1886.06 1024.7C1878.86 995.899 1874.96 968.899 1874.36 943.699C1871.96 878.899 1879.16 807.799 1895.96 730.399C1898.36 718.399 1904.36 694.399 1913.96 658.399C1916.36 649.999 1916.96 643.399 1915.76 638.599V639.499C1910.36 641.899 1905.86 645.799 1902.26 651.199C1899.26 656.599 1896.86 660.499 1895.06 662.899C1863.26 709.099 1834.46 746.299 1808.66 774.499C1805.66 778.099 1796.06 787.999 1779.86 804.199C1772.66 810.199 1766.66 813.799 1761.86 814.999H1758.26C1754.06 814.999 1750.46 813.799 1747.46 811.399C1743.86 808.399 1741.76 804.499 1741.16 799.699C1741.16 793.699 1742.06 787.999 1743.86 782.599C1757.06 739.999 1774.76 702.799 1796.96 670.999C1805.96 658.999 1815.56 649.399 1825.76 642.199C1834.16 636.799 1841.06 634.099 1846.46 634.099C1854.86 634.099 1862.36 640.999 1868.96 654.799C1872.56 653.599 1875.26 651.499 1877.06 648.499C1878.86 644.899 1880.06 642.799 1880.66 642.199L1915.76 590.899C1941.56 552.499 1959.56 517.699 1969.76 486.499C1979.96 454.099 1993.46 423.799 2010.26 395.599C2016.26 382.999 2022.56 374.299 2029.16 369.499C2031.56 367.099 2034.56 365.899 2038.16 365.899C2041.16 365.899 2043.56 366.499 2045.36 367.699ZM1777.16 776.299C1815.56 730.699 1841.36 698.599 1854.56 679.999C1855.76 677.599 1858.16 673.999 1861.76 669.199C1865.96 664.399 1868.36 659.899 1868.96 655.699C1866.56 655.099 1862.96 654.799 1858.16 654.799C1849.76 654.799 1842.26 657.199 1835.66 661.999C1829.06 666.799 1822.46 673.399 1815.86 681.799C1814.66 682.399 1813.46 683.899 1812.26 686.299C1800.26 704.899 1788.26 729.199 1776.26 759.199L1774.46 766.399C1774.46 769.999 1775.36 773.299 1777.16 776.299Z" fill="#FFF490"/>
</g>
<g filter="url(#filter11_f_247_2)">
<path d="M1636.5 852.8C1628.1 857.6 1619.7 860 1611.3 860C1600.5 860 1590.9 856.7 1582.5 850.1C1574.1 842.9 1568.7 833.6 1566.3 822.2C1564.5 813.8 1563.9 806 1564.5 798.8C1568.1 761.6 1582.2 728.9 1606.8 700.7C1614.6 690.5 1623 683.9 1632 680.9C1635.6 679.1 1639.5 678.2 1643.7 678.2C1649.7 679.4 1653 682.4 1653.6 687.2V690.8C1653.6 695.6 1651.8 698.3 1648.2 698.9C1639.2 700.7 1632.3 704 1627.5 708.8C1622.7 713.6 1616.7 721.7 1609.5 733.1C1601.1 748.1 1595.1 763.4 1591.5 779C1589.1 786.2 1587.9 794.9 1587.9 805.1C1587.9 815.3 1589.7 823.1 1593.3 828.5C1597.5 833.9 1603.5 836.6 1611.3 836.6C1616.1 836.6 1620.9 835.1 1625.7 832.1C1630.5 829.1 1634.4 824.9 1637.4 819.5C1644.6 806.9 1648.2 796.1 1648.2 787.1C1648.2 778.7 1645.5 770 1640.1 761C1637.7 757.4 1634.7 751.4 1631.1 743V740.3C1631.1 737.3 1632 734.9 1633.8 733.1C1635.6 731.3 1637.7 730.1 1640.1 729.5H1668C1678.8 730.7 1695.6 728 1718.4 721.4L1767.9 703.4L1782.3 699.8C1787.1 699.8 1791 702.2 1794 707C1794.6 708.2 1794.9 709.7 1794.9 711.5C1794.9 716.3 1792.2 719.6 1786.8 721.4L1762.5 730.4C1758.9 731.6 1748.7 735.2 1731.9 741.2C1715.7 746.6 1699.5 750.2 1683.3 752C1677.3 752.6 1673.4 753.5 1671.6 754.7C1669.8 755.3 1668.9 757.1 1668.9 760.1C1668.9 763.7 1669.2 767 1669.8 770C1671 777.2 1671.6 782.6 1671.6 786.2C1671.6 797.6 1668.9 809.3 1663.5 821.3C1657.5 834.5 1648.5 845 1636.5 852.8Z" fill="#FFF490"/>
</g>
<g filter="url(#filter12_f_247_2)">
<path d="M1268.62 914C1245.82 905 1228.42 890.9 1216.42 871.7C1198.42 844.7 1189.42 810.2 1189.42 768.2C1189.42 742.4 1193.02 714.2 1200.22 683.6C1217.02 611.6 1242.22 549.2 1275.82 496.4C1310.02 443 1353.52 401.3 1406.32 371.3C1425.52 360.5 1444.72 352.7 1463.92 347.9C1468.72 346.7 1475.32 345.5 1483.72 344.3C1518.52 341.9 1539.22 358.4 1545.82 393.8C1547.62 399.8 1548.52 406.7 1548.52 414.5C1548.52 419.9 1547.32 428.6 1544.92 440.6C1540.12 461.6 1532.92 480.8 1523.32 498.2C1506.52 527.6 1484.92 559.1 1458.52 592.7L1452.22 599.9C1449.82 602.3 1446.82 603.8 1443.22 604.4C1440.22 604.4 1438.12 603.2 1436.92 600.8C1436.32 599.6 1436.02 598.1 1436.02 596.3C1436.02 593.9 1437.52 591.2 1440.52 588.2C1459.72 563.6 1476.82 538.4 1491.82 512.6C1505.02 492.2 1514.92 470 1521.52 446C1524.52 435.8 1526.02 426.5 1526.02 418.1C1526.02 413.9 1525.72 410.6 1525.12 408.2C1523.32 381.2 1511.32 367.7 1489.12 367.7C1486.12 367.7 1481.02 368.3 1473.82 369.5C1457.62 373.7 1441.12 380 1424.32 388.4C1377.52 413.6 1338.82 447.8 1308.22 491C1274.02 537.8 1247.62 595.4 1229.02 663.8C1222.42 687.2 1217.02 716.3 1212.82 751.1C1212.22 755.9 1211.92 762.8 1211.92 771.8C1211.92 798.8 1217.92 824.3 1229.92 848.3C1246.72 880.7 1275.52 897.5 1316.32 898.7C1330.12 898.7 1345.42 895.7 1362.22 889.7C1415.62 871.1 1460.62 845.6 1497.22 813.2C1524.22 789.8 1553.02 760.4 1583.62 725C1590.82 716 1596.82 709.7 1601.62 706.1C1604.02 704.9 1606.12 704.3 1607.92 704.3C1610.92 704.3 1613.32 705.2 1615.12 707C1619.32 710.6 1619.92 715.1 1616.92 720.5C1616.92 721.1 1614.52 724.4 1609.72 730.4C1589.92 753.2 1572.82 772.1 1558.42 787.1C1544.62 802.1 1529.92 816.2 1514.32 829.4C1472.32 866 1424.02 893.6 1369.42 912.2C1350.82 918.8 1332.52 922.1 1314.52 922.1C1299.52 922.1 1284.22 919.4 1268.62 914Z" fill="#FFF490"/>
</g>
<path d="M2049.1 867.2C2037.7 867.2 2027.8 864.5 2019.4 859.1C2011.6 853.1 2006.2 844.7 2003.2 833.9C1999 821.9 1997.2 811.7 1997.8 803.3C1997.2 792.5 1999.3 778.7 2004.1 761.9C2015.5 725.9 2032.9 696.8 2056.3 674.6C2065.3 666.2 2073.7 659.9 2081.5 655.7C2089.9 650.9 2099.2 648.5 2109.4 648.5C2118.4 648.5 2125.3 651.5 2130.1 657.5C2135.5 663.5 2137.6 671.6 2136.4 681.8C2134 699.8 2126.5 715.4 2113.9 728.6C2098.9 744.8 2085.1 757.7 2072.5 767.3C2059.9 776.3 2045.5 781.7 2029.3 783.5C2025.7 784.1 2023.3 786.8 2022.1 791.6C2021.5 794 2021.2 797.6 2021.2 802.4C2021.2 810.8 2022.4 817.7 2024.8 823.1C2028.4 839.9 2038.6 846.8 2055.4 843.8C2066.2 841.4 2079.1 836.6 2094.1 829.4C2117.5 816.8 2139.1 801.5 2158.9 783.5L2222.8 723.2L2239.9 707C2244.7 702.8 2249.2 702.8 2253.4 707C2257.6 711.2 2258.5 715.7 2256.1 720.5C2254.9 722.9 2252.5 725.9 2248.9 729.5C2212.9 766.1 2182.9 794.3 2158.9 814.1C2137.9 831.5 2116.6 845.3 2095 855.5C2077 863.3 2061.7 867.2 2049.1 867.2ZM2041 756.5C2071.6 740.3 2092.6 722 2104 701.6C2109.4 693.2 2112.1 686.3 2112.1 680.9C2111.5 674.9 2108.8 672.5 2104 673.7C2098.6 674.3 2093.2 676.4 2087.8 680C2063.8 695.6 2045.8 719.3 2033.8 751.1C2033.8 754.1 2034.4 755.6 2035.6 755.6C2038.6 756.8 2040.4 757.1 2041 756.5Z" fill="#FFF490"/>
<path d="M2045.36 367.699C2048.36 369.499 2050.46 373.699 2051.66 380.299C2051.66 386.299 2049.26 394.699 2044.46 405.499C2033.06 437.299 2019.26 465.499 2003.06 490.099C1985.06 518.299 1968.26 556.999 1952.66 606.199C1929.86 682.999 1914.56 747.799 1906.76 800.599C1900.16 846.799 1896.86 885.199 1896.86 915.799C1896.86 928.399 1897.16 937.999 1897.76 944.599C1898.36 966.799 1901.66 989.899 1907.66 1013.9C1908.86 1016.3 1909.46 1018.1 1909.46 1019.3L1910.36 1024.7C1910.36 1030.7 1907.66 1034.6 1902.26 1036.4C1901.06 1037 1899.56 1037.3 1897.76 1037.3C1891.76 1037.3 1887.86 1033.1 1886.06 1024.7C1878.86 995.899 1874.96 968.899 1874.36 943.699C1871.96 878.899 1879.16 807.799 1895.96 730.399C1898.36 718.399 1904.36 694.399 1913.96 658.399C1916.36 649.999 1916.96 643.399 1915.76 638.599V639.499C1910.36 641.899 1905.86 645.799 1902.26 651.199C1899.26 656.599 1896.86 660.499 1895.06 662.899C1863.26 709.099 1834.46 746.299 1808.66 774.499C1805.66 778.099 1796.06 787.999 1779.86 804.199C1772.66 810.199 1766.66 813.799 1761.86 814.999H1758.26C1754.06 814.999 1750.46 813.799 1747.46 811.399C1743.86 808.399 1741.76 804.499 1741.16 799.699C1741.16 793.699 1742.06 787.999 1743.86 782.599C1757.06 739.999 1774.76 702.799 1796.96 670.999C1805.96 658.999 1815.56 649.399 1825.76 642.199C1834.16 636.799 1841.06 634.099 1846.46 634.099C1854.86 634.099 1862.36 640.999 1868.96 654.799C1872.56 653.599 1875.26 651.499 1877.06 648.499C1878.86 644.899 1880.06 642.799 1880.66 642.199L1915.76 590.899C1941.56 552.499 1959.56 517.699 1969.76 486.499C1979.96 454.099 1993.46 423.799 2010.26 395.599C2016.26 382.999 2022.56 374.299 2029.16 369.499C2031.56 367.099 2034.56 365.899 2038.16 365.899C2041.16 365.899 2043.56 366.499 2045.36 367.699ZM1777.16 776.299C1815.56 730.699 1841.36 698.599 1854.56 679.999C1855.76 677.599 1858.16 673.999 1861.76 669.199C1865.96 664.399 1868.36 659.899 1868.96 655.699C1866.56 655.099 1862.96 654.799 1858.16 654.799C1849.76 654.799 1842.26 657.199 1835.66 661.999C1829.06 666.799 1822.46 673.399 1815.86 681.799C1814.66 682.399 1813.46 683.899 1812.26 686.299C1800.26 704.899 1788.26 729.199 1776.26 759.199L1774.46 766.399C1774.46 769.999 1775.36 773.299 1777.16 776.299Z" fill="#FFF490"/>
<path d="M1636.5 852.8C1628.1 857.6 1619.7 860 1611.3 860C1600.5 860 1590.9 856.7 1582.5 850.1C1574.1 842.9 1568.7 833.6 1566.3 822.2C1564.5 813.8 1563.9 806 1564.5 798.8C1568.1 761.6 1582.2 728.9 1606.8 700.7C1614.6 690.5 1623 683.9 1632 680.9C1635.6 679.1 1639.5 678.2 1643.7 678.2C1649.7 679.4 1653 682.4 1653.6 687.2V690.8C1653.6 695.6 1651.8 698.3 1648.2 698.9C1639.2 700.7 1632.3 704 1627.5 708.8C1622.7 713.6 1616.7 721.7 1609.5 733.1C1601.1 748.1 1595.1 763.4 1591.5 779C1589.1 786.2 1587.9 794.9 1587.9 805.1C1587.9 815.3 1589.7 823.1 1593.3 828.5C1597.5 833.9 1603.5 836.6 1611.3 836.6C1616.1 836.6 1620.9 835.1 1625.7 832.1C1630.5 829.1 1634.4 824.9 1637.4 819.5C1644.6 806.9 1648.2 796.1 1648.2 787.1C1648.2 778.7 1645.5 770 1640.1 761C1637.7 757.4 1634.7 751.4 1631.1 743V740.3C1631.1 737.3 1632 734.9 1633.8 733.1C1635.6 731.3 1637.7 730.1 1640.1 729.5H1668C1678.8 730.7 1695.6 728 1718.4 721.4L1767.9 703.4L1782.3 699.8C1787.1 699.8 1791 702.2 1794 707C1794.6 708.2 1794.9 709.7 1794.9 711.5C1794.9 716.3 1792.2 719.6 1786.8 721.4L1762.5 730.4C1758.9 731.6 1748.7 735.2 1731.9 741.2C1715.7 746.6 1699.5 750.2 1683.3 752C1677.3 752.6 1673.4 753.5 1671.6 754.7C1669.8 755.3 1668.9 757.1 1668.9 760.1C1668.9 763.7 1669.2 767 1669.8 770C1671 777.2 1671.6 782.6 1671.6 786.2C1671.6 797.6 1668.9 809.3 1663.5 821.3C1657.5 834.5 1648.5 845 1636.5 852.8Z" fill="#FFF490"/>
<path d="M1268.62 914C1245.82 905 1228.42 890.9 1216.42 871.7C1198.42 844.7 1189.42 810.2 1189.42 768.2C1189.42 742.4 1193.02 714.2 1200.22 683.6C1217.02 611.6 1242.22 549.2 1275.82 496.4C1310.02 443 1353.52 401.3 1406.32 371.3C1425.52 360.5 1444.72 352.7 1463.92 347.9C1468.72 346.7 1475.32 345.5 1483.72 344.3C1518.52 341.9 1539.22 358.4 1545.82 393.8C1547.62 399.8 1548.52 406.7 1548.52 414.5C1548.52 419.9 1547.32 428.6 1544.92 440.6C1540.12 461.6 1532.92 480.8 1523.32 498.2C1506.52 527.6 1484.92 559.1 1458.52 592.7L1452.22 599.9C1449.82 602.3 1446.82 603.8 1443.22 604.4C1440.22 604.4 1438.12 603.2 1436.92 600.8C1436.32 599.6 1436.02 598.1 1436.02 596.3C1436.02 593.9 1437.52 591.2 1440.52 588.2C1459.72 563.6 1476.82 538.4 1491.82 512.6C1505.02 492.2 1514.92 470 1521.52 446C1524.52 435.8 1526.02 426.5 1526.02 418.1C1526.02 413.9 1525.72 410.6 1525.12 408.2C1523.32 381.2 1511.32 367.7 1489.12 367.7C1486.12 367.7 1481.02 368.3 1473.82 369.5C1457.62 373.7 1441.12 380 1424.32 388.4C1377.52 413.6 1338.82 447.8 1308.22 491C1274.02 537.8 1247.62 595.4 1229.02 663.8C1222.42 687.2 1217.02 716.3 1212.82 751.1C1212.22 755.9 1211.92 762.8 1211.92 771.8C1211.92 798.8 1217.92 824.3 1229.92 848.3C1246.72 880.7 1275.52 897.5 1316.32 898.7C1330.12 898.7 1345.42 895.7 1362.22 889.7C1415.62 871.1 1460.62 845.6 1497.22 813.2C1524.22 789.8 1553.02 760.4 1583.62 725C1590.82 716 1596.82 709.7 1601.62 706.1C1604.02 704.9 1606.12 704.3 1607.92 704.3C1610.92 704.3 1613.32 705.2 1615.12 707C1619.32 710.6 1619.92 715.1 1616.92 720.5C1616.92 721.1 1614.52 724.4 1609.72 730.4C1589.92 753.2 1572.82 772.1 1558.42 787.1C1544.62 802.1 1529.92 816.2 1514.32 829.4C1472.32 866 1424.02 893.6 1369.42 912.2C1350.82 918.8 1332.52 922.1 1314.52 922.1C1299.52 922.1 1284.22 919.4 1268.62 914Z" fill="#FFF490"/>
<defs>
<filter id="filter0_f_247_2" x="2159.15" y="924.952" width="577.961" height="565.521" filterUnits="userSpaceOnUse" color-interpolation-filters="sRGB">
<feFlood flood-opacity="0" result="BackgroundImageFix"/>
<feBlend mode="normal" in="SourceGraphic" in2="BackgroundImageFix" result="shape"/>
<feGaussianBlur stdDeviation="60" result="effect1_foregroundBlur_247_2"/>
</filter>
<filter id="filter1_f_247_2" x="1961.7" y="1028.24" width="476.102" height="449.366" filterUnits="userSpaceOnUse" color-interpolation-filters="sRGB">
<feFlood flood-opacity="0" result="BackgroundImageFix"/>
<feBlend mode="normal" in="SourceGraphic" in2="BackgroundImageFix" result="shape"/>
<feGaussianBlur stdDeviation="60" result="effect1_foregroundBlur_247_2"/>
</filter>
<filter id="filter2_f_247_2" x="1647.42" y="689.616" width="598.363" height="929.985" filterUnits="userSpaceOnUse" color-interpolation-filters="sRGB">
<feFlood flood-opacity="0" result="BackgroundImageFix"/>
<feBlend mode="normal" in="SourceGraphic" in2="BackgroundImageFix" result="shape"/>
<feGaussianBlur stdDeviation="60" result="effect1_foregroundBlur_247_2"/>
</filter>
<filter id="filter3_f_247_2" x="1341.16" y="810.865" width="676.98" height="882.341" filterUnits="userSpaceOnUse" color-interpolation-filters="sRGB">
<feFlood flood-opacity="0" result="BackgroundImageFix"/>
<feBlend mode="normal" in="SourceGraphic" in2="BackgroundImageFix" result="shape"/>
<feGaussianBlur stdDeviation="60" result="effect1_foregroundBlur_247_2"/>
</filter>
<filter id="filter4_f_247_2" x="1174.1" y="1066.15" width="545.531" height="519.667" filterUnits="userSpaceOnUse" color-interpolation-filters="sRGB">
<feFlood flood-opacity="0" result="BackgroundImageFix"/>
<feBlend mode="normal" in="SourceGraphic" in2="BackgroundImageFix" result="shape"/>
<feGaussianBlur stdDeviation="60" result="effect1_foregroundBlur_247_2"/>
</filter>
<filter id="filter5_f_247_2" x="946.816" y="1187.31" width="516.645" height="543.715" filterUnits="userSpaceOnUse" color-interpolation-filters="sRGB">
<feFlood flood-opacity="0" result="BackgroundImageFix"/>
<feBlend mode="normal" in="SourceGraphic" in2="BackgroundImageFix" result="shape"/>
<feGaussianBlur stdDeviation="60" result="effect1_foregroundBlur_247_2"/>
</filter>
<filter id="filter6_f_247_2" x="678.812" y="1153.48" width="545.531" height="519.667" filterUnits="userSpaceOnUse" color-interpolation-filters="sRGB">
<feFlood flood-opacity="0" result="BackgroundImageFix"/>
<feBlend mode="normal" in="SourceGraphic" in2="BackgroundImageFix" result="shape"/>
<feGaussianBlur stdDeviation="60" result="effect1_foregroundBlur_247_2"/>
</filter>
<filter id="filter7_f_247_2" x="0.933594" y="1054.09" width="967.93" height="937.918" filterUnits="userSpaceOnUse" color-interpolation-filters="sRGB">
<feFlood flood-opacity="0" result="BackgroundImageFix"/>
<feBlend mode="normal" in="SourceGraphic" in2="BackgroundImageFix" result="shape"/>
<feGaussianBlur stdDeviation="60" result="effect1_foregroundBlur_247_2"/>
</filter>
<filter id="filter8_f_247_2" x="200" y="0.5" width="1212.02" height="1449" filterUnits="userSpaceOnUse" color-interpolation-filters="sRGB">
<feFlood flood-opacity="0" result="BackgroundImageFix"/>
<feBlend mode="normal" in="SourceGraphic" in2="BackgroundImageFix" result="shape"/>
<feGaussianBlur stdDeviation="100" result="effect1_foregroundBlur_247_2"/>
</filter>
<filter id="filter9_f_247_2" x="1897.69" y="548.5" width="459.723" height="418.7" filterUnits="userSpaceOnUse" color-interpolation-filters="sRGB">
<feFlood flood-opacity="0" result="BackgroundImageFix"/>
<feBlend mode="normal" in="SourceGraphic" in2="BackgroundImageFix" result="shape"/>
<feGaussianBlur stdDeviation="50" result="effect1_foregroundBlur_247_2"/>
</filter>
<filter id="filter10_f_247_2" x="1641.16" y="265.899" width="510.5" height="871.4" filterUnits="userSpaceOnUse" color-interpolation-filters="sRGB">
<feFlood flood-opacity="0" result="BackgroundImageFix"/>
<feBlend mode="normal" in="SourceGraphic" in2="BackgroundImageFix" result="shape"/>
<feGaussianBlur stdDeviation="50" result="effect1_foregroundBlur_247_2"/>
</filter>
<filter id="filter11_f_247_2" x="1464.27" y="578.2" width="430.625" height="381.8" filterUnits="userSpaceOnUse" color-interpolation-filters="sRGB">
<feFlood flood-opacity="0" result="BackgroundImageFix"/>
<feBlend mode="normal" in="SourceGraphic" in2="BackgroundImageFix" result="shape"/>
<feGaussianBlur stdDeviation="50" result="effect1_foregroundBlur_247_2"/>
</filter>
<filter id="filter12_f_247_2" x="1089.42" y="244.071" width="629.375" height="778.028" filterUnits="userSpaceOnUse" color-interpolation-filters="sRGB">
<feFlood flood-opacity="0" result="BackgroundImageFix"/>
<feBlend mode="normal" in="SourceGraphic" in2="BackgroundImageFix" result="shape"/>
<feGaussianBlur stdDeviation="50" result="effect1_foregroundBlur_247_2"/>
</filter>
</defs>
</svg>
